<svg xmlns="http://www.w3.org/2000/svg" width="310" height="464.999" viewBox="0 0 310 464.999"><defs><style>.a{fill:#ffd2b3;}.b{fill:#c0392b;}.c{fill:#eebd9c;}.d{fill:#ffe3ce;}.e{fill:#2c3e50;}.f{fill:#132231;}.g{fill:#495263;}.h{fill:#af7b6e;}.i{fill:#802212;}.j{fill:#231f20;}.k{fill:#3c5166;}.l{fill:#d2543b;}.m{fill:#962b1c;}.n{fill:#4e6780;}</style></defs><g transform="translate(-18.59 -2.3)"><path class="a" d="M314.169,98.26a12.159,12.159,0,0,0,4.476-3.27,5.609,5.609,0,0,0,1.738-3.083c.087-1.187-.486-2.387.2-3.5.529-.846,2.015-1.434,2.792-2.051a18.021,18.021,0,0,0,5.093-6.638c.485.187,1.859.584,2.195,0s2.554-5.255,2.554-5.255a62.717,62.717,0,0,0,1.7-6.956,10.073,10.073,0,0,0-.486-3.546l-.942-1.289s-1.7-.682-2.127-.341a8.03,8.03,0,0,0-1.063,1.3l-1.272,2.112s-1.068-4.158-3.19-6.479a14.891,14.891,0,0,0-4.185-3.27L316.9,54.077l.709,1.845-1.418-.341q-3.284-1.016-6.661-1.71a50.593,50.593,0,0,1-5.656-1.434,18.057,18.057,0,0,1-4.18-3.069C298.632,48,297.642,46.5,297.642,46.5l-4.4,2.8s-6.1,2.864-6.312,2.864-5.6,1.229-5.6,1.229-.709,2.868-.971,4.98a19.885,19.885,0,0,0,.291,7.9c.248.9.578,1.771.757,2.686.136.724.175,1.467.272,2.2a12.511,12.511,0,0,0,.971,3.378c-1.544-.808-2.214-2.088-3.224-3.345a24.846,24.846,0,0,0-1.767-1.775l-1.942-1.364a3.742,3.742,0,0,0-1.209,2.523,7.888,7.888,0,0,0,.709,2.663,15.669,15.669,0,0,1,2.622,3.476c.816,2.126,1.384,3.3,3.355,4.368a6.883,6.883,0,0,1,2.107,1.378c.524.631.461,1.607,1.131,2.1s1.583.107,2.3.434a2.418,2.418,0,0,1,1.058,1.467l2.185,5.718a3.3,3.3,0,0,0,.617,1.154,3.576,3.576,0,0,0,.932.649c5.962,3.27,12.327,8.021,19.571,5.657C312.275,99.054,313.266,98.671,314.169,98.26Z" transform="translate(-131.665 -23.552)"/><path class="a" d="M303.268,138.67l2.025,11.707s9.958,2.485,15.672,5.676a47.462,47.462,0,0,1,10.681,8.876s3.884-.355,11.244,5.321,7.37,10.642,4.977,15.6-13.109,24.119-13.109,24.119-5.53,12.062-5.714,17.383-.918,10.464-.918,10.464l-1.107,6.381-.738,2.13-1.457,10.815,2.578,13.127a6.544,6.544,0,0,1,1.1,3.546,10.6,10.6,0,0,1-.733,2.836,78.717,78.717,0,0,1,4.977,12.613c2.025,6.918,1.656,9.4,1.656,9.4s-7.739,3.018-11.793,7.629-12.167,12.59-12.167,12.59-11.06,5.321-13.454,5.676-9.584-.355-9.584-.355-3.5,1.953-13.269-2.481-13.454-8.876-13.454-8.876l-11.429-11-3.316-1.953a5.605,5.605,0,0,1-1.291-3.368c.165-1.6,3.316-15.607,3.316-15.607s3.5-7.624,4.239-11.88,2.4-14.187,2.029-16.845-1.107-5.853-1.107-5.853-2.568-10.819-4.967-18.294-4.054-14.365-4.423-15.416a27.834,27.834,0,0,0-2.214-3.737s12.167-20.751,10.681-30.15-2.947-9.754-2.947-9.754l-5.7-2.653s4.607-5.139,7.739-7.1,14.565-5.139,14.565-5.139l7.19-3.191.553-11.707Z" transform="translate(-114.694 -72.665)"/><path class="b" d="M295.591,477.794s3.695,1.266,10.555-1.654,8.977-5.33,9.225-5.713,11.07-10.011,11.011-10.338,5.341-5.027,6.933-5.657,4.855-1.971,4.855-1.971.223-3.242-1.656-9.4a104.756,104.756,0,0,0-4.976-12.613s-5.219-3.088-7.593-3.088-18.891,1.981-19.27,2.163c-.787.378-20.843-.64-20.843-.64l-13.993-.121a115.363,115.363,0,0,0-11.478,1.518c-3.957.888-5.545,1.4-5.545,1.4a94.215,94.215,0,0,0-3.034,10.539c-.529,3.3-.922,10.8-.922,10.8l3.826,2.158s7.283,7.615,8.972,9.137,8.448,7.474,13.988,10.413a43.685,43.685,0,0,0,12.138,3.938S294.537,478.046,295.591,477.794Z" transform="translate(-118.471 -226.493)"/><path class="c" d="M298.35,143.444c-1.457,1.691-5.248,3.1-7.04,3.826,1.359,0,2.719-.061,4.083-.065a69.29,69.29,0,0,1,8.166.612l2.481.28A12.976,12.976,0,0,1,303,146.766c-1.379-.832,8.472-4.074,9.079-4.176a57.318,57.318,0,0,1,12.623-.313,26.063,26.063,0,0,0-1.17-6.54,6.727,6.727,0,0,1-.4-1.672c-.112-2.041,1.767-3.611,3.467-4.835-4.855-2.882-12.458-2.238-17.964-1.579a21.774,21.774,0,0,0-7.768,2.742l-5.957-5.232s3.369,7.227,3.884,10.716c.267,1.78.8,5.4-.117,7.059A3.073,3.073,0,0,1,298.35,143.444Z" transform="translate(-140.311 -65.466)"/><path class="c" d="M306.267,233.1c3.428-4.648,1.33-13.356.971-18.658-.384-5.606-.641-11.45-2.165-16.869a49.185,49.185,0,0,0-2.826-7.6c-1.058-2.27-2.962-4.457-3.821-6.755a11.04,11.04,0,0,1-2.146,10.81c-2.695,2.775-8.613,3.971-12.24,5.139,3.18.822,5.632,3.2,7.851,5.55C299.984,213.276,302.067,222.493,306.267,233.1Z" transform="translate(-136.57 -96.403)"/><path class="c" d="M240.778,263.33c5.986,8.544,7.283,19.228,9.409,29.323s5.894,20.788,14.784,26.548c-2.005,0-3.219,2.107-3.792,3.961a28.729,28.729,0,0,0-1.122,11.445c3.166-.406,5.443-4.05,8.6-3.606a7.03,7.03,0,0,1,3.515,2.074,23.115,23.115,0,0,1,3.622,3.709c.947,1.336,1.534,2.2,3.4,2.551a13.148,13.148,0,0,0,4.19-.093c2.151-.3,4.447-.771,5.889-2.336-.049,2.037-1.942,3.676-3.971,4.242a17.774,17.774,0,0,1-6.312.112c-7.919-.715-16.308-.663-23.994,1.467-1.35.374-6.889,1.06-7.283,2.723.864-3.457,2.428-6.381,3.855-9.572,1.359-3.088,1.248-7.077,1.457-10.371a47.94,47.94,0,0,0,.034-7.787,60.286,60.286,0,0,0-1.942-9.549c-2.462-9.464-4.923-18.934-7.87-28.267a35.018,35.018,0,0,1-1.694-6.839c-.354-3.4.3-7.049-1.33-10.086Z" transform="translate(-114.026 -138.903)"/><path class="c" d="M324.178,350.471a37.38,37.38,0,0,1-9.788,11.553c2.466-1.084,5.593-2.1,7.666-.42a6.964,6.964,0,0,1,1.864,3.139q.971,2.672,1.971,5.33a7.688,7.688,0,0,0,1.359,2.593,2.821,2.821,0,0,0,2.7.962l1.02-6.7a11.833,11.833,0,0,1,.971-3.653,6.626,6.626,0,0,1,5.715-3.513c-2.85-.635-4.544-3.373-5.909-5.858l-2.7-4.905c-.52-.934-1.224-2.018-2.335-2.1-1.738-.135-2.457,2.032-3.564,3.326Z" transform="translate(-152.185 -183.613)"/><path class="c" d="M357.594,202.318a36.526,36.526,0,0,1,12.089-8.208c-1.112.467-4.884-1.233-6.025-1.616a52.438,52.438,0,0,1-6.477-2.649c-1.85-.906-3.374-2.275-5.161-3.27-1.155-.635-3.942-1.084-4.161-2.607a1.309,1.309,0,0,1,.311-.864,25.036,25.036,0,0,1,2.981-3.574,21.624,21.624,0,0,0-4.37,2.429,1.38,1.38,0,0,0-.68,1.4c-.117,2.681-1.457,5.344-1.991,8.012a82,82,0,0,0-1.209,8.619c-.816,9.044,1.51,18.322,3.335,27.165C349.175,218.261,350.83,209.245,357.594,202.318Z" transform="translate(-166.768 -94.437)"/><path class="c" d="M261.261,177.808a23.6,23.6,0,0,0-8.511,7.386,1.661,1.661,0,0,0-.291.565,1.891,1.891,0,0,0,.388,1.285,22.752,22.752,0,0,1,2.258,8.077,14.627,14.627,0,0,0-8.516-8.283c-.345-.126-.777-.467-.534-.747a.622.622,0,0,1,.267-.149c1.4-.523,2.136-1.967,3.136-3.05,1.68-1.817,4.19-2.667,6.584-3.443l5.579-1.808c.068.294.136.593.2.888Z" transform="translate(-116.991 -93.43)"/><path class="c" d="M360.854,171.7c2.957-.645,6.035-.037,9,.57,7.38,1.509,15.133,3.2,20.7,8.1l-1,.659c.689-1.042-.17-2.378-1.044-3.27a35.2,35.2,0,0,0-18.246-9.946,10.26,10.26,0,0,0-4.345-.131,11.359,11.359,0,0,0-2.282.934l-7.176,3.611,4.719-1.275Z" transform="translate(-173.83 -88.027)"/><path class="d" d="M322.1,182.558c-1.724-.827-4.709-.388-4.739,1.869,0,.8,1.753,2.924,2.088,3.761,1.457,3.737,1.918,7.942,2.51,11.847q2.326,15.467,4.656,30.935c.262-11.352-.3-22.7-.854-34.046-.214-4.424-.486-8.993-2.476-12.982A2.83,2.83,0,0,0,322.1,182.558Z" transform="translate(-153.713 -95.844)"/><path class="d" d="M339.312,198.706a54.778,54.778,0,0,1,2.729-12.786c.452-1.313,2.015-3.709,1.015-5-.825-1.065-3.2-.864-4.127-.121-2.219,1.8-1.359,8.007-1.6,10.553a114.377,114.377,0,0,0,.607,26.534c.558,3.971,2.146,8.147,2.374,12.1l-.874-15.215A108.879,108.879,0,0,1,339.312,198.706Z" transform="translate(-163.732 -94.782)"/><path class="d" d="M342.261,308.38a20.775,20.775,0,0,0-.515,5.732c.253,2.667,1.515,5.139,2.753,7.535a31.038,31.038,0,0,0,4.137,6.577,11.02,11.02,0,0,0,6.734,3.835,18.864,18.864,0,0,0-3.685-4.816c-1.01-.962-2.2-1.911-2.5-3.247a5.543,5.543,0,0,1,.52-3.135,65.419,65.419,0,0,1,5.4-10.908c-2.141-.813-4.588,1.018-6.8.341-1.714-.528-2.549-2.336-3.122-3.994a77.077,77.077,0,0,1-2.864-10.581q-.175,7.274-.345,14.552Z" transform="translate(-166.233 -156.349)"/><path class="d" d="M310.58,334.563c3.607-1.752,6.244-4.877,8.768-7.914a14.566,14.566,0,0,0,2.627-3.966,13.621,13.621,0,0,0,.67-4.246,147.483,147.483,0,0,0-.209-16.817c-.039-.523-.3-1.224-.83-1.121-.219.042.107,8.951-2.214,10.156-1.714.892-7.224-.719-8.807-1.831a13.422,13.422,0,0,1,3.442,3.1,12.8,12.8,0,0,1,1.719,5.419c.539,3.373,1.092,5.676-.277,8.815C314.751,327.794,312.182,333.792,310.58,334.563Z" transform="translate(-150.225 -158.89)"/><path class="d" d="M413.443,303.35a38.014,38.014,0,0,0,1.792-6.26,35.921,35.921,0,0,0-6.283,15.757,80.71,80.71,0,0,1-1.9,10.086,43.045,43.045,0,0,1-5.826,12.459,1.629,1.629,0,0,0-.408,1.1c.15,1,1.733.846,2.612.29,3.287-2.083,5.137-5.769,5.972-9.474s.8-7.526,1.17-11.3a52.206,52.206,0,0,1,2.869-12.664Z" transform="translate(-196.652 -157.079)"/><path class="c" d="M408.773,374.631c-1.762,1.378-1.811,3.905-1.714,6.073q.2,4.274.388,8.54a2.515,2.515,0,0,0,.2,1.074,2.757,2.757,0,0,0,.864.878l3.884,2.91c-2.428-3.592-2.554-8.156-2.573-12.45q0-4.471-.039-8.937Z" transform="translate(-199.847 -197.378)"/><path class="d" d="M351.715,377.756c-4.491,1.757-4.433,5.386-4.816,9.282a37.761,37.761,0,0,0-.243,5.391,7.672,7.672,0,0,0,.918,3.639,3.692,3.692,0,0,0,3.185,1.869,6.5,6.5,0,0,0,3.3-1.56,24.016,24.016,0,0,1,10-3.966l-7.457.2a1.863,1.863,0,0,1-1.238-.266,1.577,1.577,0,0,1-.432-1.1c-.306-2.892.1-5.807.083-8.717a6.644,6.644,0,0,0-.655-3.27,2.891,2.891,0,0,0-2.869-1.528Z" transform="translate(-168.779 -200.027)"/><path class="d" d="M314.439,381.16a12.5,12.5,0,0,1,1.457,4.307,43.075,43.075,0,0,1,.762,7.61c0,1.939-.228,4.139-1.826,5.316a7.312,7.312,0,0,1-3.4,1.046,3.152,3.152,0,0,1-1.146,0,3.267,3.267,0,0,1-1.592-1.233,23.024,23.024,0,0,0-9.545-6.479,13.335,13.335,0,0,1,5.506.719,4.163,4.163,0,0,0,1.942.4c1.423-.2,1.991-1.925,1.855-3.3-.277-2.77-1.7-4.882-.888-7.736C308.681,377.847,312.351,377.773,314.439,381.16Z" transform="translate(-144.344 -200.576)"/><path class="e" d="M326.963,48.971c2.107-3.392,4.151-6.606,4.37-6.493,0,0,2.127.832,2.36-.149s.709-1.439-.233-6.208a61.87,61.87,0,0,0-2.049-7.871,21.69,21.69,0,0,0-3.617-6.587c-2.515-3.027-4.248-4.919-4.248-4.919l-6.987-5.83-7.948-5.755a22.873,22.873,0,0,0-7.079-2.495,9.5,9.5,0,0,0-5.341.757l-1.942,1.21-1.5,1.285a11.641,11.641,0,0,0-7.021-1.266c-3.787.589-8.9,4.2-8.9,4.2a29.579,29.579,0,0,0-3.933,5,22.762,22.762,0,0,0-1.884,4.695,18.354,18.354,0,0,1-2.68,6.129c-1.966,2.728-3.855,5.452-3.855,5.452s-1.024,2.5-1.811,4.541a12.889,12.889,0,0,0-.782,4.083l.782.075,2.127,7.722s1.889,6.134,4.093,8.18c1.209,1.121,3.127,3.424,4.777,3.868,2.379.635,3.68-.785,5.748,1.032,1.753,1.546,3.549,3.149,5.477,4.62a1.16,1.16,0,0,0,.388.229,1.243,1.243,0,0,0,.675-.061l5.01-1.4c2.229-.631,5.108-.248,7.438-.533,3.656-.467,7.521-.519,10.856.981a8.449,8.449,0,0,0,2.2.832c1.529.21,3.928-1.761,5.112-2.574A27.858,27.858,0,0,0,322.2,56.5C322.7,55.894,324.866,52.343,326.963,48.971Z" transform="translate(-125.169 -0.152)"/><path class="f" d="M274.029,59.7c-8.487-2.069-9.667-12.267-11.4-19.228a.27.27,0,0,0-.161-.174.286.286,0,0,0-.242.015c-.743.537-.126-1.593-.073-1.775a26.686,26.686,0,0,1,1.325-4.041c2.044-4.345,5.443-7.871,7.132-12.379s2.845-8.409,6.933-11.45c3.544-2.625,10.434-5.1,14.512-2.336l.529-.71c-.767.042-1.583-.551-2.34-.733a12.362,12.362,0,0,0-2.869-.318,15.935,15.935,0,0,0-5.744,1.168,18.676,18.676,0,0,0-8.691,6.9c-2.966,4.527-3.632,9.913-6.943,14.43-2.855,3.905-4.651,7.325-4.9,12.183a.265.265,0,0,0,.14.231.286.286,0,0,0,.278,0c.636-.467,2.607,7.054,2.845,7.815a30.161,30.161,0,0,0,2.7,6.531c2.17,3.644,3.166,3.48,6.836,4.33a.245.245,0,0,0,.3-.166A.234.234,0,0,0,274.029,59.7Z" transform="translate(-124.768 -2.275)"/><path class="g" d="M306.566,5.38a7.4,7.4,0,0,0-2.156-.154c-2.379.192-6.8,2.434-7.72,4.672a9.029,9.029,0,0,0-11.5.4c-2.428,2.069-3.986,4.924-5.472,7.708l-7.385,13.8c-.918,1.71-1.845,3.737-1.015,5.484a7.515,7.515,0,0,0,2.428,2.448,23.329,23.329,0,0,1,5.088,5.545,11.814,11.814,0,0,1,5.166.761c4.768,1.373,9.71.743,14.2,2.756,4.132,1.869,8.953-.135,13.356,1.584a12.547,12.547,0,0,1,7.768,9.488,16.375,16.375,0,0,0,5.515-8.077c1.078-3.1,1.592-6.358,2.364-9.549a5.147,5.147,0,0,1,1.155-2.523c1.4-1.4,3.763-.976,5.7-.467a41.311,41.311,0,0,0-6.8-19.116c-3.85-5.765-10.366-9.81-16.571-13.108a16.273,16.273,0,0,0-4.117-1.654Z" transform="translate(-129.859 -1.548)"/><path class="h" d="M290.858,122.886c1.2,2.882,2.651,2.084,4.583,4.2,1.219,1.327,1.855,4.6,2.238,6.363a22.791,22.791,0,0,1-.2,9.151.335.335,0,0,0,.245.413.352.352,0,0,0,.43-.236c1.762-4.886.753-10.062-1.243-14.743-1.292-3.032-3.083-3.508-5.778-5.34-.126-.089-.335.056-.272.2Z" transform="translate(-140.072 -64.14)"/><path class="h" d="M279.186,159.289c-6.365,2.99-12.667,5.522-19.251,8.04-5.185,1.985-9.943,4.443-13.687,8.5-.67.724.427,1.8,1.117,1.07,5.035-5.33,11.652-7.82,18.5-10.324,4.729-1.728,9.968-3.443,13.5-7.059a.141.141,0,0,0,.014-.19.154.154,0,0,0-.193-.039Z" transform="translate(-117.02 -83.642)"/><path class="h" d="M415.827,393.154c-2.5-8.53-2.428-16.514-1.058-25.193a.2.2,0,0,0-.159-.2.211.211,0,0,0-.239.111,38.618,38.618,0,0,0,1.335,25.329c.029.07.141.047.121-.028Z" transform="translate(-202.833 -194.73)"/><path class="h" d="M409.817,329.358c4.855-5.027,4.967-11.875,5.4-18.354a40.783,40.783,0,0,1,3.748-14.79c1.408-3.186,2.811-6.222,3.01-9.726,0-.364-.612-.467-.675-.084-1.194,6.746-5.3,12.5-6.287,19.293-1.2,8.269.486,16.434-5.413,23.451C409.472,329.292,409.676,329.5,409.817,329.358Z" transform="translate(-201.148 -151.255)"/><path class="h" d="M256.379,403.336c3.831-10.016,6.6-19.116,5.035-29.94-.087-.626-1.2-.467-1.151.154a63.534,63.534,0,0,1-.427,16.033c-.859,4.732-2.811,8.988-4.472,13.482-.228.617.782.874,1.015.271Z" transform="translate(-121.8 -197.526)"/><path class="i" d="M248.177,457.038c1.088-6.848,1.369-13.347,4.219-19.863.286-.654-.942-1.028-1.136-.3-1.709,6.363-4.107,13.417-3.748,20.087,0,.341.607.467.665.084Z" transform="translate(-117.759 -231.351)"/><path class="i" d="M257.016,432.113c13.109-4.877,26.485-3.046,40.108-2.336a82.6,82.6,0,0,0,17.255-.645c7.132-1.135,13.769-2.7,20.484.85a.392.392,0,0,0,.507-.14.361.361,0,0,0-.119-.495c-4.394-2.667-9.225-2.8-14.264-2.14-7.38.934-14.342,2.079-21.848,1.869-14.371-.434-28.475-2.485-42.181,2.854-.121.051-.068.248.058.2Z" transform="translate(-122.602 -226.234)"/><path class="i" d="M418.049,432.957c2.617,7.605,5.7,14.089,6.506,22.232.092.9,1.568.911,1.457,0-.714-7.507-2.534-16.322-7.414-22.451C418.409,432.5,417.928,432.616,418.049,432.957Z" transform="translate(-205.507 -229.291)"/><path class="a" d="M244.3,483.749s-3.214,13.08-4.855,22.568-1.01,22.956-1.01,22.956,1.389,20.162,3.535,27.814,3.535,12.389,3.535,12.389l.121,10.076.131,4.98-.757,3.4a32.509,32.509,0,0,0,.757,6.073c.631,2.186,1.631,5.1,1.631,5.1s-4.035,12.267-4.413,19.19a109.233,109.233,0,0,0,.757,16.028s1.646,8.016,3.17,11.174,2.656,6.321,2.656,6.321a59.206,59.206,0,0,0,.757,17c1.767,9.838,3.908,14.575,3.908,14.575l3.666,6.8.252,10.324-1.393,3.27-5.816,7.661-1.389,1.093-2.913.364v2.2l.486,1.943a13.346,13.346,0,0,0,3.792,1.7,10.916,10.916,0,0,0,3.913-.121l4.039,3.4a9.6,9.6,0,0,0,4.918,1.093,27.517,27.517,0,0,0,6.8-1.579s2.777-.243,2.777-3.644a13,13,0,0,0-.879-5.223l-1.015-3.765-.379-2.186s2.777-3.522,2.656-5.466a8.814,8.814,0,0,0-1.01-3.644,46.258,46.258,0,0,1-1.515-4.858c-.257-1.093-.636-2.8-.636-2.8s2.151-8.745,2.151-9.109.374-8.988.374-9.474,2.02-15.668,2.02-15.668l2.277-20.158s.486-9.109-.485-13-2.651-10.567-2.651-10.567l2.272-10.931s2.525-8.988,2.913-14.7.631-11.9.631-11.9l-.379-6.68s3.787-13.6,5.826-25.623a119.328,119.328,0,0,0,1.641-21.863v-5.017c0-.673-.35-7.185-.029-7.325-7.394,3.209-17.546-3.4-23.072-7.577-9.463-7.166-11.609-10.324-11.609-10.324S246.124,483.651,244.3,483.749Z" transform="translate(-113.045 -256.539)"/><path class="c" d="M283.8,538.9c4.768.846,9.633,2.429,12.953,5.83,3.583,3.676,4.826,8.9,5.515,13.9,1.7,12.356.869,24.89.034,37.33a25.144,25.144,0,0,0,3.127-8.152,161.1,161.1,0,0,0,4.049-51.3c-4.467-.3-8.841,1.065-13.206,2.032s-9.128,1.495-13.167-.355Z" transform="translate(-136.092 -284.627)"/><path class="d" d="M254.319,490.893a27.981,27.981,0,0,0,5.074,14.145,18.955,18.955,0,0,0,13.012,7.685,10.456,10.456,0,0,0,7.744-2c-3.452-3.737-8.54-5.606-12.565-8.726-4.19-3.27-7.122-7.848-11.351-11.071a1.767,1.767,0,0,0-1.6-.491c-.544.215-.4,1.261.17,1.1Z" transform="translate(-121.264 -260.068)"/><path class="d" d="M245.481,536.987c.568,10.772,2.971,21.774.068,32.2-2.238-6.391-4.491-12.837-5.273-19.536a90.911,90.911,0,0,1-.418-10.221c-.058-17.471.486-34.569,5.117-51.475a26.44,26.44,0,0,0,1.486,7.8,13.464,13.464,0,0,1,1.073,3.947,10.991,10.991,0,0,1-.316,2.574C244.956,513.769,244.879,525.345,245.481,536.987Z" transform="translate(-113.834 -258.779)"/><path class="c" d="M258.936,612.624l2-5.288c1.359,10.567,2.709,21.391.248,31.766-.8,3.387-2.005,6.7-2.36,10.16-.515,5.031.806,10.091,2.719,14.8.107-1.131-1.345-1.92-2.486-1.644a5.033,5.033,0,0,0-2.636,2.149,27.488,27.488,0,0,0-4.171,8.521c-.364-5.494,3.34-10.642,3.151-16.145a38.3,38.3,0,0,0-.544-4.13c-.733-5.106-.116-10.277.2-15.416a132.7,132.7,0,0,0-1.665-30.51c-.772-4.494-1.782-9.039-1.253-13.547a168.223,168.223,0,0,0,4.059,18.34,2.3,2.3,0,0,0,.646,1.224,1.687,1.687,0,0,0,2.311-.635,4.476,4.476,0,0,0,.384-2.565Z" transform="translate(-120.08 -314.936)"/><path class="c" d="M294.626,678.16a25.581,25.581,0,0,1-2.976,14.356,6.3,6.3,0,0,0-1.146,3.373c.17,1.971,2.394,3.5,2.122,5.466l-7.7-4.615c4.855,4.158,9.885,8.53,12.337,14.327-.1-5.512,1.68-10.875,2.777-16.285a66.794,66.794,0,0,0,.869-21.1,50.418,50.418,0,0,1-1.384,9.138c-.52,2.107-1.505,4.5-3.68,5.045a38.964,38.964,0,0,0-1.427-11.417c-.044,1.429-.092,2.859-.136,4.288Z" transform="translate(-137.028 -357.745)"/><path class="c" d="M261.061,845.68c.8,2.495,2.816,4.438,4.03,6.769a22.914,22.914,0,0,1,1.942,8c1.277,10.632,2.733,21.316,6.2,31.481-3.622-7.288-7.283-14.608-9.773-22.32s-3.884-15.883-2.831-23.9Z" transform="translate(-124.34 -449.395)"/><path class="d" d="M265.505,800.893a93.887,93.887,0,0,0,6.909-36.4c-.078-6.283-.869-12.8-4.287-18.149-1.432-2.247-3.695-4.4-6.423-4.284-2.146.093-3.947,1.574-5.3,3.181-4.117,4.9-5.583,11.492-5.258,17.789s2.282,12.4,4.37,18.378a119.476,119.476,0,0,0,8.783,20.3Z" transform="translate(-119.623 -394.181)"/><path class="d" d="M300.625,765.241a51.775,51.775,0,0,0-3.486-14.626c-.869-2.112-2.748-9.409-6.312-5.69-1.893,1.985-.884,6.3-.971,8.792-.16,3.737-.136,7.474,0,11.212.311,7.507,1.151,14.982,2.073,22.456.733,5.956,1.418,11.973,2.335,17.967,1.767-1.953,2.428-4.578,3.054-7.091C300.023,787.272,301.742,776.588,300.625,765.241Z" transform="translate(-139.464 -395.154)"/><path class="d" d="M287.931,830.931a124.777,124.777,0,0,0,1.646,41.432c.2.976,1.015,2.242,1.918,1.752a1.6,1.6,0,0,0,.636-1.224,344.028,344.028,0,0,0,5.088-53.82c.053-3.532-.35-7.759-3.569-9.45a76.112,76.112,0,0,0-6.4,30.794Z" transform="translate(-138.054 -430.18)"/><path class="d" d="M297.217,979.207c2.292-2-1.413-8.306-4.166-8.2-2.2.084-5.341,5.311-5.481,7.3a3.006,3.006,0,0,0,.1,1.177,2.643,2.643,0,0,0,2.054,1.574,6.723,6.723,0,0,0,2.724-.168,25.74,25.74,0,0,0,3.5-1.018,3.993,3.993,0,0,0,1.272-.663Z" transform="translate(-138.377 -516.175)"/><path class="c" d="M301.035,924.642a46.276,46.276,0,0,0-2.607,16.35,2.174,2.174,0,0,0,.141.864,2.378,2.378,0,0,0,.486.626,30.469,30.469,0,0,1,5.161,7.423,49.687,49.687,0,0,1-2.248-7.516,2.9,2.9,0,0,1,0-1.626,4.447,4.447,0,0,1,.84-1.163c1.855-2.256,1.359-5.536.413-8.264s-2.263-5.536-1.743-8.367a1.413,1.413,0,0,1-1.209,1.49Z" transform="translate(-143.967 -490.579)"/><path class="c" d="M265.877,948.23a11.1,11.1,0,0,0-.058,3.639,3.916,3.916,0,0,0,2.131,2.868,16.8,16.8,0,0,0,2-10l.2,10.413a7.862,7.862,0,0,1-.141,2.083,14.49,14.49,0,0,1-1.01,2.28,9.364,9.364,0,0,0,.044,7.9c-.932-1.771-2.17-3.765-4.214-4.036a7.95,7.95,0,0,0-2.224.173,8.621,8.621,0,0,1-5.117-.42c-1.549-.761-2.661-2.574-2.059-4.148.607-.285,1.233.294,1.811.631a3.623,3.623,0,0,0,4.02-.64,8.953,8.953,0,0,0,2.209-3.574,62.648,62.648,0,0,0,2.51-7.638Z" transform="translate(-121.767 -502.179)"/><path class="d" d="M277.581,934.386a40.367,40.367,0,0,1-.84,8.114,8.466,8.466,0,0,0-.262,3.354,2.608,2.608,0,0,0,2.34,2.168c.821-1.691.529-3.672.223-5.517l-1.66-10.025Z" transform="translate(-132.636 -495.646)"/><path class="d" d="M272.489,719.753a1.721,1.721,0,0,0-2.428.3,3.965,3.965,0,0,0-.67,2.555,5.5,5.5,0,0,0,.291,2.083,6.572,6.572,0,0,0,2.869,2.8l3.884,2.527,3.4-1.934c.384-.215.816-.542.733-.958a1.048,1.048,0,0,0-.277-.467l-3.734-4.27c-1.17-1.336-2.627-2.8-4.433-2.658Z" transform="translate(-129.03 -382.091)"/><path class="d" d="M279.583,673.506c-6.127-.224-8.074,11.679-8.632,15.883a2.766,2.766,0,0,0,0,1.112,2.961,2.961,0,0,0,1.408,1.462l6.8,4.368a1.225,1.225,0,0,0,.879.276c.34-.079.524-.416.665-.724a28.137,28.137,0,0,0,.971-20.709,2.724,2.724,0,0,0-.7-1.215A2.276,2.276,0,0,0,279.583,673.506Z" transform="translate(-129.807 -357.651)"/><path class="d" d="M281.673,539.73a2.609,2.609,0,0,1,2.282,2.336,108.74,108.74,0,0,1,2.374,41.343c-.534,3.943-1.457,8.142-4.442,10.875a2.708,2.708,0,0,1-1.359.771,3.2,3.2,0,0,1-1.913-.533l-6.5-3.419a11.439,11.439,0,0,1-3.3-2.256c-1.379-1.518-1.8-3.611-2.161-5.606a256.382,256.382,0,0,1-4.4-55.96c-.087,2.411,6.511,6.25,8.22,7.516C273.861,537.333,277.551,538.464,281.673,539.73Z" transform="translate(-125.285 -279.736)"/><path class="h" d="M242.905,483.414c-5.176,13.547-6.312,29.711-6.239,44.038s1.719,30.472,7.375,43.884a.592.592,0,0,0,.723.4.564.564,0,0,0,.413-.7c-2.991-14.608-6.346-28.571-6.7-43.585a147.419,147.419,0,0,1,1.024-20.746c.927-7.834,3.049-15.29,4.491-23.007a.54.54,0,0,0-.4-.666.566.566,0,0,0-.692.381Z" transform="translate(-112.196 -256.148)"/><path class="h" d="M329.888,536.609c.029,9.81,0,19.508-1.262,29.267-1.369,10.385-4.1,20.316-6.661,30.463a.346.346,0,0,0,.259.391.363.363,0,0,0,.43-.209,130.713,130.713,0,0,0,7.122-30.645,157.606,157.606,0,0,0,1.049-16.014c.083-4.821-.757-9.852-.456-14.617a.258.258,0,0,0-.2-.074.254.254,0,0,0-.187.1.643.643,0,0,0-.092.425Z" transform="translate(-156.08 -283.94)"/><path class="h" d="M282.163,537.772c6.035,2.957,15.366,2.569,21.032-1.032a.313.313,0,0,0-.248-.57c-3.457,1.1-6.511,2.336-10.2,2.579s-6.977-.519-10.506-1.177c-.121,0-.209.14-.087.2Z" transform="translate(-135.572 -284.463)"/><path class="h" d="M299.568,699.291c-.583,1.733-.9,3.541-1.413,5.293s-1.223,3.448-1.758,5.19a.158.158,0,0,0,.1.174.169.169,0,0,0,.2-.053,25.741,25.741,0,0,0,3.083-10.576C299.776,699.2,299.606,699.188,299.568,699.291Z" transform="translate(-142.927 -371.355)"/><path class="h" d="M296.913,721.876a21.175,21.175,0,0,0,2.428,4.2c.16.187.539,0,.442-.248a21.863,21.863,0,0,0-2.738-4.032.076.076,0,0,0-.1-.023.07.07,0,0,0-.024.1Z" transform="translate(-143.191 -383.368)"/><path class="h" d="M271.457,675.673c-3.4,9.726-8.254,20.321-2.724,30.15.116.215.486.065.408-.164-4.452-10.646-.286-19.5,2.544-29.93a.113.113,0,0,0-.085-.138.118.118,0,0,0-.143.082Z" transform="translate(-127.405 -358.761)"/><path class="h" d="M253.019,639.847c-2.466,8.353-2.491,19.513-1.112,28.071.044.285.486.182.486-.065.413-4.629.126-9.343.384-13.986s1.073-9.31.85-13.94a.308.308,0,0,0-.274-.29.316.316,0,0,0-.343.21Z" transform="translate(-119.566 -339.603)"/><path class="h" d="M253.9,711.482c-.675-3.092-1.631-5.909-1.714-9.123-.068-2.523.486-5.083.073-7.577-.034-.234-.369-.182-.432,0-1.7,4.587-1.626,12.94,2.01,16.733C253.864,711.543,253.908,711.515,253.9,711.482Z" transform="translate(-119.445 -368.905)"/><path class="h" d="M251.516,729.635c-9.05,15.921-7.006,42.38,3.588,57.249.214.3.821.126.665-.266-3.734-9.343-7.244-17.864-7.977-28.029s1.68-19.153,3.792-28.921c0-.037-.049-.065-.068-.028Z" transform="translate(-116.893 -387.553)"/><path class="h" d="M296.692,734.872c12.531,14.72,11.21,32.99,8.55,50.751a223.261,223.261,0,0,0-2.539,24.24c-.335,8.441-3.724,16.093-4.423,24.4a.175.175,0,0,0,.35,0c.316-5.293,2.36-9.918,3.535-15.01a67.614,67.614,0,0,0,1.2-11.314c.563-10.058,2.544-19.943,3.743-29.935,1.758-14.584,1.122-32.093-10.273-43.272A.1.1,0,0,0,296.692,734.872Z" transform="translate(-143.066 -390.263)"/><path class="h" d="M312.675,708.469c.544-7.886,3.821-15.416,4.962-23.236a82.991,82.991,0,0,0,.592-20.956c-.049-.416-.709-.434-.689,0a115.83,115.83,0,0,1-1.063,24.563c-1.1,6.489-4.2,13.033-4.015,19.62a.107.107,0,0,0,.214,0Z" transform="translate(-151.189 -352.564)"/><path class="h" d="M272.056,894.172c1.083-7.9-5.656-16.747-8.006-24.072a86.782,86.782,0,0,1-3.005-12.66c-.767-4.854-.34-9.941-1.457-14.7a.6.6,0,0,0-1.131,0c-1.942,7.661.719,17.752,2.952,25.165,2.7,9,7.118,17.523,10.482,26.282a.073.073,0,0,0,.146,0Z" transform="translate(-123.062 -447.616)"/><path class="h" d="M304.809,921.852c-.874,3.2.306,6.591,1.457,9.619.879,2.336,1.034,3.98-.136,6.3-.621,1.229-1.141,1.612-1.248,2.957a.42.42,0,0,0,.32.384.44.44,0,0,0,.477-.178c1.092-2.116,3.258-4.022,2.971-6.54-.175-1.579-1.122-3.083-1.69-4.545a28.721,28.721,0,0,1-1.646-7.942c-.029-.257-.417-.346-.485-.065Z" transform="translate(-147.1 -489.886)"/><path class="h" d="M305.1,954.4a15.33,15.33,0,0,0,.539,7.339c1,3.611,3.156,7.353-.534,10.324-.447.36.121.967.592.738,2.107-1.023,2.8-3.111,2.656-5.3-.116-1.869-1.01-3.611-1.578-5.377-.825-2.532-.971-5.139-1.481-7.722a.1.1,0,0,0-.194,0Z" transform="translate(-147.282 -507.291)"/><path class="h" d="M276.91,990.442c2.986,4.83,12.138,3.7,15.949.406a.377.377,0,0,0,.085-.418.4.4,0,0,0-.366-.24c-2.3.136-4.37,1.4-6.632,1.845a13.093,13.093,0,0,1-9.016-1.607Z" transform="translate(-132.902 -526.397)"/><path class="h" d="M278.518,963.288a4.729,4.729,0,0,0-.393-.836c-.214-.308-.486-.565-.719-.85a8.274,8.274,0,0,0-1.457-1.682.135.135,0,0,0-.146.007.124.124,0,0,0-.048.133,7.513,7.513,0,0,0,1.19,1.733,7.393,7.393,0,0,0,1.427,1.584c.063.051.2,0,.16-.089Z" transform="translate(-132.306 -510.258)"/><path class="h" d="M276.233,943.179c1.544-4.952,2.335-11.212.767-16.215-.087-.28-.587-.243-.553.07a47.952,47.952,0,0,1,.486,8.044c-.146,2.709-.685,5.377-.762,8.091,0,.047.068.056.083,0Z" transform="translate(-132.521 -492.606)"/><path class="h" d="M269.721,947.782c-1.248,1.943-2.214,4.022-3.53,5.937-1.457,2.135-3.282,3.933-4.938,5.909a.191.191,0,0,0,.016.261.21.21,0,0,0,.271.015,25.873,25.873,0,0,0,8.322-12.066.074.074,0,0,0-.046-.084.079.079,0,0,0-.094.028Z" transform="translate(-124.824 -503.782)"/><path class="h" d="M258.3,973.536c-.374-.5-1.311-.43-1.874-.355a2.827,2.827,0,0,0-1.942.9.185.185,0,0,0,.018.2.2.2,0,0,0,.2.071,18.264,18.264,0,0,1,1.787-.64c.568-.084,1.209.164,1.728,0a.119.119,0,0,0,.075-.069.113.113,0,0,0-.007-.1Z" transform="translate(-121.354 -517.307)"/><path class="h" d="M254.975,974.445a6.225,6.225,0,0,0,.549,4.405c.058.089.233.061.223-.061-.058-.715-.316-1.4-.393-2.121s0-1.453-.049-2.177a.166.166,0,0,0-.145-.154A.171.171,0,0,0,254.975,974.445Z" transform="translate(-121.527 -517.949)"/><path class="h" d="M257.033,983.345c1.665,1.976,6.1,2.7,8.205,1.028.2-.159-.029-.411-.233-.383a17.532,17.532,0,0,1-3.831.593,11.4,11.4,0,0,1-4.064-1.331.065.065,0,0,0-.08.015.059.059,0,0,0,0,.078Z" transform="translate(-122.668 -522.696)"/><path class="h" d="M270.558,986.753c.631.4,1.311.724,1.942,1.154s.971,1.023,1.6,1.266a.19.19,0,0,0,.238-.229c-.155-.635-.918-1.107-1.457-1.471a5.159,5.159,0,0,0-2.214-.934.137.137,0,0,0-.145.079.128.128,0,0,0,.043.155Z" transform="translate(-129.609 -524.45)"/><path class="h" d="M282.7,960.334c3.452-4.788,1.976-11.632,1.83-17.116,0-.243-.413-.318-.452-.061-.888,6,2.287,11.473-1.4,17.163Z" transform="translate(-135.871 -501.25)"/><path class="h" d="M281.69,989.07a13.129,13.129,0,0,0,.354,1.364,4.535,4.535,0,0,0,.971,1.257,4.2,4.2,0,0,0,2.6,1.233.672.672,0,0,0,.641-.467.567.567,0,0,0,0-.336.677.677,0,0,0-.641-.467,3.135,3.135,0,0,1-2.059-1.1c-.253-.257-.461-.551-.743-.79a11.222,11.222,0,0,1-.971-.794.09.09,0,0,0-.107-.013.083.083,0,0,0-.038.1Z" transform="translate(-135.361 -525.734)"/><path class="a" d="M385.407,483.349c1.136,1.682,1.942,8.063,2.16,9.128,1,4.457,1.942,8.923,2.729,13.421,1.641,9.474,1.01,22.956,1.01,22.956s-1.389,20.162-3.53,27.814-3.539,12.389-3.539,12.389l-.121,10.076-.131,4.98.757,3.4a32.078,32.078,0,0,1-.757,6.073c-.636,2.186-1.636,5.1-1.636,5.1s4.035,12.267,4.418,19.19A108.183,108.183,0,0,1,386,633.906s-1.636,8.016-3.151,11.174S380.2,651.4,380.2,651.4a59.421,59.421,0,0,1-.757,17c-1.762,9.838-3.913,14.575-3.913,14.575l-3.646,6.8-.252,10.324,1.389,3.27,5.8,7.652,1.393,1.093,2.913.364v2.2l-.486,1.943a13.349,13.349,0,0,1-3.792,1.7,10.929,10.929,0,0,1-3.913-.121l-4.035,3.4a9.633,9.633,0,0,1-4.923,1.093,27.517,27.517,0,0,1-6.8-1.579,3.308,3.308,0,0,1-2.835-3.634,13.046,13.046,0,0,1,.884-5.223l1.01-3.765.379-2.186s-2.777-3.522-2.651-5.466a8.736,8.736,0,0,1,1.01-3.644,47.443,47.443,0,0,0,1.515-4.858c.252-1.093.631-2.8.631-2.8s-2.146-8.745-2.146-9.109-.379-8.988-.379-9.474-2.02-15.668-2.02-15.668l-2.272-20.158s-.486-9.109.486-13,2.651-10.567,2.651-10.567l-2.272-10.931s-2.525-8.988-2.913-14.7-.631-11.9-.631-11.9l.379-6.68s-3.787-13.6-5.826-25.623a119.33,119.33,0,0,1-1.641-21.863V507.738c4.452.079,8.346.29,12.351-1.934,10.706-5.947,17.906-16.626,28.67-22.484a2.023,2.023,0,0,1,1.34-.35A.879.879,0,0,1,385.407,483.349Z" transform="translate(-166.66 -256.12)"/><path class="c" d="M369.24,538.9c-4.768.846-9.633,2.429-12.949,5.83-3.559,3.662-4.826,8.9-5.5,13.9-1.7,12.356-.869,24.89-.034,37.33a25.025,25.025,0,0,1-3.122-8.152,160.963,160.963,0,0,1-4.054-51.3c4.467-.3,8.846,1.065,13.206,2.032s9.128,1.495,13.172-.355Z" transform="translate(-166.927 -284.627)"/><path class="d" d="M399.86,490.893a27.988,27.988,0,0,1-5.078,14.145,18.956,18.956,0,0,1-12.987,7.685,10.456,10.456,0,0,1-7.744-2c3.452-3.737,8.54-5.606,12.565-8.726,4.19-3.27,7.127-7.848,11.351-11.071a1.767,1.767,0,0,1,1.6-.491c.544.215.4,1.261-.165,1.1Z" transform="translate(-182.879 -260.068)"/><path class="d" d="M427.944,536.987c-.568,10.782-2.962,21.774-.049,32.2,2.238-6.391,4.5-12.837,5.273-19.536a90.93,90.93,0,0,0,.422-10.221c.058-17.471-.515-34.569-5.122-51.475a26.441,26.441,0,0,1-1.486,7.8,13.617,13.617,0,0,0-1.073,3.947,10.993,10.993,0,0,0,.316,2.574C428.474,513.769,428.546,525.345,427.944,536.987Z" transform="translate(-209.561 -258.779)"/><path class="c" d="M411.424,612.629l-2-5.288c-1.359,10.567-2.709,21.391-.248,31.766.8,3.387,2.005,6.7,2.36,10.16.52,5.031-.806,10.091-2.719,14.8-.107-1.131,1.345-1.92,2.491-1.644a4.986,4.986,0,0,1,2.631,2.149A27.376,27.376,0,0,1,418.1,673.1c.369-5.494-3.335-10.642-3.151-16.145a38.307,38.307,0,0,1,.544-4.13c.733-5.106.117-10.277-.194-15.416a132.155,132.155,0,0,1,1.665-30.51c.772-4.494,1.782-9.039,1.248-13.547a167.1,167.1,0,0,1-4.059,18.34,2.264,2.264,0,0,1-.646,1.224,1.688,1.688,0,0,1-2.311-.635,4.434,4.434,0,0,1-.384-2.565Z" transform="translate(-200.25 -314.941)"/><path class="c" d="M369.5,678.16a25.541,25.541,0,0,0,2.981,14.356,6.336,6.336,0,0,1,1.146,3.373c-.17,1.971-2.4,3.5-2.127,5.466l7.7-4.615c-4.855,4.158-9.885,8.53-12.332,14.328.1-5.512-1.68-10.875-2.782-16.285a66.653,66.653,0,0,1-.864-21.1,49.569,49.569,0,0,0,1.369,9.119c.515,2.107,1.5,4.5,3.675,5.045a38.966,38.966,0,0,1,1.408-11.4q.063,2.144.141,4.288Z" transform="translate(-177.067 -357.745)"/><path class="c" d="M406.757,845.68c-.8,2.495-2.816,4.438-4.03,6.769a22.914,22.914,0,0,0-1.942,8c-1.277,10.632-2.733,21.316-6.2,31.481,3.627-7.288,7.283-14.608,9.773-22.32s3.884-15.883,2.831-23.9Z" transform="translate(-193.447 -449.395)"/><path class="d" d="M393.448,800.9a93.974,93.974,0,0,1-6.914-36.391c.078-6.283.869-12.8,4.287-18.149,1.432-2.247,3.695-4.4,6.428-4.284,2.141.094,3.942,1.574,5.3,3.181,4.117,4.9,5.574,11.487,5.258,17.8s-2.277,12.4-4.37,18.378a119.471,119.471,0,0,1-8.783,20.3Z" transform="translate(-189.299 -394.186)"/><path class="d" d="M368.942,765.241a51.941,51.941,0,0,1,3.486-14.626c.869-2.112,2.748-9.409,6.312-5.69,1.9,1.985.888,6.3.971,8.792.165,3.737.136,7.474,0,11.212-.311,7.507-1.151,14.982-2.073,22.456-.733,5.956-1.418,11.973-2.335,17.967-1.762-1.953-2.428-4.578-3.054-7.091C369.549,787.272,367.821,776.588,368.942,765.241Z" transform="translate(-180.073 -395.154)"/><path class="d" d="M382.753,830.931a124.909,124.909,0,0,1-1.651,41.432c-.2.976-1.015,2.242-1.913,1.752a1.573,1.573,0,0,1-.636-1.224,342.882,342.882,0,0,1-5.088-53.82c-.058-3.532.345-7.759,3.568-9.45a76.274,76.274,0,0,1,6.4,30.794Z" transform="translate(-182.576 -430.18)"/><path class="d" d="M373.331,979.207c-2.292-2,1.413-8.306,4.166-8.2,2.2.084,5.341,5.311,5.486,7.3a3.1,3.1,0,0,1-.107,1.177,2.633,2.633,0,0,1-2.054,1.574,6.7,6.7,0,0,1-2.719-.168,25.6,25.6,0,0,1-3.5-1.018,4.1,4.1,0,0,1-1.272-.663Z" transform="translate(-182.142 -516.175)"/><path class="c" d="M374.375,924.626a46.163,46.163,0,0,1,2.607,16.35,2.255,2.255,0,0,1-.136.864,2.51,2.51,0,0,1-.486.626,30.468,30.468,0,0,0-5.161,7.423,49.145,49.145,0,0,0,2.248-7.516,2.9,2.9,0,0,0,.024-1.626,4.584,4.584,0,0,0-.845-1.163c-1.855-2.256-1.359-5.536-.413-8.264s2.287-5.55,1.748-8.381a1.413,1.413,0,0,0,1.209,1.49Z" transform="translate(-181.413 -490.563)"/><path class="c" d="M399.879,948.24a11.1,11.1,0,0,1,.063,3.649,3.931,3.931,0,0,1-2.136,2.868,16.8,16.8,0,0,1-2-10q-.092,5.209-.2,10.413a7.647,7.647,0,0,0,.146,2.083,13.653,13.653,0,0,0,1.01,2.28,9.382,9.382,0,0,1-.049,7.9c.932-1.771,2.17-3.765,4.219-4.036a7.965,7.965,0,0,1,2.224.173,8.628,8.628,0,0,0,5.117-.42c1.554-.761,2.656-2.574,2.054-4.148-.607-.285-1.233.294-1.811.631a3.63,3.63,0,0,1-4.02-.64,8.742,8.742,0,0,1-2.209-3.574,62.639,62.639,0,0,1-2.51-7.638Z" transform="translate(-193.959 -502.19)"/><path class="d" d="M400.832,934.386a40.716,40.716,0,0,0,.84,8.115,8.465,8.465,0,0,1,.262,3.354,2.6,2.6,0,0,1-2.34,2.168c-.821-1.691-.529-3.672-.223-5.517l1.66-10.025Z" transform="translate(-195.746 -495.646)"/><path class="d" d="M397.2,719.753a1.72,1.72,0,0,1,2.428.3,4.026,4.026,0,0,1,.675,2.555,5.593,5.593,0,0,1-.291,2.084,6.558,6.558,0,0,1-2.874,2.8l-3.884,2.527-3.4-1.934c-.379-.215-.816-.542-.733-.958a1.048,1.048,0,0,1,.277-.467l3.734-4.27c1.17-1.336,2.627-2.8,4.433-2.658Z" transform="translate(-190.627 -382.091)"/><path class="d" d="M388.937,673.506c6.127-.224,8.074,11.679,8.637,15.883a2.857,2.857,0,0,1,0,1.112,2.961,2.961,0,0,1-1.408,1.462l-6.8,4.368a1.22,1.22,0,0,1-.879.276c-.34-.079-.524-.416-.665-.724a28.109,28.109,0,0,1-.971-20.709,2.637,2.637,0,0,1,.7-1.215A2.255,2.255,0,0,1,388.937,673.506Z" transform="translate(-188.683 -357.651)"/><path class="d" d="M373.185,539.724a2.609,2.609,0,0,0-2.282,2.336,108.838,108.838,0,0,0-2.355,41.338c.539,3.943,1.457,8.142,4.442,10.875a2.7,2.7,0,0,0,1.364.771,3.191,3.191,0,0,0,1.908-.533l6.5-3.42a11.44,11.44,0,0,0,3.3-2.256c1.384-1.518,1.8-3.611,2.161-5.606a256.085,256.085,0,0,0,4.4-55.96c.083,2.41-6.516,6.25-8.225,7.516C381,537.328,377.307,538.458,373.185,539.724Z" transform="translate(-179.543 -279.73)"/><path class="h" d="M430.163,482.2a1.07,1.07,0,0,0,.053.206c.816,3.317,2.2,6.6,2.6,9.964.437,3.714,1.321,7.4,1.8,11.128a178.4,178.4,0,0,1,1.233,22.89c-.049,14.37-1.719,30.472-7.38,43.884a.592.592,0,0,1-.723.4.565.565,0,0,1-.413-.7c2.991-14.608,6.35-28.571,6.7-43.585a147.418,147.418,0,0,0-1.044-20.756,167.209,167.209,0,0,0-4.622-24.166c.073-.467.806-.6,1.2-.308A1.823,1.823,0,0,1,430.163,482.2Z" transform="translate(-210.279 -255.079)"/><path class="h" d="M342.167,536.138a163.4,163.4,0,0,0,1.209,29.262c1.369,10.385,4.1,20.316,6.661,30.463a.34.34,0,0,1-.248.42.357.357,0,0,1-.437-.238c-7.283-19.564-9.225-41.137-7.962-61.767a.714.714,0,0,1,.719.467,1.986,1.986,0,0,1,.087.878Z" transform="translate(-165.892 -283.464)"/><path class="h" d="M376.875,537.772c-6.035,2.957-15.366,2.569-21.032-1.032a.314.314,0,0,1,.252-.57c3.452,1.1,6.506,2.336,10.2,2.579s6.982-.519,10.507-1.177c.121,0,.209.14.087.2Z" transform="translate(-173.436 -284.463)"/><path class="h" d="M378.4,699.291c.587,1.733.9,3.541,1.413,5.293s1.223,3.448,1.758,5.19a.158.158,0,0,1-.1.174.169.169,0,0,1-.2-.053,25.815,25.815,0,0,1-3.083-10.576C378.19,699.2,378.36,699.188,378.4,699.291Z" transform="translate(-185.009 -371.355)"/><path class="h" d="M381.586,721.887a21.41,21.41,0,0,1-2.428,4.2c-.16.187-.539,0-.437-.248a21.6,21.6,0,0,1,2.733-4.031.08.08,0,0,1,.1-.014.073.073,0,0,1,.034.089Z" transform="translate(-185.274 -383.379)"/><path class="h" d="M404.3,675.677c3.374,9.726,8.254,20.321,2.719,30.15-.117.215-.485.065-.408-.164,4.452-10.646.286-19.5-2.544-29.93C404.026,675.593,404.25,675.537,404.3,675.677Z" transform="translate(-198.32 -358.766)"/><path class="h" d="M425.694,639.833c2.466,8.353,2.491,19.513,1.112,28.071-.044.285-.486.182-.486-.065-.418-4.629-.126-9.343-.388-13.986s-1.073-9.31-.845-13.94a.3.3,0,0,1,.269-.3.31.31,0,0,1,.343.222Z" transform="translate(-209.117 -339.59)"/><path class="h" d="M424.309,711.482c.675-3.092,1.636-5.909,1.719-9.123.063-2.523-.486-5.083-.078-7.577.034-.234.369-.182.437,0,1.7,4.587,1.622,12.94-2.01,16.733a.04.04,0,0,1-.048.01A.037.037,0,0,1,424.309,711.482Z" transform="translate(-208.736 -368.905)"/><path class="h" d="M419.466,729.635c9.05,15.921,7.006,42.38-3.588,57.249-.219.3-.82.126-.665-.266,3.734-9.343,7.249-17.864,7.977-28.029s-1.675-19.153-3.792-28.921c0-.037.049-.065.068-.028Z" transform="translate(-204.044 -387.553)"/><path class="h" d="M373.011,734.872c-12.531,14.72-11.206,32.99-8.545,50.751A222.048,222.048,0,0,1,367,809.864c.335,8.441,3.724,16.093,4.423,24.4,0,.215-.335.215-.35,0-.316-5.293-2.36-9.918-3.535-15.01a68.126,68.126,0,0,1-1.2-11.314c-.563-10.058-2.539-19.943-3.743-29.935-1.758-14.584-1.122-32.093,10.273-43.272A.1.1,0,0,1,373.011,734.872Z" transform="translate(-176.607 -390.263)"/><path class="h" d="M362.329,708.469c-.544-7.886-3.821-15.416-4.962-23.236a82.99,82.99,0,0,1-.592-20.956c.049-.416.709-.434.689,0a115.832,115.832,0,0,0,1.063,24.563c1.1,6.489,4.2,13.033,4.015,19.62a.107.107,0,0,1-.214,0Z" transform="translate(-173.785 -352.564)"/><path class="h" d="M394.246,894.172c-1.083-7.9,5.661-16.747,8.006-24.072a86.159,86.159,0,0,0,3.005-12.66c.772-4.854.34-9.941,1.457-14.7a.6.6,0,0,1,1.131,0c1.942,7.661-.719,17.752-2.952,25.165-2.7,9-7.118,17.523-10.482,26.282a.073.073,0,0,1-.146,0Z" transform="translate(-193.21 -447.616)"/><path class="h" d="M372.323,921.852c.874,3.2-.3,6.591-1.457,9.619-.879,2.336-1.029,3.98.141,6.3.617,1.229,1.136,1.612,1.243,2.957a.42.42,0,0,1-.32.384.44.44,0,0,1-.477-.178c-1.092-2.116-3.258-4.022-2.971-6.54.175-1.579,1.126-3.083,1.69-4.545a28.546,28.546,0,0,0,1.646-7.942c.029-.257.418-.346.486-.065Z" transform="translate(-180.002 -489.886)"/><path class="h" d="M372.725,954.4a15.33,15.33,0,0,1-.539,7.339c-1,3.611-3.156,7.353.534,10.324.447.36-.121.967-.592.738-2.107-1.023-2.792-3.111-2.656-5.3.121-1.869,1.01-3.611,1.583-5.377a65.532,65.532,0,0,0,1.481-7.722c0-.093.17-.089.189,0Z" transform="translate(-180.516 -507.291)"/><path class="h" d="M387.624,990.442c-2.986,4.83-12.138,3.7-15.949.406a.381.381,0,0,1-.078-.416.408.408,0,0,1,.36-.243c2.3.135,4.37,1.4,6.632,1.845a13.113,13.113,0,0,0,9.021-1.607Z" transform="translate(-181.602 -526.397)"/><path class="h" d="M400.077,963.288a4.752,4.752,0,0,1,.4-.836,10.989,10.989,0,0,1,.714-.85,8.271,8.271,0,0,1,1.457-1.682.135.135,0,0,1,.146.007.124.124,0,0,1,.048.133,7.513,7.513,0,0,1-1.19,1.733,7.393,7.393,0,0,1-1.427,1.584c-.063.051-.2,0-.16-.089Z" transform="translate(-196.259 -510.258)"/><path class="h" d="M403.532,943.179c-1.544-4.952-2.335-11.212-.767-16.215.087-.28.592-.243.553.07a48.478,48.478,0,0,0-.486,8.044c.146,2.709.685,5.377.767,8.091a.044.044,0,0,1-.087,0Z" transform="translate(-197.214 -492.606)"/><path class="h" d="M402.66,947.771c1.248,1.943,2.219,4.022,3.535,5.937,1.457,2.135,3.277,3.933,4.933,5.909a.188.188,0,0,1,0,.273.206.206,0,0,1-.284,0,25.8,25.8,0,0,1-8.322-12.066.07.07,0,0,1,.039-.093A.075.075,0,0,1,402.66,947.771Z" transform="translate(-197.526 -503.771)"/><path class="h" d="M419.176,973.536c.374-.5,1.311-.43,1.874-.355a2.827,2.827,0,0,1,1.942.9.186.186,0,0,1-.018.2.2.2,0,0,1-.2.071,17.4,17.4,0,0,0-1.787-.64c-.568-.084-1.209.164-1.728,0a.112.112,0,0,1-.068-.168Z" transform="translate(-206.094 -517.307)"/><path class="h" d="M425.577,974.445a6.2,6.2,0,0,1-.549,4.405.118.118,0,0,1-.135.054.112.112,0,0,1-.084-.115c.053-.715.311-1.4.388-2.121s0-1.453.049-2.177a.166.166,0,0,1,.145-.154.171.171,0,0,1,.185.108Z" transform="translate(-208.995 -517.949)"/><path class="h" d="M415.724,983.345c-1.665,1.976-6.1,2.7-8.2,1.028-.209-.159.024-.411.228-.383a17.576,17.576,0,0,0,3.836.593,11.371,11.371,0,0,0,4.059-1.331.065.065,0,0,1,.08.015A.059.059,0,0,1,415.724,983.345Z" transform="translate(-200.059 -522.696)"/><path class="h" d="M406.952,986.753c-.631.4-1.311.724-1.918,1.154s-.971,1.023-1.6,1.266a.19.19,0,0,1-.238-.229c.16-.635.922-1.107,1.456-1.471a5.164,5.164,0,0,1,2.209-.934.137.137,0,0,1,.145.079.128.128,0,0,1-.043.155Z" transform="translate(-197.871 -524.45)"/><path class="h" d="M396.417,960.334c-3.452-4.788-1.976-11.632-1.83-17.116,0-.243.418-.318.451-.061.889,6-2.287,11.473,1.4,17.163Z" transform="translate(-193.22 -501.25)"/><path class="h" d="M395,989.086a12,12,0,0,1-.354,1.364,4.535,4.535,0,0,1-.971,1.257,4.2,4.2,0,0,1-2.6,1.233.662.662,0,0,1-.636-.467.532.532,0,0,1,0-.336.666.666,0,0,1,.636-.467,3.135,3.135,0,0,0,2.059-1.1c.257-.257.486-.551.743-.789a11.252,11.252,0,0,0,1-.78.09.09,0,0,1,.107-.013.082.082,0,0,1,.038.1Z" transform="translate(-191.298 -525.75)"/><path class="h" d="M279.187,302.753c5.491-1.663,11.327-5.9,13.526-11.179.1-.257-.282-.36-.422-.173-1.8,2.336-3.336,4.672-5.647,6.62a31.2,31.2,0,0,1-7.545,4.531.11.11,0,0,0-.038.133.117.117,0,0,0,.126.067Z" transform="translate(-134.005 -153.997)"/><path class="h" d="M313.709,260.444c-.942,3.775-2.2,7.474-3.462,11.146a.139.139,0,0,0,.086.156.149.149,0,0,0,.176-.048,39.67,39.67,0,0,0,3.4-11.212c0-.126-.175-.182-.2-.051Z" transform="translate(-150.052 -137.507)"/><path class="h" d="M306.739,288.7a17.973,17.973,0,0,0-1.185,1.434c-.024.037.039.089.073.051a17.354,17.354,0,0,0,1.122-1.476Z" transform="translate(-147.637 -152.608)"/><path class="h" d="M336.274,215.44c.073,14.3-.529,28.781.238,43.057a.2.2,0,0,0,.384,0c.971-14.225.112-28.833-.587-43.057Z" transform="translate(-163.364 -113.572)"/><path class="h" d="M329.659,347.747c-1.578.836-2.233,2.5-2.869,4.046-1.078,2.625-2.777,4.321-4.476,6.54-.126.168.117.36.282.271,4.151-2.214,4.156-7.559,7.331-10.525a.208.208,0,0,0,0-.269.229.229,0,0,0-.272-.063Z" transform="translate(-156.243 -184.06)"/><path class="h" d="M340.983,348.16c4.37,2.8,3.913,10.277,9.361,11.8.272.075.486-.332.2-.467-5.253-2.336-4.52-9.049-9.351-11.679a.21.21,0,0,0-.282.07A.194.194,0,0,0,340.983,348.16Z" transform="translate(-165.815 -184.095)"/><path class="h" d="M298.679,409.381c4.564.467,6.516,6.54,10.973,8.016a7.977,7.977,0,0,0,8.414-1.985c.282-.285-.165-.719-.452-.434a7.566,7.566,0,0,1-8.739,1.378c-2.714-1.271-3.714-3.214-5.642-5.241-1.306-1.364-2.612-2.383-4.564-1.869-.087,0-.063.131,0,.14Z" transform="translate(-144.068 -216.769)"/><path class="h" d="M344.475,415.166c2.151,1.57,5.253,2.569,7.836,1.359,1.388-.649,2.282-1.869,3.4-2.836a25.878,25.878,0,0,1,7.2-4.022c.219-.093.063-.416-.155-.364a17.94,17.94,0,0,0-7,3.592c-1.6,1.28-2.617,2.7-4.695,3.228-2.4.607-4.3-.322-6.5-1.135-.117-.042-.16.117-.078.177Z" transform="translate(-167.642 -216.869)"/><path class="h" d="M271.266,420.565c1.292-1.233,2.6-2.443,3.826-3.737a.1.1,0,0,0-.014-.122.105.105,0,0,0-.127-.013c-1.34,1.177-2.6,2.439-3.884,3.681a.129.129,0,0,0,0,.187.141.141,0,0,0,.194,0Z" transform="translate(-129.876 -220.801)"/><path class="h" d="M406.636,410.483a36.027,36.027,0,0,1,4.821,3.91,6.3,6.3,0,0,1,.971,6.6c-.107.271.335.383.447.117.719-1.752,1.015-4.447-.155-6.045a17.219,17.219,0,0,0-5.909-4.812c-.151-.079-.335.121-.194.234Z" transform="translate(-199.609 -217.366)"/><path class="h" d="M261.753,331.843c-1.626-.747-3.447-1.191-5.006-2.046-3.253-1.785-4.525-4.718-5.413-7.942-1.175-4.256-2.073-8.572-3.1-12.856-1.675-7.007-3.3-15.738-7.4-21.825a.219.219,0,0,0-.294-.072.2.2,0,0,0-.075.283c5.03,9.044,7.064,20.312,9.531,30.2.83,3.321.854,7.68,3.18,10.431,1.942,2.3,5.559,3.494,8.448,4.134.17.037.3-.206.126-.285Z" transform="translate(-114.138 -151.741)"/><path class="h" d="M363.994,271.485a58.727,58.727,0,0,0,5.977,12.982.244.244,0,0,0,.309.059.225.225,0,0,0,.1-.288,79.935,79.935,0,0,1-6.19-12.8C364.145,271.316,363.956,271.363,363.994,271.485Z" transform="translate(-177.703 -143.372)"/><path class="h" d="M381.324,304.6c3.034,2.686,7.744,5.568,12.041,5.4a.153.153,0,0,0,.154-.131.15.15,0,0,0-.116-.164c-1.942-.719-4-1.023-5.918-1.841a24.857,24.857,0,0,1-5.865-3.574c-.2-.163-.486.107-.3.29Z" transform="translate(-186.59 -160.89)"/><path class="h" d="M273.675,215.858c2.534-1.056,5.166-1.775,7.734-2.728a.074.074,0,0,0,.037-.085.077.077,0,0,0-.076-.055,35.868,35.868,0,0,0-7.768,2.775c-.063.033,0,.121.058.093Z" transform="translate(-131.187 -112.266)"/><path class="h" d="M297.5,172.285c-3.593-1.313-9.293-1.154-12.939-.065-.607.182-.534,1.159.155,1.112,2.136-.14,4.214-.645,6.35-.738s4.272.234,6.38.047a.187.187,0,0,0,.181-.156.182.182,0,0,0-.128-.2Z" transform="translate(-136.628 -90.079)"/><path class="h" d="M335.338,203.618a8.472,8.472,0,0,0-.049-2.3c0-.07-.131-.07-.146,0a8.671,8.671,0,0,0-.044,2.3.122.122,0,0,0,.238,0Z" transform="translate(-162.811 -106.02)"/><path class="h" d="M362.529,149.391c.141,1.439.3,3.7,1.772,4.522.165.089.442,0,.418-.229a6.425,6.425,0,0,0-.84-1.869,13.639,13.639,0,0,1-1.054-2.462C362.781,149.2,362.509,149.228,362.529,149.391Z" transform="translate(-176.952 -78.304)"/><path class="h" d="M375.748,119.159a21.894,21.894,0,0,1-4.37,5.718c-1.194,1-2.816,1.294-3.462,2.677-1.393,2.99,1.088,8.829,1.709,11.828.058.29.515.168.461-.121-.364-1.915-.8-3.826-1.122-5.751-.578-3.382-.733-4.994,1.879-7.442a25.668,25.668,0,0,0,5.185-6.741.165.165,0,0,0-.071-.216.179.179,0,0,0-.23.048Z" transform="translate(-179.509 -62.231)"/><path class="h" d="M364.43,157.351c1.272,3.8,7.768,4.728,11.167,5.942,7.166,2.56,13.852,5.47,18.483,11.576.578.757,1.894.061,1.34-.757-2.957-4.326-7.375-7.007-12.24-9.053-6.312-2.667-12.657-4.569-18.692-7.745a.04.04,0,0,0-.041,0A.037.037,0,0,0,364.43,157.351Z" transform="translate(-177.93 -82.596)"/><path class="h" d="M358.779,171.147c2.088-.766,4.175-1.593,6.312-2.2s4.447-.682,6.618-1.257c.277-.075.32-.533,0-.579-4.336-.626-9.662,1.336-13.046,3.863-.087.065,0,.215.107.178Z" transform="translate(-174.944 -87.754)"/><path class="a" d="M90,254.566s5.53-10.464,10.507-18.093a99.1,99.1,0,0,1,7.186-10.114s-.918-3.737,2.767-11.529,7.186-11,7.186-11l7.744-4.966s3.5-.533,3.884-1.06,5.9,2.3,8.113,5.494,1.656,11.352,1.287,14.542-11.444,22.531-11.444,22.531a31.339,31.339,0,0,1-7.186,16.845l-3.5,4.611-6.268,6.391-6.268,6.2-2.578,4.438a30.264,30.264,0,0,1-7.375,8.694c-5.161,4.256-9.769,7.624-9.769,7.624A81.882,81.882,0,0,0,69.718,306a97.618,97.618,0,0,0-10.507,11.17L54.24,325.5l-4.792,7.624s-3.685,3.9-6.632,5.139a13.064,13.064,0,0,1-4.423,1.238s-.738,6.563-1.457,8.161a17.92,17.92,0,0,1-2.767,3.737s1.088,2.49.558,3.891a6.584,6.584,0,0,1-2.025,2.485l-2.029.355c-.024-2.588-.8-5.176-.8-7.787-.3,2.009-1.631,3.737-2.913,5.316a3.251,3.251,0,0,1-1.088,1,1.476,1.476,0,0,1-1.8-.593,4.009,4.009,0,0,1-.971-2.312l.621-1.369-1.423.341a8.74,8.74,0,0,1-2.044-1.112,2.062,2.062,0,0,1-.621-.934s2.913-3.765,3.025-4.022,2.486-3.854,2.486-3.854-2.4,2.569-3.02,2.742a2.236,2.236,0,0,1-2.224-.6,3.374,3.374,0,0,1-.534-1.794l4.18-4.279s4.093-4.368,4.8-5.05a7.4,7.4,0,0,1,2.005-1.205,17.257,17.257,0,0,0,3.112-3.592,58.113,58.113,0,0,1,3.292-5.027s2.845-2.569,4.18-3.6,4.714-3.167,4.714-3.167.621-1.794,1.156-2.994a14.984,14.984,0,0,1,.971-1.869l1.33-.168.359-1.116s6.414-10.913,6.414-11.16,13.429-22.176,13.429-22.176a61.95,61.95,0,0,1,6.938-11.982,48.329,48.329,0,0,1,8.254-8.3Z" transform="translate(-0.401 -104.142)"/><path class="c" d="M215.432,203.41a17.269,17.269,0,0,0-7.283,9.273,49.825,49.825,0,0,0-2.248,11.641,18.84,18.84,0,0,0-5.6,5.494c-.1-8.124,4.224-15.785,9.832-21.858a19.236,19.236,0,0,1,2.947-2.719,12.216,12.216,0,0,1,3.326-1.682Z" transform="translate(-93.486 -107.161)"/><path class="c" d="M163.076,263.623a262.3,262.3,0,0,1-12.764,26.511c-.937,1.7-2.719,3.672-4.515,2.831-.184-1.518-.364-3.041-.549-4.559A122.39,122.39,0,0,0,138,299.78a45.892,45.892,0,0,1-4.719,7.428,12.712,12.712,0,0,1-7.511,4.545,2.626,2.626,0,0,1,2.165,2.261,5.432,5.432,0,0,1-.728,3.191c-2.428,4.784-7.36,7.792-11.759,11.025A78.039,78.039,0,0,0,90.37,359.272a77.3,77.3,0,0,1,24.868-26.856c6.763-4.489,14.488-8.166,19.149-14.669,1.782-2.485,3.034-5.283,4.714-7.825,5.19-7.839,13.42-12.781,18.576-20.685.8-1.229,1.549-2.485,2.3-3.737a36.689,36.689,0,0,0,4.5-11.174c.854-4.312-.209-8.736-1.262-13.005Z" transform="translate(-36.93 -138.019)"/><path class="c" d="M149.373,271.244a96.375,96.375,0,0,0-10.934,22.708,16.788,16.788,0,0,0,6.7-3.1,207.658,207.658,0,0,0-35.049,46.864c3.476-8.455,11.215-15.547,11.521-24.633a17.347,17.347,0,0,0-10.084,10.474q3.6-6.386,7.186-12.777a41.2,41.2,0,0,1,6.079-8.876c3.831-3.938,9.181-6.381,12.58-10.665,2.457-3.1,3.69-6.9,5.472-10.4a37.687,37.687,0,0,1,8.739-11.244Z" transform="translate(-47.075 -142.425)"/><path class="c" d="M39.056,475.494a61.324,61.324,0,0,0-4.753,5.4,1.721,1.721,0,0,0-.306.467,1.8,1.8,0,0,0-.092.635,16.29,16.29,0,0,1-1.558,6.54c-.486,1.037-1.228,1.911-1.753,2.91a6.679,6.679,0,0,0-.418,2.443,9.168,9.168,0,0,1-1.782,4.807,1.335,1.335,0,0,1-.486.411,1.577,1.577,0,0,1-.884,0,4.977,4.977,0,0,1-2.505-1.046,1.793,1.793,0,0,1-.316-2.4,14.57,14.57,0,0,1-2.277-1.2.473.473,0,0,1-.265-.3.452.452,0,0,1,.061-.386l2.18-5.031c-1.156.878-3.267,1.074-4.243-.229,1.287.537,4.4-3.27,5.112-4.2a12.582,12.582,0,0,0,2.724-5,2.07,2.07,0,0,1,.345-.934,1.746,1.746,0,0,1,.345-.3c1.015-.747,2.151-1.35,3.141-2.088a11.628,11.628,0,0,0,2.593-3.48c.4-.719.743-1.471,1.156-2.186a12.161,12.161,0,0,1,2.253-2.8c-1.16,2.023-2.729,4.77-2.384,7.189C35.148,476.083,38.1,476.424,39.056,475.494Z" transform="translate(-0.55 -247.892)"/><path class="c" d="M95.5,440.767q-5.384,5.961-11.036,11.679a4.577,4.577,0,0,1,3.758,2.083c1.335-4.134,3.811-7.829,6.253-11.464l2.005-2.976-1.7,1.21Z" transform="translate(-33.889 -233.276)"/><path class="c" d="M58.286,475.971a20.658,20.658,0,0,1-2.593,3.27,12.783,12.783,0,0,1-9.225,3.569c.888,1.032.685,2.551.359,3.849a32.833,32.833,0,0,1-1.67,4.882,4.321,4.321,0,0,1-2.428,2.714A76.731,76.731,0,0,0,43.546,502a2.6,2.6,0,0,0,2.714-1.145,3.645,3.645,0,0,0,.369-2.882,3.124,3.124,0,0,1-.2-1.593,2.548,2.548,0,0,1,.4-.733c2.355-3.457,3.034-7.689,3.656-11.777a16.617,16.617,0,0,0,8.191-3.709,31.616,31.616,0,0,0,5.918-6.694,3.191,3.191,0,0,0,.791-2.177,2.07,2.07,0,0,0-1.651-1.574,2.127,2.127,0,0,0-2.36,1.341A51.782,51.782,0,0,1,58.286,475.971Z" transform="translate(-12.42 -249.037)"/><path class="c" d="M57.325,453.291c2.874-2.714,7.205-3.27,11.215-3.625a10.483,10.483,0,0,1-2.554-.906A12.4,12.4,0,0,1,68.57,442a2.044,2.044,0,0,1-1.641.878l-1.835,3.7a4.838,4.838,0,0,1-2.18,2.425,21.051,21.051,0,0,0-5.744,4.672Z" transform="translate(-19.849 -234.294)"/><path class="d" d="M61.577,459.78a8.844,8.844,0,0,0-5.409,2.13,22.409,22.409,0,0,0-3.884,4.359,3.759,3.759,0,0,0-.733,1.4,1.3,1.3,0,0,0,.51,1.4,3.126,3.126,0,0,0,1.736,1.734,3.305,3.305,0,0,0,2.5-.005c-.1.3.2.612.529.659a1.569,1.569,0,0,0,.927-.252,9.694,9.694,0,0,0,2.743-2.172,19.2,19.2,0,0,0,1.607-2.252l3.039-4.737a.536.536,0,0,0,.181-.455.545.545,0,0,0-.269-.413,5.526,5.526,0,0,0-4.088-1.294Z" transform="translate(-16.934 -243.768)"/><path class="d" d="M53.486,487.72l-3.034,3.368c-.335.369-.689.864-.486,1.313a8.8,8.8,0,0,0,6.579-4.76,5.093,5.093,0,0,0-3.4.355,5.185,5.185,0,0,0-.039-.775Z" transform="translate(-16.112 -258.39)"/><path class="d" d="M45.642,501.951q-1.893,4.2-3.777,8.446a4.828,4.828,0,0,0-.486,1.4,4.917,4.917,0,0,0,.17,1.635q.573,2.579,1.141,5.139c.087.392.3.883.719.864a1.106,1.106,0,0,0,.8-1.084,3.491,3.491,0,0,0-.379-1.373,17.583,17.583,0,0,1-1.117-4.111,3.117,3.117,0,0,1-.029-1,3.866,3.866,0,0,1,.437-1.07A23.4,23.4,0,0,0,45.7,501.75l-.442.1Z" transform="translate(-11.719 -266.132)"/><path class="d" d="M77.4,444.484a.125.125,0,0,0-.058-.114.136.136,0,0,0-.131-.008q-.442,1.285-.893,2.555a2.349,2.349,0,0,0-.141,1.7,1.664,1.664,0,0,0,1.17.855,5.015,5.015,0,0,0,1.52.047q.563-2.8.937-5.606a5.939,5.939,0,0,0-3.18.635Z" transform="translate(-29.578 -235.301)"/><path class="d" d="M128.129,368.226a22.312,22.312,0,0,0-5.273-1.747c-1.942-.392-2.35.561-3.554,1.995a104.233,104.233,0,0,0-6.457,8.582c-4.049,5.928-7.608,12.146-11.133,18.378-.689,1.219-1.369,2.443-2,3.69-.233.467-.4,1.14.068,1.4a1,1,0,0,0,.884-.075,9.784,9.784,0,0,0,2.913-2.443c4.18-4.429,9.2-8.03,13.978-11.861s9.419-7.988,12.516-13.178a3.739,3.739,0,0,0,.66-1.789C130.736,369.81,129.387,368.833,128.129,368.226Z" transform="translate(-41.621 -194.005)"/><path class="d" d="M153.61,345.607a11.993,11.993,0,0,0,6.719,5.232l-5.71,3.27a2.843,2.843,0,0,1-1.044.42,3.177,3.177,0,0,1-1.243-.2,14.378,14.378,0,0,0-6.083-.346,20.615,20.615,0,0,1,7.1-8.5Z" transform="translate(-65.679 -182.869)"/><path class="d" d="M170.2,325.029a194.677,194.677,0,0,0,15.833-24.759,15.706,15.706,0,0,1-4.782,4.424c-3.374,2.378-6.7,4.835-9.822,7.516-1.617,1.4-3.185,2.831-4.666,4.349-1.151,1.177-3.646,3.013-2.457,4.784A10.857,10.857,0,0,0,170.2,325.029Z" transform="translate(-74.808 -158.773)"/><path class="d" d="M205.565,248.895c-1.733-1.813-5.5-1.714-7.6-.766-5,2.242-8.288,7.232-11.249,11.492a111.27,111.27,0,0,0-7.535,12.095c-1.044,2.018-2.005,4.2-1.879,6.433a2.284,2.284,0,0,0,.6,1.6c.816.738,2.131.341,3.156-.1l3.782-1.63a7.062,7.062,0,0,1,1.777-.589c2.335-.341,4.433,1.738,4.957,3.961.078.318.17.691.486.813a.9.9,0,0,0,.544,0,5.52,5.52,0,0,0,2.942-2.7,74.384,74.384,0,0,0,3.8-7.166c2.913-6.022,5.855-12.146,7-18.686C206.628,251.992,206.725,250.114,205.565,248.895Z" transform="translate(-81.647 -130.634)"/><path class="d" d="M238,207.342a23.1,23.1,0,0,0-4.258-4.531,6.791,6.791,0,0,0-4.637-1.9,7.72,7.72,0,0,0-2.258.663c-2.462,1.009-5.006,2.135-6.652,4.167a15.068,15.068,0,0,0-2.219,4.377c-1.4,3.761-2.7,7.619-2.865,11.6a11.476,11.476,0,0,1,13.221-.2,24.051,24.051,0,0,0,6.715-6.012,13.2,13.2,0,0,0,2.69-8.32Z" transform="translate(-101.107 -105.824)"/><path class="h" d="M200.347,224.645c1.592-6.008,2.821-11.4,6.559-16.645,4.476-6.26,8.739-9.525,16.469-11.557a.916.916,0,0,0-.486-1.766c-7.054,1.869-11.507,4.555-15.7,10.315-4.112,5.653-7.948,12.478-7.122,19.62a.147.147,0,0,0,.131.144.15.15,0,0,0,.165-.107Z" transform="translate(-93.311 -102.489)"/><path class="h" d="M183.178,250.247c-5.423,3.943-9.71,10.838-13.25,16.308a115.7,115.7,0,0,0-10.584,20.087c-.228.584.772,1,1.054.43a191.581,191.581,0,0,1,10.361-19.008c3.884-5.989,9.225-11.478,12.536-17.7.039-.065-.044-.168-.117-.112Z" transform="translate(-72.399 -132.112)"/><path class="h" d="M120.508,343.781c3.224-5.185,5.506-10.6,9.681-15.224,3.4-3.737,7.627-6.218,11.5-9.4a.422.422,0,0,0,.068-.522.459.459,0,0,0-.5-.2c-10.293,3.737-18.226,15.449-21.469,25.049a.384.384,0,0,0,.235.44.412.412,0,0,0,.493-.141Z" transform="translate(-52.056 -168.444)"/><path class="h" d="M77.3,444.906c.092-.192.184-.388.282-.579,0-.037-.034-.065-.053-.033l-.316.561C77.178,444.91,77.27,444.962,77.3,444.906Z" transform="translate(-30.156 -235.509)"/><path class="h" d="M80.853,402.025c6.482-11.361,13.73-22.227,20.542-33.392a.613.613,0,0,0-.231-.857.665.665,0,0,0-.891.222c-7.443,10.745-13.687,22.348-19.789,33.817-.121.234.238.439.369.21Z" transform="translate(-31.831 -194.698)"/><path class="h" d="M91.941,415.571c6.506-11.772,15.483-19.784,26.533-27.641,7.744-5.512,17.716-10.987,21.1-20.19.175-.467-.573-.645-.757-.2-4.773,11.366-18.367,17.551-27.849,24.922-7.87,6.124-15.614,13.739-19.338,22.984C91.567,415.618,91.854,415.73,91.941,415.571Z" transform="translate(-37.574 -194.481)"/><path class="h" d="M214.259,264.192c1.719,10.684-1.054,20.312-7.54,29.061-5.035,6.788-13.522,11.637-17.119,19.256-.3.635.675,1.191.971.551,2.457-5.139,7.176-8.549,11.007-12.692a65.958,65.958,0,0,0,8.579-11.156c4.4-7.474,6.86-16.635,4.472-25.109-.068-.229-.4-.126-.364.1Z" transform="translate(-87.953 -139.433)"/><path class="h" d="M112.254,375.634c7.317-9.091,13.531-19.247,20.129-28.842.092-.135-.131-.257-.223-.126-6.724,9.507-14.133,18.873-20.1,28.832-.063.107.1.243.189.135Z" transform="translate(-48.084 -183.466)"/><path class="h" d="M159.163,330.232a50.785,50.785,0,0,0,9.778-10.277c.073-.107-.1-.229-.189-.14-3.34,3.293-6.6,6.816-9.773,10.277a.123.123,0,0,0,.009.169.135.135,0,0,0,.176.008Z" transform="translate(-72.213 -169.171)"/><path class="h" d="M164.432,362.805a6.587,6.587,0,0,0,3.792-.561c1.039-.467,2.656-1.252,2.981-2.392a.246.246,0,0,0-.065-.246.269.269,0,0,0-.255-.066c-1.02.364-1.738,1.327-2.714,1.831a17.473,17.473,0,0,1-3.738,1.3C164.364,362.67,164.354,362.8,164.432,362.805Z" transform="translate(-75.006 -190.351)"/><path class="h" d="M179.267,338.409c1.665-3.036,3.4-6.045,5.292-8.955s4.336-5.536,6-8.526a.455.455,0,0,0-.105-.632.5.5,0,0,0-.662.062c-4.943,4.527-8.516,11.679-11.39,17.565-.272.556.558,1.042.864.467Z" transform="translate(-82.194 -169.392)"/><path class="h" d="M252.987,202.178a10.887,10.887,0,0,0-3.093-3.1c-1.068-.733-2.729-1.869-4.1-1.738a.376.376,0,0,0-.353.269.358.358,0,0,0,.164.4,4.3,4.3,0,0,0,1.51.565,9.282,9.282,0,0,1,2.2,1.046,14.1,14.1,0,0,1,3.214,2.887c.219.257.655-.079.486-.35Z" transform="translate(-116.704 -103.921)"/><path class="h" d="M75.283,442.207a5.243,5.243,0,0,0-1.9,2.509,5.948,5.948,0,0,0-.971,3.022.24.24,0,0,0,.182.223.252.252,0,0,0,.275-.1,20.983,20.983,0,0,0,1.248-2.934,11.59,11.59,0,0,0,1.389-2.551.146.146,0,0,0-.056-.158.16.16,0,0,0-.173-.01Z" transform="translate(-27.683 -234.393)"/><path class="h" d="M77.615,441.833c.791-.276,2.044-1.042,1.908-2a.176.176,0,0,0-.1-.107.186.186,0,0,0-.153.009,4.3,4.3,0,0,0-.7.794,2.818,2.818,0,0,1-1.107.747c-.354.135-.209.687.16.556Z" transform="translate(-30.181 -233.076)"/><path class="h" d="M40.131,469.249c2.957-1.607,4.277-4.625,6.006-7.292,2.607-4,6.724-6.2,10.492-9.049.092-.07-.029-.215-.126-.154-3.335,2.069-7.142,4.312-9.589,7.39s-3.69,6.493-6.875,8.988c-.073.056,0,.159.092.117Z" transform="translate(-11.02 -240.016)"/><path class="h" d="M18.94,508.974a1.806,1.806,0,0,0-.257,1.556,1.777,1.777,0,0,0,1.058.934,4.358,4.358,0,0,0,1.816.229c.422-.028,1.136-.051,1.423-.388a.132.132,0,0,0,.03-.143.14.14,0,0,0-.122-.086,5.531,5.531,0,0,0-1.083.2,4.7,4.7,0,0,1-1.457-.037,1.684,1.684,0,0,1-1.244-.8,1.562,1.562,0,0,1-.091-1.436c0-.047-.063-.079-.083-.033Z" transform="translate(0 -269.969)"/><path class="h" d="M19.334,497.05c1.6-1.018,2.758-2.948,3.962-4.335a39.925,39.925,0,0,1,6.739-6.176.1.1,0,0,0,.026-.127.1.1,0,0,0-.128-.041c-4.583,1.953-7.53,7.007-10.73,10.516-.073.084.024.229.131.164Z" transform="translate(-0.302 -257.933)"/><path class="h" d="M39.994,488.61c-.544.378-1.058.794-1.573,1.205a20.854,20.854,0,0,0-1.714,1.373c-.117.117.039.332.184.234a17.824,17.824,0,0,0,1.554-1.243c.568-.467,1.141-.934,1.68-1.4a.1.1,0,0,0-.131-.159Z" transform="translate(-9.3 -259.125)"/><path class="h" d="M27.39,495.322a37.361,37.361,0,0,1-7.909,13.6c-.18.206.117.5.316.3a32.883,32.883,0,0,0,7.9-13.814.154.154,0,0,0-.114-.172.162.162,0,0,0-.192.088Z" transform="translate(-0.43 -262.657)"/><path class="h" d="M19.7,525.414a3.373,3.373,0,0,0,1.816,1.64,2.752,2.752,0,0,0,2.18.112.133.133,0,0,0,.064-.153.14.14,0,0,0-.137-.1,6.821,6.821,0,0,1-1.966-.187,3.578,3.578,0,0,1-1.753-1.4.12.12,0,0,0-.16-.042.111.111,0,0,0-.044.154Z" transform="translate(-0.565 -278.663)"/><path class="h" d="M30.649,516.17a9.913,9.913,0,0,0-1.884,3.158c-.515,1.051-1.068,2.242-1.51,3.4-.092.248.306.341.4.107.549-1.252,1.078-2.509,1.685-3.737a11.023,11.023,0,0,0,1.335-2.9Z" transform="translate(-4.451 -273.816)"/><path class="h" d="M26.7,530.857c-.607.42-.1,1.285.194,1.78.393.659,1.33,1.957,2.253,1.869a.141.141,0,0,0,.126-.084.132.132,0,0,0-.028-.145c-.267-.248-.641-.364-.932-.6a4.76,4.76,0,0,1-.942-1.042c-.165-.243-.927-1.4-.621-1.733,0-.033,0-.084-.049-.061Z" transform="translate(-4.024 -281.631)"/><path class="h" d="M31.992,528.887c2.777-1.649,5.268-5.185,4.515-8.46-.039-.149-.252-.1-.267.037a11.066,11.066,0,0,1-1.16,4.812,13,13,0,0,1-3.229,3.434C31.749,528.793,31.88,528.952,31.992,528.887Z" transform="translate(-6.804 -276.035)"/><path class="h" d="M40.305,510.763a18.514,18.514,0,0,0,4.627-9.88c0-.177-.262-.2-.316-.042-.568,1.724-.971,3.457-1.709,5.139a33.4,33.4,0,0,1-2.743,4.672c-.058.079.073.182.141.107Z" transform="translate(-11.092 -265.592)"/><path class="h" d="M33.467,505.4c2.714-2.7,4.2-6.97,4.729-10.618.039-.243-.345-.36-.4-.1-.777,4.013-2.505,7.077-4.438,10.637A.069.069,0,0,0,33.467,505.4Z" transform="translate(-7.594 -262.285)"/><path class="h" d="M41.377,487.511a17.6,17.6,0,0,0,5.613-7.236c.039-.107-.126-.164-.184-.075-.8,1.21-1.457,2.485-2.321,3.648a36.647,36.647,0,0,1-3.243,3.536C41.158,487.469,41.28,487.581,41.377,487.511Z" transform="translate(-11.639 -254.625)"/><path class="h" d="M52.158,486.357c-.772,1.028-1.457,2.1-2.326,3.06-.694.789-1.6,1.439-2.224,2.27-.068.089.053.182.141.135a9.756,9.756,0,0,0,2.7-2.583,12.156,12.156,0,0,0,1.806-2.84A.055.055,0,0,0,52.158,486.357Z" transform="translate(-14.92 -257.919)"/><path class="h" d="M49,497.373a15.588,15.588,0,0,1,.32,2.256.078.078,0,0,0,.151,0,4.88,4.88,0,0,0-.34-2.289.068.068,0,0,0-.081-.041.065.065,0,0,0-.05.074Z" transform="translate(-15.644 -263.759)"/><path class="h" d="M41,525.646c.029,2.527.486,5.022.767,7.535.039.36.631.36.587,0-.306-2.532-.762-5.05-1.291-7.544a.035.035,0,0,0-.063,0Z" transform="translate(-11.529 -278.849)"/><path class="h" d="M43.454,533.2c3.6.276,5.943-5.536,2.714-7.4a.228.228,0,0,0-.316.3c.636,1.373,1.457,2.49.835,4.078s-1.855,2.046-3.287,2.616a.206.206,0,0,0-.149.223A.211.211,0,0,0,43.454,533.2Z" transform="translate(-12.687 -278.928)"/><path class="h" d="M49.886,512.957C52.62,510.2,54.843,503.89,54,500.129a.255.255,0,0,0-.486,0c-.709,2.093-.685,4.368-1.355,6.5s-1.942,4.013-2.69,6.073a.235.235,0,0,0,.117.258.255.255,0,0,0,.291-.029Z" transform="translate(-15.886 -265.174)"/><path class="h" d="M58.758,485.094c3.8.3,6.8-2.485,9.395-4.77s5.88-5.246,6.312-8.876a.311.311,0,0,0-.237-.289.326.326,0,0,0-.356.135c-2.709,5.5-8.254,12.683-15.1,13.417a.2.2,0,0,0,0,.4Z" transform="translate(-20.582 -249.826)"/><path class="h" d="M84.949,466.824a14.213,14.213,0,0,1,1.457.813,4.647,4.647,0,0,1,1.214,1.285c.33.467,1.088.042.777-.439a4.19,4.19,0,0,0-3.331-1.962.169.169,0,0,0-.16.122.161.161,0,0,0,.077.182Z" transform="translate(-34.115 -247.36)"/><path class="a" d="M458.921,254.577s-5.53-10.455-10.507-18.093a96.867,96.867,0,0,0-7.19-10.114s.923-3.737-2.763-11.529-7.19-11-7.19-11l-7.715-4.956s-3.5-.533-3.884-1.06-5.9,2.3-8.113,5.494-1.656,11.352-1.291,14.542,11.419,22.521,11.419,22.521a31.371,31.371,0,0,0,7.19,16.845l3.5,4.611,6.268,6.386,6.273,6.208,2.583,4.438a30.185,30.185,0,0,0,7.36,8.694c5.161,4.256,9.769,7.624,9.769,7.624A81.807,81.807,0,0,1,479.2,306.01a97.211,97.211,0,0,1,10.5,11.17l4.981,8.339,4.787,7.624s3.69,3.9,6.637,5.139a13.064,13.064,0,0,0,4.423,1.238s.738,6.563,1.457,8.161a17.92,17.92,0,0,0,2.767,3.737s-1.112,2.485-.558,3.9a6.587,6.587,0,0,0,2.029,2.485l2.025.355c0-2.588.806-5.162.806-7.787.3,2.009,1.631,3.737,2.913,5.316a3.2,3.2,0,0,0,1.088,1,1.476,1.476,0,0,0,1.8-.593,4.024,4.024,0,0,0,.971-2.312l-.622-1.369,1.423.341a8.647,8.647,0,0,0,2.044-1.112,2.054,2.054,0,0,0,.626-.934s-2.937-3.765-3.025-4.022-2.491-3.854-2.491-3.854,2.428,2.569,3.025,2.742a2.241,2.241,0,0,0,2.224-.6,3.373,3.373,0,0,0,.534-1.794l-4.18-4.279s-4.093-4.368-4.8-5.05a7.4,7.4,0,0,0-2.049-1.2,17.256,17.256,0,0,1-3.112-3.592C514.7,327.6,512.158,324,512.158,324s-2.845-2.569-4.18-3.6-4.714-3.167-4.714-3.167-.621-1.794-1.156-2.994a14.984,14.984,0,0,0-.971-1.869l-1.33-.168-.359-1.116s-6.414-10.913-6.414-11.16S479.6,277.757,479.6,277.757a63.439,63.439,0,0,0-6.938-11.982,48.253,48.253,0,0,0-8.254-8.3Z" transform="translate(-201.337 -104.153)"/><path class="c" d="M443.176,203.41a17.224,17.224,0,0,1,7.283,9.273,50.079,50.079,0,0,1,2.253,11.641,18.9,18.9,0,0,1,5.6,5.494c.1-8.124-4.224-15.785-9.832-21.858a19.5,19.5,0,0,0-2.952-2.719,12.116,12.116,0,0,0-3.321-1.682Z" transform="translate(-217.947 -107.161)"/><path class="c" d="M433.771,263.628a260.22,260.22,0,0,0,12.764,26.511c.937,1.7,2.719,3.672,4.515,2.831.185-1.518.364-3.041.549-4.559a123.4,123.4,0,0,1,7.249,11.375,45.9,45.9,0,0,0,4.719,7.428,12.7,12.7,0,0,0,7.511,4.545,2.621,2.621,0,0,0-2.165,2.261,5.432,5.432,0,0,0,.723,3.191C472.063,321.994,477,325,481.4,328.235a77.982,77.982,0,0,1,25.072,31.042A77.305,77.305,0,0,0,481.6,332.421c-6.763-4.489-14.483-8.166-19.149-14.668-1.777-2.485-3.03-5.283-4.714-7.825-5.185-7.839-13.415-12.781-18.561-20.685-.8-1.229-1.549-2.485-2.3-3.737a36.811,36.811,0,0,1-4.491-11.17c-.85-4.312.209-8.736,1.267-13.005Z" transform="translate(-212.737 -138.024)"/><path class="c" d="M482.3,271.244a96.164,96.164,0,0,1,10.929,22.708,16.788,16.788,0,0,1-6.7-3.1,207.489,207.489,0,0,1,35.044,46.865c-3.476-8.455-11.211-15.547-11.516-24.633a17.347,17.347,0,0,1,10.084,10.474q-3.6-6.386-7.19-12.777a41.025,41.025,0,0,0-6.079-8.876c-3.826-3.938-9.176-6.381-12.575-10.665-2.457-3.1-3.695-6.9-5.472-10.4a37.767,37.767,0,0,0-8.739-11.244Z" transform="translate(-237.436 -142.425)"/><path class="c" d="M616.07,475.483a61.261,61.261,0,0,1,4.748,5.4,1.738,1.738,0,0,1,.311.467,1.8,1.8,0,0,1,.082.626,16.263,16.263,0,0,0,1.554,6.54c.486,1.037,1.233,1.911,1.753,2.91a6.684,6.684,0,0,1,.422,2.443,9.126,9.126,0,0,0,1.782,4.807,1.321,1.321,0,0,0,.486.411,1.591,1.591,0,0,0,.888,0,5,5,0,0,0,2.505-1.046,1.792,1.792,0,0,0,.311-2.4,14.614,14.614,0,0,0,2.282-1.2.608.608,0,0,0,.272-.276.6.6,0,0,0-.068-.406q-1.092-2.513-2.18-5.031c1.151.878,3.263,1.074,4.243-.229-1.287.537-4.4-3.27-5.117-4.2a12.571,12.571,0,0,1-2.719-5,1.466,1.466,0,0,0-.689-1.233c-1.015-.747-2.151-1.35-3.141-2.088a11.645,11.645,0,0,1-2.6-3.48c-.4-.719-.738-1.472-1.155-2.186a12.164,12.164,0,0,0-2.253-2.8c1.165,2.023,2.733,4.77,2.389,7.189C619.978,476.072,617.007,476.413,616.07,475.483Z" transform="translate(-307.396 -247.882)"/><path class="c" d="M567.451,440.773q5.375,5.961,11.031,11.679a4.586,4.586,0,0,0-3.758,2.088c-1.33-4.134-3.807-7.829-6.249-11.464L566.47,440.1l1.7,1.21Z" transform="translate(-281.877 -233.282)"/><path class="c" d="M593.373,475.966a20.9,20.9,0,0,0,2.588,3.27,12.8,12.8,0,0,0,9.225,3.569c-.889,1.032-.689,2.551-.359,3.849a31.769,31.769,0,0,0,1.67,4.882,4.359,4.359,0,0,0,2.4,2.714c-.141,2.593-.413,5.181-.811,7.745a2.592,2.592,0,0,1-2.646-1.149,3.614,3.614,0,0,1-.374-2.882,3.154,3.154,0,0,0,.209-1.593,2.683,2.683,0,0,0-.408-.733c-2.355-3.457-3.035-7.689-3.656-11.777a16.633,16.633,0,0,1-8.2-3.709,31.741,31.741,0,0,1-5.938-6.694,3.2,3.2,0,0,1-.8-2.177,2.076,2.076,0,0,1,1.67-1.574,2.119,2.119,0,0,1,2.355,1.341,51.823,51.823,0,0,0,3.068,4.919Z" transform="translate(-292.059 -249.032)"/><path class="c" d="M606.259,453.291c-2.874-2.714-7.2-3.27-11.215-3.625a10.484,10.484,0,0,0,2.554-.906A12.368,12.368,0,0,0,595,442a2.049,2.049,0,0,0,1.646.878c.607,1.238,1.223,2.471,1.835,3.7a4.543,4.543,0,0,0,2.2,2.425,21.071,21.071,0,0,1,5.748,4.672Z" transform="translate(-296.555 -234.294)"/><path class="d" d="M599.424,459.78a8.859,8.859,0,0,1,5.413,2.13,22.2,22.2,0,0,1,3.855,4.358,3.686,3.686,0,0,1,.738,1.4,1.3,1.3,0,0,1-.485,1.4,3.131,3.131,0,0,1-1.739,1.734,3.31,3.31,0,0,1-2.5-.006c.1.3-.2.612-.524.659a1.594,1.594,0,0,1-.932-.252,9.741,9.741,0,0,1-2.738-2.172,18.117,18.117,0,0,1-1.607-2.252l-3.078-4.765a.71.71,0,0,1-.165-.523.683.683,0,0,1,.252-.346,5.52,5.52,0,0,1,4.117-1.257Z" transform="translate(-296.892 -243.768)"/><path class="d" d="M615.154,487.72l3.03,3.368c.34.369.694.864.485,1.313a8.8,8.8,0,0,1-6.579-4.76,5.078,5.078,0,0,1,3.369.355l.044-.775Z" transform="translate(-305.348 -258.39)"/><path class="d" d="M625.4,501.935q1.884,4.2,3.777,8.446a3.683,3.683,0,0,1,.291,3.022q-.573,2.579-1.146,5.139c-.083.393-.3.883-.714.864a1.1,1.1,0,0,1-.8-1.084,3.568,3.568,0,0,1,.374-1.373,17.355,17.355,0,0,0,1.122-4.111,3.259,3.259,0,0,0,0-1,3.854,3.854,0,0,0-.432-1.07,23.487,23.487,0,0,1-2.583-9.053l.442.1Z" transform="translate(-312.139 -266.116)"/><path class="d" d="M594.323,444.484a.124.124,0,0,1,.058-.114.135.135,0,0,1,.131-.008q.452,1.285.893,2.555a2.327,2.327,0,0,1,.146,1.7,1.664,1.664,0,0,1-1.17.855,5.042,5.042,0,0,1-1.52.047q-.558-2.8-.942-5.606a5.938,5.938,0,0,1,3.18.635Z" transform="translate(-294.971 -235.301)"/><path class="d" d="M514.452,368.226a22.342,22.342,0,0,1,5.268-1.747c1.942-.392,2.355.561,3.559,1.995a105.309,105.309,0,0,1,6.472,8.582c4.049,5.928,7.6,12.146,11.128,18.378.689,1.219,1.374,2.443,2,3.69.233.467.4,1.14-.068,1.4a1,1,0,0,1-.884-.075,9.724,9.724,0,0,1-2.913-2.443c-4.18-4.429-9.2-8.03-13.978-11.861s-9.424-7.988-12.516-13.178a3.689,3.689,0,0,1-.66-1.789C511.84,369.81,513.19,368.833,514.452,368.226Z" transform="translate(-253.781 -194.005)"/><path class="d" d="M507.15,345.607a11.993,11.993,0,0,1-6.72,5.232l5.71,3.27a2.855,2.855,0,0,0,1.039.42,3.168,3.168,0,0,0,1.243-.2,14.4,14.4,0,0,1,6.088-.346,20.625,20.625,0,0,0-7.1-8.5Z" transform="translate(-247.9 -182.869)"/><path class="d" d="M482.117,325.029A195.245,195.245,0,0,1,466.28,300.27a15.762,15.762,0,0,0,4.782,4.424c3.4,2.378,6.7,4.835,9.827,7.516,1.617,1.4,3.18,2.831,4.666,4.349,1.151,1.177,3.646,3.013,2.457,4.784A10.874,10.874,0,0,1,482.117,325.029Z" transform="translate(-230.331 -158.773)"/><path class="d" d="M439.14,248.895c1.733-1.813,5.5-1.714,7.6-.766,5,2.242,8.288,7.232,11.249,11.492a110.48,110.48,0,0,1,7.53,12.095c1.049,2.018,2.01,4.2,1.879,6.433a2.283,2.283,0,0,1-.6,1.6c-.816.738-2.131.341-3.156-.1l-3.782-1.63a7.091,7.091,0,0,0-1.772-.589c-2.34-.341-4.442,1.738-4.962,3.961-.078.318-.17.691-.486.813a.9.9,0,0,1-.544,0,5.563,5.563,0,0,1-2.947-2.7,74.27,74.27,0,0,1-3.777-7.18c-2.913-6.022-5.86-12.146-7.006-18.686C438.1,251.992,437.975,250.114,439.14,248.895Z" transform="translate(-215.877 -130.634)"/><path class="d" d="M413.43,207.342a23.074,23.074,0,0,1,4.253-4.531,6.793,6.793,0,0,1,4.641-1.9,7.719,7.719,0,0,1,2.258.663c2.462,1.009,5.006,2.135,6.651,4.167a15.19,15.19,0,0,1,2.219,4.377c1.4,3.761,2.7,7.619,2.865,11.6a11.486,11.486,0,0,0-13.225-.2,24.051,24.051,0,0,1-6.715-6.012,13.162,13.162,0,0,1-2.67-8.32Z" transform="translate(-203.14 -105.824)"/><path class="h" d="M449.8,224.645c-1.592-6.008-2.821-11.4-6.564-16.645-4.476-6.26-8.739-9.525-16.464-11.557a.916.916,0,0,1,.486-1.766c7.055,1.869,11.5,4.555,15.692,10.315,4.117,5.653,7.953,12.478,7.127,19.62a.147.147,0,0,1-.131.144.15.15,0,0,1-.165-.107Z" transform="translate(-209.659 -102.489)"/><path class="h" d="M467.076,250.247c5.423,3.943,9.71,10.838,13.25,16.308a116.037,116.037,0,0,1,10.584,20.087c.228.584-.772,1-1.054.43a189.636,189.636,0,0,0-10.366-19.008c-3.855-5.989-9.225-11.478-12.531-17.7-.039-.065.044-.168.117-.112Z" transform="translate(-230.675 -132.112)"/><path class="h" d="M531.811,343.784c-3.219-5.185-5.5-10.6-9.676-15.224-3.4-3.737-7.627-6.218-11.5-9.4a.426.426,0,0,1-.057-.519.464.464,0,0,1,.5-.2c10.293,3.737,18.221,15.449,21.469,25.049a.384.384,0,0,1-.234.451.411.411,0,0,1-.5-.152Z" transform="translate(-253.088 -168.447)"/><path class="h" d="M597.982,444.906c-.092-.192-.185-.388-.282-.579,0-.037.034-.065.053-.033l.316.561C598.1,444.91,598.011,444.962,597.982,444.906Z" transform="translate(-297.945 -235.509)"/><path class="h" d="M572.547,402.025c-6.482-11.361-13.73-22.227-20.542-33.392a.613.613,0,0,1,.231-.857.665.665,0,0,1,.891.222c7.443,10.745,13.687,22.348,19.785,33.817A.211.211,0,0,1,572.547,402.025Z" transform="translate(-274.389 -194.698)"/><path class="h" d="M532.892,415.571c-6.511-11.772-15.488-19.784-26.533-27.641-7.768-5.512-17.716-10.987-21.105-20.19-.17-.467.578-.645.762-.2,4.8,11.366,18.367,17.551,27.849,24.922,7.87,6.124,15.614,13.739,19.333,22.984C533.266,415.618,532.98,415.73,532.892,415.571Z" transform="translate(-240.08 -194.481)"/><path class="h" d="M433.856,264.192c-1.724,10.684,1.049,20.312,7.54,29.061,5.035,6.788,13.522,11.637,17.119,19.256.3.635-.675,1.191-.971.551-2.457-5.139-7.176-8.549-11.007-12.692a65.706,65.706,0,0,1-8.574-11.156c-4.4-7.474-6.86-16.635-4.472-25.109.068-.229.4-.126.364.1Z" transform="translate(-212.982 -139.433)"/><path class="h" d="M541.851,375.634c-7.317-9.091-13.536-19.247-20.134-28.842-.092-.135.136-.257.228-.126,6.719,9.507,14.128,18.873,20.091,28.832.068.107-.1.243-.184.135Z" transform="translate(-258.841 -183.466)"/><path class="h" d="M505.9,330.232a50.754,50.754,0,0,1-9.773-10.277c-.078-.107.1-.229.189-.14,3.335,3.293,6.6,6.816,9.768,10.277a.123.123,0,0,1-.009.169.135.135,0,0,1-.176.008Z" transform="translate(-245.678 -169.171)"/><path class="h" d="M504,362.806a6.613,6.613,0,0,1-3.8-.561c-1.039-.467-2.651-1.252-2.981-2.392a.25.25,0,0,1,.07-.246.274.274,0,0,1,.256-.067c1.015.364,1.738,1.327,2.714,1.831a17.377,17.377,0,0,0,3.738,1.3C504.067,362.671,504.076,362.8,504,362.806Z" transform="translate(-246.245 -190.351)"/><path class="h" d="M483.4,338.428c-1.665-3.036-3.4-6.045-5.3-8.955s-4.336-5.536-6-8.525a.456.456,0,0,1,.115-.614.5.5,0,0,1,.647.044c4.943,4.527,8.516,11.679,11.4,17.565.272.556-.563,1.042-.864.467Z" transform="translate(-233.29 -169.412)"/><path class="h" d="M414.589,202.178a11.011,11.011,0,0,1,3.093-3.1c1.073-.733,2.733-1.869,4.107-1.738a.376.376,0,0,1,.353.269.358.358,0,0,1-.164.4,4.338,4.338,0,0,1-1.5.584,9.106,9.106,0,0,0-2.2,1.046,14.1,14.1,0,0,0-3.214,2.887c-.214.257-.655-.079-.486-.35Z" transform="translate(-203.712 -103.921)"/><path class="h" d="M597.1,442.207a5.243,5.243,0,0,1,1.9,2.509,5.948,5.948,0,0,1,.971,3.022.24.24,0,0,1-.182.223.252.252,0,0,1-.275-.1,20.381,20.381,0,0,1-1.243-2.934,11.588,11.588,0,0,1-1.389-2.551.146.146,0,0,1,.055-.158.161.161,0,0,1,.173-.01Z" transform="translate(-297.522 -234.393)"/><path class="h" d="M595.637,441.831c-.791-.276-2.044-1.042-1.908-2a.171.171,0,0,1,.1-.11.181.181,0,0,1,.154.012,4.111,4.111,0,0,1,.7.794,2.872,2.872,0,0,0,1.112.747C596.147,441.41,596.006,441.961,595.637,441.831Z" transform="translate(-295.896 -233.074)"/><path class="h" d="M617.891,469.249c-2.952-1.607-4.272-4.625-6.006-7.292-2.6-4-6.724-6.2-10.487-9.049-.1-.07,0-.215.126-.154,3.336,2.069,7.142,4.312,9.589,7.39s3.685,6.493,6.875,8.988c.073.056,0,.159-.1.117Z" transform="translate(-299.827 -240.016)"/><path class="h" d="M652.043,508.974a1.806,1.806,0,0,1,.257,1.556,1.773,1.773,0,0,1-1.063.934,4.348,4.348,0,0,1-1.816.229c-.422-.028-1.131-.051-1.423-.388a.131.131,0,0,1-.028-.145.14.14,0,0,1,.125-.084,5.524,5.524,0,0,1,1.083.2,4.7,4.7,0,0,0,1.457-.037,1.679,1.679,0,0,0,1.243-.8,1.558,1.558,0,0,0,.087-1.436c0-.047.068-.079.087-.033Z" transform="translate(-323.803 -269.969)"/><path class="h" d="M644.8,497.05c-1.6-1.018-2.758-2.948-3.967-4.335a39.708,39.708,0,0,0-6.734-6.176.1.1,0,0,1-.026-.127.1.1,0,0,1,.128-.041c4.583,1.953,7.525,7.007,10.725,10.516a.1.1,0,0,1-.126.164Z" transform="translate(-316.65 -257.933)"/><path class="h" d="M631.991,488.61c.539.378,1.054.794,1.573,1.205a20.848,20.848,0,0,1,1.714,1.373c.112.117-.039.332-.189.234a19.4,19.4,0,0,1-1.554-1.243c-.563-.467-1.141-.934-1.675-1.4a.1.1,0,0,1,.131-.159Z" transform="translate(-315.504 -259.125)"/><path class="h" d="M639.514,495.3a37.421,37.421,0,0,0,7.9,13.6c.185.206-.117.5-.311.3a32.9,32.9,0,0,1-7.9-13.814.155.155,0,0,1,.112-.192A.162.162,0,0,1,639.514,495.3Z" transform="translate(-319.294 -262.635)"/><path class="h" d="M651.692,525.414a3.373,3.373,0,0,1-1.816,1.64,2.752,2.752,0,0,1-2.18.112.133.133,0,0,1-.064-.153.14.14,0,0,1,.137-.1,6.579,6.579,0,0,0,1.942-.187,3.623,3.623,0,0,0,1.753-1.4.12.12,0,0,1,.16-.042.111.111,0,0,1,.044.154Z" transform="translate(-323.631 -278.663)"/><path class="h" d="M641.384,516.17a9.839,9.839,0,0,1,1.889,3.158c.515,1.051,1.068,2.242,1.505,3.4.1.248-.3.341-.4.107-.544-1.252-1.073-2.509-1.68-3.737a11.022,11.022,0,0,1-1.335-2.9Z" transform="translate(-320.407 -273.816)"/><path class="h" d="M645.923,530.857c.607.42.1,1.285-.194,1.78-.4.659-1.335,1.957-2.253,1.869a.141.141,0,0,1-.126-.084.132.132,0,0,1,.029-.145c.262-.248.641-.364.932-.6a4.76,4.76,0,0,0,.942-1.042c.16-.243.927-1.4.622-1.733,0-.033,0-.084.049-.061Z" transform="translate(-321.426 -281.631)"/><path class="h" d="M638.571,528.887c-2.777-1.649-5.268-5.185-4.515-8.46.034-.149.253-.1.262.037a11.073,11.073,0,0,0,1.165,4.812,13,13,0,0,0,3.229,3.434c.1.084-.029.243-.141.177Z" transform="translate(-316.579 -276.035)"/><path class="h" d="M630.307,510.763a18.514,18.514,0,0,1-4.627-9.88.161.161,0,0,1,.311-.042c.573,1.724.971,3.457,1.709,5.139a33.912,33.912,0,0,0,2.748,4.672c.058.079-.073.182-.141.107Z" transform="translate(-312.34 -265.592)"/><path class="h" d="M637.076,505.4c-2.719-2.7-4.209-6.97-4.729-10.618-.039-.243.345-.36.393-.1.782,4.013,2.51,7.077,4.442,10.637C637.217,505.377,637.129,505.452,637.076,505.4Z" transform="translate(-315.769 -262.285)"/><path class="h" d="M628.176,487.511a17.559,17.559,0,0,1-5.612-7.236c-.039-.107.121-.164.18-.075.8,1.21,1.457,2.485,2.326,3.648a36.643,36.643,0,0,0,3.243,3.536C628.395,487.469,628.268,487.581,628.176,487.511Z" transform="translate(-310.734 -254.625)"/><path class="h" d="M618.531,486.357c.772,1.028,1.456,2.1,2.321,3.06.7.789,1.607,1.439,2.228,2.27.063.089-.058.182-.141.135a9.693,9.693,0,0,1-2.7-2.583,12.159,12.159,0,0,1-1.806-2.84C618.4,486.343,618.5,486.315,618.531,486.357Z" transform="translate(-308.609 -257.919)"/><path class="h" d="M626.163,497.375a14.937,14.937,0,0,0-.316,2.256.078.078,0,0,1-.15,0,4.762,4.762,0,0,1,.345-2.289.064.064,0,0,1,.077-.039A.061.061,0,0,1,626.163,497.375Z" transform="translate(-312.337 -263.761)"/><path class="h" d="M633.277,525.643c-.029,2.527-.515,5.022-.772,7.535-.034.36-.626.36-.587,0,.306-2.532.762-5.05,1.3-7.545,0-.033.063-.028.063,0Z" transform="translate(-315.548 -278.846)"/><path class="h" d="M627.5,533.2c-3.6.276-5.938-5.536-2.709-7.4a.229.229,0,0,1,.316.3c-.636,1.373-1.457,2.49-.83,4.078s1.85,2.046,3.282,2.616a.206.206,0,0,1,.148.225A.211.211,0,0,1,627.5,533.2Z" transform="translate(-311.096 -278.928)"/><path class="h" d="M620.787,512.957c-2.729-2.761-4.957-9.067-4.117-12.828a.255.255,0,0,1,.486,0c.7,2.093.68,4.368,1.355,6.5s1.942,4.013,2.685,6.073a.235.235,0,0,1-.117.258.255.255,0,0,1-.291-.029Z" transform="translate(-307.612 -265.174)"/><path class="h" d="M600.1,485.092c-3.8.3-6.8-2.485-9.39-4.77s-5.884-5.246-6.312-8.876c-.039-.3.486-.42.592-.154,2.709,5.5,8.254,12.683,15.095,13.417a.2.2,0,0,1,0,.4Z" transform="translate(-291.1 -249.824)"/><path class="h" d="M586.962,466.824a13.645,13.645,0,0,0-1.422.813,4.661,4.661,0,0,0-1.219,1.285c-.325.467-1.083.042-.777-.439a4.209,4.209,0,0,1,3.335-1.962.168.168,0,0,1,.159.122A.161.161,0,0,1,586.962,466.824Z" transform="translate(-290.625 -247.36)"/><path class="j" d="M292.555,108.761c4.195.86,6.035,6.447,10.312,6.288,1.457-.051,3.112-1.238,4.574-1.6a30.873,30.873,0,0,1,6.613-.705,65.784,65.784,0,0,1,11.866,1.266c8.885,1.378,14.565-11.5,18.935-16.9a.37.37,0,0,0,0-.537.406.406,0,0,0-.558,0c-3.35,2.868-5.258,6.839-7.89,10.277-2.243,2.924-4.646,5.452-8.511,5.8-3.059.276-5.986-.593-9.055-.813-4.9-.35-8.856.836-13.526,1.4-2.782.327-5.059.2-7.021-1.64-.544-.514-1.054-1.1-1.646-1.565a6.8,6.8,0,0,0-4.035-1.663.209.209,0,0,0-.058.411Z" transform="translate(-140.871 -50.174)"/><path class="k" d="M364,49.837c-.15.392-.3.789-.442,1.182-.452,1.252-.578,2.924-1.2,4.074,1.583-2.915,3.166-5.835,4.515-8.876.34-.766,1.583-3.27,2.428-3.27.486,0,.971.215,1.457,0,.529-.22.675-.864.738-1.4.534-4.9-1-9.689-2.835-14.169A31.448,31.448,0,0,0,360.172,15.5c-6.6-5.681-16.061-15.14-25.737-12.851-.257.061-.146.434.107.378,7.768-1.635,13.017,3.672,18.576,7.839,3.433,2.569,7.03,5.078,9.87,8.283a32.072,32.072,0,0,1,6.8,14.164c.223.981,2.729,10.539-.932,8.381a.281.281,0,0,0-.277,0c-2.01,1.13-3,3.7-3.7,5.713C364.6,48.225,364.3,49.029,364,49.837Z" transform="translate(-162.423 0)"/><path class="l" d="M297.1,452.267c1.039,4.559,1.325,9.493-.67,13.748s-6.773,7.554-11.555,6.755a17.948,17.948,0,0,1-6.588-3.074l-17.061-11.029a5.186,5.186,0,0,1-1.782-1.593,4.891,4.891,0,0,1-.374-2.8q.291-4.5.587-8.988c.185-2.868.573-6.11,2.957-7.843,1.787-1.294,4.2-1.35,6.438-1.35C284.262,436.075,293.22,435.272,297.1,452.267Z" transform="translate(-123.703 -231.14)"/><path class="l" d="M341.484,452.267c-1.039,4.559-1.325,9.493.67,13.748s6.773,7.554,11.555,6.755A17.948,17.948,0,0,0,360.3,469.7l17.061-11.029a5.2,5.2,0,0,0,1.787-1.593,4.932,4.932,0,0,0,.374-2.8q-.3-4.5-.587-8.988c-.189-2.868-.578-6.11-2.962-7.843-1.787-1.294-4.2-1.35-6.438-1.35C354.326,436.075,345.363,435.272,341.484,452.267Z" transform="translate(-165.709 -231.14)"/><path class="m" d="M273.9,502.267a80,80,0,0,0,19.945,10.53,11.534,11.534,0,0,0,5.447.934c2.335-.318,6.117-1.243,6.137-4.078,0,1.612,0,2.448,1.457,3.167a9.438,9.438,0,0,0,3.039.8c3.049.3,6.472-.715,9.225-1.892a38.688,38.688,0,0,0,9.89-6.489c2.491-2.154,4.782-4.849,7.453-6.778a52.378,52.378,0,0,1-5.758,6.377c-2.971,2.8-5.554,5.414-9.118,7.442s-7.589,3.812-11.861,3.7c-1.5-.037-3.141-.626-4.6-.561a23.862,23.862,0,0,0-4.889,1.322,3.887,3.887,0,0,1-1.029.192c-1.942,0-4.559-1.1-6.312-1.911a74.548,74.548,0,0,1-21.411-15.047Z" transform="translate(-130.129 -264.379)"/><path class="i" d="M247.968,481.751c4.51,1.976,7.38,6.157,10.744,9.492a76.173,76.173,0,0,0,10.443,8.7,59.427,59.427,0,0,0,11.167,6.414,20.927,20.927,0,0,0,6.312,1.626c2.457.178,4.632-.771,7.05-.832a12.61,12.61,0,0,0,2.559-.117c.136-.033.3-.1.306-.238a13.636,13.636,0,0,0-3.18-.537,5.028,5.028,0,0,0-2.088.308c-4.035,1.668-8.9.047-12.623-1.668a59.967,59.967,0,0,1-11.73-7.437c-.913-.71-1.811-1.439-2.695-2.177-5.292-4.41-9.584-11.029-16.1-13.795C247.944,481.428,247.793,481.676,247.968,481.751Z" transform="translate(-117.972 -255.331)"/><path class="i" d="M342.785,505.9c7.7,1.481,14.828-1.929,20.581-6.662,8.055-6.629,14.08-14.075,23.576-19a.3.3,0,0,0,.123-.378.323.323,0,0,0-.366-.182C369.42,484.6,363.652,508,342.863,505.365c-.32-.037-.393.467-.078.547Z" transform="translate(-166.69 -254.363)"/><path class="n" d="M324.444,12.893a31.049,31.049,0,0,0-15.536-7.04,8.89,8.89,0,0,0-4.515.617c-1.369.537-2.539,2-3.84,2.429-1.457.467-3.4-.78-5.2-1.093a8.418,8.418,0,0,0-5.413.621,9.37,9.37,0,0,0-2.952,2.7c-4.326,5.643-5.4,13.15-9.841,18.709,4.214-2.252,5.059-7.876,8.686-10.931,3.209-2.7,7.875-2.859,12.138-2.882a3.648,3.648,0,0,1,2,.378,3.2,3.2,0,0,1,1.122,1.869,38.9,38.9,0,0,1,1.369,6.208l.51-5.755c5.341.57,9.521,3.882,14.726,4.97,3.015.635,6.137.785,9.113,1.588s5.918,2.425,7.283,5.1a28.732,28.732,0,0,0-9.647-17.485Z" transform="translate(-133.026 -1.857)"/><path class="d" d="M277.343,245.67a7.152,7.152,0,0,0,4.054-4.994c.918-3.737-.364-7.731-2.607-10.913a37.452,37.452,0,0,0-8.526-8.026c-1.7-1.271-3.685-2.588-5.826-2.28-1.762.257-3.136,1.565-4.321,2.845-3.632,3.919-8.375,9.1-9.71,14.328-1.015,3.952.816,9.236,1.942,13.048q2.258,7.638,4.161,15.36a78.311,78.311,0,0,0-1.641-11.768,19.4,19.4,0,0,1-.743-5.755c.272-3.214,3.855-7.26,7.37-7.442,4.137-.21,7.453,4.106,11,5.564A6.2,6.2,0,0,0,277.343,245.67Z" transform="translate(-119.114 -115.689)"/><path class="d" d="M365.929,245.67a7.175,7.175,0,0,1-4.054-4.994c-.913-3.737.369-7.731,2.607-10.913s5.375-5.671,8.526-8.026c1.7-1.271,3.685-2.588,5.826-2.28,1.762.257,3.141,1.565,4.326,2.845,3.627,3.919,8.375,9.1,9.71,14.328,1.015,3.952-.82,9.236-1.942,13.048q-2.248,7.638-4.156,15.36a77.673,77.673,0,0,1,1.641-11.768,19.4,19.4,0,0,0,.743-5.755c-.272-3.214-3.855-7.26-7.375-7.442-4.132-.21-7.448,4.106-11,5.564A6.2,6.2,0,0,1,365.929,245.67Z" transform="translate(-176.463 -115.689)"/></g></svg>