<svg xmlns="http://www.w3.org/2000/svg" width="385" height="336.318" viewBox="0 0 385 336.318"><defs><style>.a{opacity:0.2;}.b{fill:#f9f3f1;}.c{fill:#efe2dd;}.d{fill:#fec165;}.e{fill:#fdb441;}.f{fill:#ee6161;}.g{fill:#cb3f3f;}.h{fill:#f3b933;}.i{fill:#e94444;}.j{fill:#cdbfba;}</style></defs><g class="a" transform="translate(0 20.339)"><circle class="b" cx="70.657" cy="70.657" r="70.657" transform="translate(27.245 -20.339)"/><path class="c" d="M394.358,445.242a70.651,70.651,0,0,1-99.917,0c-.993-.993-1.953-2.016-2.869-3.054a70.658,70.658,0,0,0,93.762-104.5,70.664,70.664,0,0,1,9.025,107.554Z" transform="translate(-246.498 -344.963)"/><g transform="translate(179.959 4.029)"><path class="d" d="M245.733,32.564a53.555,53.555,0,0,1,72.378-22.313l97.907,51.765a53.556,53.556,0,0,1-50.065,94.691l-97.908-51.765a53.555,53.555,0,0,1-22.313-72.377Z" transform="translate(-239.512 -4.03)"/><path class="e" d="M438.853,134.4c-.458.869-.938,1.721-1.458,2.558a53.567,53.567,0,0,0-26.972-60.2l-97.9-51.765A53.537,53.537,0,0,0,241.6,44.742,53.579,53.579,0,0,1,318.63,10.25l97.91,51.765A53.562,53.562,0,0,1,438.853,134.4Z" transform="translate(-240.031 -4.029)"/><path class="f" d="M342.643,141.449l50.065-94.691,48.954,25.883A53.556,53.556,0,1,1,391.6,167.332Z" transform="translate(-265.155 -14.654)"/><path class="g" d="M478.089,145.021c-.256.488-.527.969-.8,1.45-.21.372-.434.745-.659,1.109a53.567,53.567,0,0,0-26.972-60.2L399.4,60.8l7.42-14.041,48.959,25.879A53.561,53.561,0,0,1,478.089,145.021Z" transform="translate(-279.267 -14.655)"/></g><g transform="translate(0 129.879)"><path class="h" d="M168.725,186.885a53.556,53.556,0,0,1,.657,75.737L91.752,341.61a53.556,53.556,0,0,1-76.394-75.079l77.629-78.988a53.556,53.556,0,0,1,75.737-.657Z" transform="translate(0 -171.526)"/><path class="h" d="M20.641,344.724c-.7-.687-1.38-1.392-2.034-2.129a53.568,53.568,0,0,0,65.4-8.608L161.637,255a53.536,53.536,0,0,0,1.378-73.609,53.58,53.58,0,0,1,10.994,83.682l-77.63,78.991a53.564,53.564,0,0,1-75.738.656Z" transform="translate(-4.626 -173.98)"/><path class="f" d="M54.173,245.407l76.394,75.079L91.752,359.98A53.556,53.556,0,1,1,15.358,284.9Z" transform="translate(0 -189.896)"/><path class="i" d="M20.641,381.8c-.394-.385-.778-.783-1.16-1.18-.3-.307-.589-.629-.874-.949a53.568,53.568,0,0,0,65.4-8.608l39.854-40.548,11.328,11.128-38.813,39.5a53.563,53.563,0,0,1-75.738.657Z" transform="translate(-4.626 -211.059)"/></g><g transform="translate(66.913 19.329)"><path class="j" d="M376.981,435.074A5.617,5.617,0,0,1,373,433.423l-50.707-50.707a5.635,5.635,0,1,1,7.97-7.969l50.707,50.707a5.635,5.635,0,0,1-3.984,9.62Z" transform="translate(-320.638 -373.096)"/></g></g></svg>