<svg xmlns="http://www.w3.org/2000/svg" width="18.937" height="18.782" viewBox="0 0 18.937 18.782"><defs><style>.a{fill:#fff;}</style></defs><g transform="translate(0 -0.786)"><g transform="translate(0 0.786)"><path class="a" d="M16.9,85.334l-7.43,7.324-7.43-7.325a1.2,1.2,0,0,0-1.688,0A1.175,1.175,0,0,0,.35,87l8.274,8.156a1.237,1.237,0,0,0,1.689,0L18.589,87a1.175,1.175,0,0,0,0-1.672A1.2,1.2,0,0,0,16.9,85.334Z" transform="translate(-0.001 -76.712)"/><path class="a" d="M8.624,10.961a1.237,1.237,0,0,0,1.689,0L18.588,2.8a1.175,1.175,0,0,0,0-1.672,1.2,1.2,0,0,0-1.688,0L9.468,8.457,2.038,1.133a1.2,1.2,0,0,0-1.688,0,1.175,1.175,0,0,0,0,1.672Z" transform="translate(0 -0.786)"/></g></g></svg>