<svg xmlns="http://www.w3.org/2000/svg" width="310" height="465" viewBox="0 0 310 465"><defs><style>.a{fill:#ffd2b3;}.b{fill:#2c3e50;}.c{fill:#ecf0f1;}.d{fill:#eebd9c;}.e{fill:#ffe3ce;}.f{fill:#3c5166;}.g{fill:#4e6780;}.h{fill:#c0392b;}.i{fill:#d2543b;}.j{fill:#af7b6e;}.k{fill:#802212;}.l{fill:#132231;}.m{fill:#5b250c;}.n{fill:#7f3d25;}.o{fill:#4b1d04;}.p{fill:#231f20;}.q{fill:#fff;}.r{fill:#a75336;}.s{fill:#c08678;}.t{fill:#dca17b;}.u{fill:#875150;}</style></defs><g transform="translate(0.002 0.05)"><path class="a" d="M168.544,141.668l-.119,1.93s2.023,4.1,4.877,5.784a24.28,24.28,0,0,0,4.872,2.278s5.235,1.567,8.442,2.892a25.18,25.18,0,0,1,5.588,3.255,36.538,36.538,0,0,0,5.964,5.068,18.856,18.856,0,0,1,6.221,7.24,33.569,33.569,0,0,1,3.143,12.778c.289,3.92.064,8.207-2.418,11.229-1.248,1.511-2.95,2.557-4.354,3.92-2.95,2.86-2.886,7.956-3.547,11.824l-1.927,6.891-2.138,6.147.119,4.459a71.314,71.314,0,0,1-.95,10.364c-.83,3.976-2.023,9.764-2.023,9.764l-1.069,3.134s2.257,9.518,2.5,15.3.6,9.644.459,9.3-3.923,1.567-3.923,1.567l-26.633,3.013-18.43.242-9.635-.846s-11.181-1.083-11.534-1.2-5.111-1.083-5.111-1.083l-.083-7.993s1.427-10.123,1.785-12.048.95-5.064.95-5.064a79.926,79.926,0,0,1-.353-9.4,86.423,86.423,0,0,0-1.188-16.632,72.659,72.659,0,0,0-3.331-10.722c-.119-.493-4.161-6.872-4.161-6.872l-2.753,6.268s-4.877,9.881-7.969,13.256a104.047,104.047,0,0,1-8.323,7.709l-3.923,3.255a34.134,34.134,0,0,0-5.35,6.631c-2.023,3.492-3.8,6.51-3.8,6.51a70.406,70.406,0,0,1-7.969,8.8c-3.45,2.892-6.657,6.045-6.657,6.045l-7.85,5.543-5.345,4.073s-3.331,3.5-4.877,5.3A20.149,20.149,0,0,0,43.1,285.8l-1.051,3.032a14.882,14.882,0,0,1-3.569,5.184,23.164,23.164,0,0,1-4.634,3.376l-2.753,1.325a12.306,12.306,0,0,1-2.5,3.855c-1.546,1.446-3.565,3.255-3.565,3.255L24.2,307.39a20.133,20.133,0,0,1-1.542,5.663c-1.193,2.409-1.9,3.855-1.9,3.855a9.277,9.277,0,0,1-.119,2.409,3.763,3.763,0,0,1-1.064,1.665l-2.753.725a34.946,34.946,0,0,1,.115-4.7c.239-2.05.835-5.663.835-5.663l-2.143,3.013-2.257,2.288s-.592,2.79-1.665,3.376a7.886,7.886,0,0,1-2.973.6L9.932,315.2l.711-3.013-3.212,4.7-2.854,1.567-2.262-.963,2.019-3.376,6.781-8.918-8.447,4.58s-1.661,0-2.019-1.325a2.822,2.822,0,0,1,.358-2.292l5.23-2.65A121.991,121.991,0,0,0,16.7,293.627c3.446-3.976,8.089-9.3,8.089-9.3l5.35-3.72,2.276-1.441,7.969-13.484,17.122-26.876s5.469-8.8,8.8-12.052a27.957,27.957,0,0,1,7.611-5.059L82.831,204.1l4.161-8.314,2.753-3.134s2.377-9.764,5.345-15.544a82.078,82.078,0,0,1,5.473-9.039c.119-.363,8.2-6.147,8.2-6.147l6.033-.963s3.8-4.58,8.2-6.389a36.416,36.416,0,0,1,8.561-2.288s5.588-1.809,6.882-3.376a19.531,19.531,0,0,0,2.023-2.892l.592-8.556Z" transform="translate(-0.298 -73.571)"/><path class="a" d="M420.461,182.88l6.061.963s8.089,5.784,8.208,6.147a82.843,82.843,0,0,1,5.469,9.039c2.973,5.784,5.35,15.544,5.35,15.544l2.753,3.134,4.161,8.314,8.919,17.595a27.956,27.956,0,0,1,7.611,5.059c3.331,3.255,8.8,12.052,8.8,12.052L494.915,287.6l7.965,13.484,2.262,1.446,5.35,3.72s4.639,5.305,8.084,9.3a118.7,118.7,0,0,0,10.465,9.881l5.23,2.65a2.822,2.822,0,0,1,.358,2.292c-.358,1.325-2.023,1.325-2.023,1.325l-8.442-4.58,6.776,8.918,2.023,3.376-2.262.963-2.854-1.567-3.212-4.7.711,3.013,1.188,5.426a7.48,7.48,0,0,1-2.968-.6c-1.069-.6-1.666-3.376-1.666-3.376l-2.262-2.288-2.138-3.013s.6,3.613.83,5.663a35.358,35.358,0,0,1,.119,4.7l-2.753-.725a3.726,3.726,0,0,1-1.069-1.688,9.281,9.281,0,0,1-.119-2.409l-1.9-3.859a20.046,20.046,0,0,1-1.546-5.663l-.83-1.567s-2.023-1.809-3.569-3.255a12.3,12.3,0,0,1-2.5-3.855l-2.753-1.325a23.258,23.258,0,0,1-4.639-3.376,14.851,14.851,0,0,1-3.542-5.161l-1.069-3.008a20.038,20.038,0,0,0-2.62-4.222c-1.542-1.8-4.872-5.3-4.872-5.3l-5.354-4.1-7.845-5.543s-3.212-3.134-6.657-6.045a72.239,72.239,0,0,1-7.969-8.8s-1.785-3.013-3.8-6.51a34.131,34.131,0,0,0-5.35-6.631l-3.927-3.255a105.03,105.03,0,0,1-8.323-7.709c-3.092-3.371-7.965-13.256-7.965-13.256l-2.753-6.268s-1.207,1.911-2.326,3.72c-1.734-14.6-5-41.122-6.767-55.4A29.508,29.508,0,0,1,420.461,182.88Z" transform="translate(-224.94 -95.491)"/><path class="b" d="M322.649,46.691s1.858-4.143,2.455-5.2a4.7,4.7,0,0,1,1.262-1.507s2.01.828,2.23-.149.674-1.432-.22-6.18a64.87,64.87,0,0,0-1.918-7.835,21.888,21.888,0,0,0-3.423-6.556c-2.377-3.013-4.014-4.9-4.014-4.9l-6.63-5.8-7.5-5.728a20.992,20.992,0,0,0-6.7-2.488,8.571,8.571,0,0,0-5.047.753l-1.858,1.209-1.413,1.279a10.525,10.525,0,0,0-6.616-1.279c-3.6.623-8.41,4.217-8.41,4.217a29.014,29.014,0,0,0-3.716,4.975,23.238,23.238,0,0,0-1.785,4.65,18.735,18.735,0,0,1-2.533,6.124c-1.858,2.711-3.647,5.426-3.647,5.426s-.941,2.488-1.7,4.524a13.34,13.34,0,0,0-.743,4.069l.743.074,2,7.686s1.789,6.105,3.868,8.137,2.6,2.185,2.6,2.185l2.23.753,9.892-4.971Z" transform="translate(-141.103 -0.174)"/><path class="a" d="M310.894,95.8a31.383,31.383,0,0,0,6.295-5.58,65.271,65.271,0,0,0,4.56-7.133l2.611-5.835s1.743.609,2.078,0,2.409-5.231,2.409-5.231a64.042,64.042,0,0,0,1.61-6.923A10.565,10.565,0,0,0,330,61.567l-.872-1.288s-1.606-.679-2.01-.339a7.689,7.689,0,0,0-1,1.288l-1.207,2.106s-1-4.143-3.014-6.449a14.094,14.094,0,0,0-3.955-3.255l-4.487-1.9.67,1.832-1.34-.339a64.375,64.375,0,0,0-6.308-1.674,45.922,45.922,0,0,1-5.359-1.423,17.272,17.272,0,0,1-3.955-3.06c-1.009-1.358-1.927-2.864-1.927-2.864l-4.157,2.79s-5.758,2.85-5.964,2.85-5.3,1.241-5.3,1.241-.67,2.85-.918,4.957a20.793,20.793,0,0,0,.28,7.863c.229.893.546,1.767.711,2.674.128.725.165,1.465.262,2.19a12.726,12.726,0,0,0,.918,3.362c-1.454-.8-2.087-2.074-3.046-3.325a23.173,23.173,0,0,0-1.675-1.762l-1.808-1.358a3.788,3.788,0,0,0-1.142,2.511,8.137,8.137,0,0,0,.67,2.646,15.715,15.715,0,0,1,2.482,3.464c.473,1.288,1.473,3.255,1.473,3.255a10.542,10.542,0,0,0,1.808,1.493,8.9,8.9,0,0,0,1.074.465s2.478,4.008,4.088,6.249a33.708,33.708,0,0,0,3.67,4.208,32.464,32.464,0,0,0,8.373,5.975,14.023,14.023,0,0,0,10.924,1.167Z" transform="translate(-147.957 -23.675)"/><path class="c" d="M347.54,85.613a12.013,12.013,0,0,0,3.124,1.144,22.2,22.2,0,0,0,4.129-.228s1.716-.26,2-.288a10.324,10.324,0,0,0,1.606-1.195,5.3,5.3,0,0,0-2.455-1.86,9.256,9.256,0,0,0-3.065-.516l-2.143.516S348.132,84.632,347.54,85.613Z" transform="translate(-188.09 -44.257)"/><path class="d" d="M321.36,45.388c1.22,2.994,4.1,4.943,6.974,6.361s5.964,2.534,8.387,4.65c0-.335-.041-.674-.064-1.009,2.014.539,4.221.5,6.01,1.772a.231.231,0,0,1,.1.1.249.249,0,0,1-.037.186l-.647,1.3a.186.186,0,0,1-.06.084.245.245,0,0,1-.193,0,12.355,12.355,0,0,0-5.506.3,7.714,7.714,0,0,0-2.5.93c-1.248,1.153-.918,3.79-.895,5.287,0,.158.1.377.243.312a.232.232,0,0,0,.092-.107,7.575,7.575,0,0,1,5.244-3.073,5.777,5.777,0,0,1,3.106.465l1.789,1.176a4.115,4.115,0,0,1,.729.618.317.317,0,0,1,.105.191.371.371,0,0,1-.06.191,3.8,3.8,0,0,1-1.422,1.423.936.936,0,0,1,.335.832,12.654,12.654,0,0,0-2.294-.219,12.349,12.349,0,0,1-2.615.2c1.624.358,4.294.088,5.685,1.116a3.249,3.249,0,0,1,.844,1.083,25.129,25.129,0,0,1,1.968,4.4c.5,1.46-1,3.255-1.661,4.552a10.178,10.178,0,0,0-.67,1.5,11.987,11.987,0,0,0-.3,1.214c-1.12,5.157-2.95,10.178-7.2,13.512a13.288,13.288,0,0,1-9.548,2.9,13.5,13.5,0,0,0,9.832-1.6,20.343,20.343,0,0,0,5.565-4.8A45.942,45.942,0,0,0,348.659,81c.881-1.9,1.684-3.831,2.578-5.729q.771-1.632,1.679-3.194a14.364,14.364,0,0,1,1.835-2.925,11.8,11.8,0,0,0-.8,1.046,1.4,1.4,0,0,1-1.106.614c-.986-.056-.78-2.283-.863-2.99a9.031,9.031,0,0,1,.184-3.934,3.878,3.878,0,0,1,1.555-2.092,1.416,1.416,0,0,1,1.308-.186c.22.107.413.307.661.316a5.132,5.132,0,0,0-.674-1.2,1.654,1.654,0,0,0-1.175-.628c-.881,0-1.193.563-1.542,1.218-.509.958-1.092,1.86-1.532,2.86a22.817,22.817,0,0,0-4.051-7.147,13.244,13.244,0,0,0-7.024-4.71c.087.567.179,1.135.271,1.7l-7.359-1.985a32.46,32.46,0,0,1-6.341-2.209,10.982,10.982,0,0,1-4.872-4.538Z" transform="translate(-173.921 -24.258)"/><path class="d" d="M350.272,84.107a8.882,8.882,0,0,0-1.739,1.311.521.521,0,0,0-.129.186.469.469,0,0,0,.129.4,8.126,8.126,0,0,0,1.656,1.651,11.616,11.616,0,0,1-3.129-1.144A7.97,7.97,0,0,1,350.4,84l-.252.121Z" transform="translate(-187.83 -44.969)"/><path class="d" d="M291.143,51.626c-1,2.046.39,5.756,2.505,6.254a4.975,4.975,0,0,0-5.194,2.13l.72.358a1.434,1.434,0,0,1,.835-.535,14.418,14.418,0,0,1,7.382-.432c2.078.423,4.18.539,5.373,2.6a11.247,11.247,0,0,1,1.138,4.482,5.065,5.065,0,0,1,0,1.558,1.724,1.724,0,0,1-.863,1.223c-.537.26-1.271.149-1.647.618a11.612,11.612,0,0,0,1.11-1.809,1.249,1.249,0,0,0,.165-.581,1.2,1.2,0,0,0-.165-.465,6.623,6.623,0,0,0-2.478-2.581c-1.418,1.116-2.244,1.944-4.129,1.627l-1.129-.191a20.226,20.226,0,0,0-3.638-.06,20.986,20.986,0,0,1,2.367.735,21.508,21.508,0,0,1,2.294.79,30.1,30.1,0,0,1-4.1.688c-1.528.3-1.931.749-2.271,2.3-.257,1.162-.5,2.325-.725,3.5-.459,2.288.459,4.65,1.514,6.644a56.893,56.893,0,0,0,4.359,7.058c1.216,1.683,3,4.515,5.276,4.822a3.3,3.3,0,0,0,2.221-.707,23.3,23.3,0,0,1,1.945-1.395,4.561,4.561,0,0,1,3.67-.274,6.123,6.123,0,0,0-2.56.837,2.892,2.892,0,0,0-1,.693,3.036,3.036,0,0,0-.509,1.595c-.161,1.274-.615,2.613.849,3.18a10.222,10.222,0,0,0,3.955.493,13.216,13.216,0,0,1-10.484-1.972,33.122,33.122,0,0,1-7.873-7.681,42.522,42.522,0,0,1-5.083-7.649,1.335,1.335,0,0,1-.193-.846c.06-.246.257-.465.33-.688a1.489,1.489,0,0,0-.252-1.079c-1.753-3.255-3.716-6.477-4.813-10.034.165.535,1.656,1.586,2.065,2.13a22.251,22.251,0,0,0,2.638,2.953c-.863-.8-1.179-3.72-1.427-4.859a36.4,36.4,0,0,1-.762-5.259A27.964,27.964,0,0,1,283.6,51.338a1.6,1.6,0,0,1,.395-.739,1.654,1.654,0,0,1,1.055-.3,15.5,15.5,0,0,0,5.606-1.144c2.881-1.432,5.882-2.748,7.887-5.343a17.176,17.176,0,0,0,1.12,1.892c.184.232,1.17.883,1.17,1.1a8.387,8.387,0,0,1,1.835,1.6,8.044,8.044,0,0,1-3.794-1.19.937.937,0,0,0-.564-.2.8.8,0,0,0-.3.112,70.069,70.069,0,0,0-6.051,3.58A2.278,2.278,0,0,0,291.143,51.626Z" transform="translate(-151.559 -23.466)"/><path class="d" d="M313.615,119.112a1.112,1.112,0,0,1,.707-.3c-.211.809-1.239,1.516-.821,2.232a1.341,1.341,0,0,0,1.06.465,22.684,22.684,0,0,0,5.776.181c.918-.116,4.68.209,5.244-.437-.537.609-1.064,1.218-1.6,1.827-.138-.353-.275-.707-.408-1.06a3.331,3.331,0,0,0-1.711,1.316c-.1.144-.459,1.042-.509,1.042.408,0,4.675-.186,4.666-.065a2.746,2.746,0,0,1-.959,1.655c-.161.158-1.537.981-1.532,1.1a2.012,2.012,0,0,0-.89-1.739,2.757,2.757,0,0,0-.693-.228c-1.876-.423-4.1-.609-5.767-1.548-.918-.511-2.211-1.939-3.326-1.813a.565.565,0,0,0-.362.27,5.929,5.929,0,0,0-1.138,2.79,5.469,5.469,0,0,1,2.39-5.352Z" transform="translate(-168.475 -63.593)"/><path class="d" d="M331.558,110.043a1.679,1.679,0,0,0,.853.2,1.77,1.77,0,0,0,.963-.549,13.458,13.458,0,0,0,2.753-3.529,5.379,5.379,0,0,1-2.753.93,14.71,14.71,0,0,1-5.964-.423A10.912,10.912,0,0,0,331.558,110.043Z" transform="translate(-177.195 -56.825)"/><path class="e" d="M338.122,117.361a2.827,2.827,0,0,0,.234-.284c.376-.572-.28-.8-.752-.684-.358.093-.651.288-1,.4a5.813,5.813,0,0,1-1.225.293,4.984,4.984,0,0,1-1.766-.232c-.312-.084-1.046-.377-1.308-.116a.423.423,0,0,0-.064.465,1.071,1.071,0,0,0,.312.377,4.093,4.093,0,0,0,2.927.93,3.631,3.631,0,0,0,1.583-.386A3.914,3.914,0,0,0,338.122,117.361Z" transform="translate(-179.786 -62.284)"/><path class="e" d="M337.333,125.4l-1.642.465a1.933,1.933,0,0,0-.794.358.68.68,0,0,0-.206.79l4.033.088a4.981,4.981,0,0,0,1.532-.121A1.722,1.722,0,0,0,341.4,126a.471.471,0,0,0,.032-.279c-.041-.167-.22-.26-.376-.321a8.476,8.476,0,0,0-4.643.037Z" transform="translate(-181.108 -66.952)"/><path class="e" d="M332.519,81.677c-.674.181-.193,3.515-.151,4.055a8.662,8.662,0,0,1-.459,4.431c-.28.614-.661,1.316-.353,1.916.344.67,1.262.679,2,.73a7.128,7.128,0,0,0,1.661.07,1.4,1.4,0,0,0,1.216-1c.124-.665-.427-1.237-.812-1.79a9.914,9.914,0,0,1-1.23-4.013c-.142-.828-.321-1.646-.523-2.464a2.8,2.8,0,0,0-1.083-1.86.386.386,0,0,0-.271-.07Z" transform="translate(-179.377 -43.724)"/><path class="e" d="M339.26,143.6c-2.046-.93-4.707-1.311-6.533.437a2.226,2.226,0,0,0-.509,1.362l-.138.981a1.187,1.187,0,0,0,0,.493.955.955,0,0,0,.321.4,4.951,4.951,0,0,0,3.67.93,12.271,12.271,0,0,0,3.67-1.181.635.635,0,0,0,.415-.336.65.65,0,0,0,.016-.538c-.087-.549-.17-1.1-.257-1.651a.928.928,0,0,0-.67-.888Z" transform="translate(-179.708 -76.434)"/><path class="e" d="M312.675,117.287c-.087-1.241-1.748-.3-2.069.093a5.534,5.534,0,0,0-1.133,2.98c-.037.465.073,1.06.523,1.176a9.141,9.141,0,0,1,2.5-3.943C312.583,117.487,312.684,117.385,312.675,117.287Z" transform="translate(-167.484 -62.447)"/><path class="f" d="M276.567,11.821c-2.78,2.622-4.06,6.342-5.308,9.876-.642,1.818-1.308,3.613-2.1,5.37-.863,1.9-2.422,3.427-3.519,5.226a15.346,15.346,0,0,0-1.225,2.776,13.777,13.777,0,0,1-.794,2.678l.647-.307a7.2,7.2,0,0,0,.33,2.069l1-1.018q3.138,3.19,6.469,6.156c-1.257-4.8-.459-9.885.363-14.791a.92.92,0,0,1,.84-.972,34.737,34.737,0,0,0,14.471-7.672,5.763,5.763,0,0,1-.459-3.325,40.938,40.938,0,0,1,1.835-9.834,11.645,11.645,0,0,0-5.226-.623,11.506,11.506,0,0,0-4,1.934,23.413,23.413,0,0,0-3.326,2.455Z" transform="translate(-142.672 -3.943)"/><path class="f" d="M332.758,1.637a8.052,8.052,0,0,0-5.808,3.087,4.484,4.484,0,0,0-.794,1.655,6.777,6.777,0,0,0-.073,1.7c.22,5.3-.656,12.364,4.083,15.842a18.069,18.069,0,0,0,5.34,2.45c1.555.5,3.124.93,4.7,1.395-.33-.856-.656-1.716-.986-2.571.165.432,4.519,1.321,5.166,1.558a23.654,23.654,0,0,1,5.079,2.269c2.5,1.725,4.166,5.3,4.8,8.193.459-1.534,2.514-2.12,3.955-1.446a5.874,5.874,0,0,1,2.721,3.72c.358-1.1,1.656-2.748,2.794-1.395a13.509,13.509,0,0,0,.046-1.86c-.294-6.951-4.794-14.075-9.015-19.227A60.3,60.3,0,0,0,339.7,4.129C337.576,2.8,335.24,1.572,332.758,1.637Z" transform="translate(-176.465 -0.901)"/><path class="g" d="M336.643,4.432c-3.547-1.051-7.07-.707-7.933,3.845a22.177,22.177,0,0,0,.243,9.4,13.469,13.469,0,0,1,.918-4.185A4.353,4.353,0,0,1,332,10.886a4.079,4.079,0,0,1,1.519-.242c4-.06,7.735,1.86,11.264,3.757a62.623,62.623,0,0,1,7.364,4.445,34.178,34.178,0,0,1,6.579,6.333c-1.349-1.7-2.216-3.864-3.5-5.64q-1.75-2.448-3.735-4.71c-2.111-2.371-4.716-4.017-7.029-6.1a20.87,20.87,0,0,0-7.823-4.3Z" transform="translate(-177.688 -2.134)"/><path class="h" d="M249.788,435.336s19.27,3.218,31.391,3.018,26.821-1,26.821-1l17.049-3.72s3.615,7.723,4.212,10.546a48.323,48.323,0,0,1,.794,6.045l-11.323,5.036-16.1,11.094-7.341,7.249-4.973,6.235a13.323,13.323,0,0,1-4.772-.2c-1.789-.6-4.588-4.431-4.588-4.431l-9.121-9.062-12.319-8.253-8.74-3.827-4.588-1.209a17.677,17.677,0,0,1,0-4.831C246.59,446.008,249.788,435.336,249.788,435.336Z" transform="translate(-133.143 -232.029)"/><path class="d" d="M293.1,275.264s-4.354-1.288-5.079.186a6,6,0,0,0-.729,2.39s-.918-4.6-2.716-3.5a5.79,5.79,0,0,0-2.363,3.125s-5.62-1.283-8.341,0-10.337,3.864-13.241,4.045a51.89,51.89,0,0,1-5.8,0s-2.9,3.859-3.083,5.515,1.633,13.238,1.812,16a54.814,54.814,0,0,1-.179,6.8,18.069,18.069,0,0,1,8.162,6.045c3.446,4.6,7.254,16.544,7.254,16.544s-5.258-10.476-7.437-13.052-7.437-5.147-7.437-5.147l-2.716-.93-1.2,3.157-.615-12.164s-.362-14.34-1.633-18.566-6.166-12.871-6.166-12.871l.546-3.492,1.45-11.029,3.625,12.317s.532,5.914,10.167,6.83,11.97-.549,11.97-.549,1.812-.186,6.345-3.311a85.01,85.01,0,0,0,7.8-6.045l.725-5.882,3.992,5.7Z" transform="translate(-130.75 -138.234)"/><path class="d" d="M240.4,215.2a85.78,85.78,0,0,0,7.983-9.007,24.789,24.789,0,0,0,3.808-8.086l-.541-5.333s10.337,3.492,13.961,4.413,11.066,4.78,11.066,4.78-13.6-3.678-15.962-2.209-9.979,9.764-12.512,11.583A46.441,46.441,0,0,1,240.4,215.2Z" transform="translate(-130.105 -103.163)"/><path class="d" d="M257.41,173.168a35.628,35.628,0,0,1,8.158-4.78c3.987-1.469,7.983-1.288,9.979-2.757a15.781,15.781,0,0,0,3.262-3.311l-1.087,6.435s3.992,6.431,7.075,7.719,3.992-1.469,3.267-4.227-2-7.356-2-7.356l6.166,11.769,3.808,4.594-1.45,8.835s.541-3.678-.546-4.045-.725.735-1.087-.367-1.271-3.311-2.537-4.227-13.6-3.678-13.6-3.678l-13.97-3.125Z" transform="translate(-139.311 -86.872)"/><path class="d" d="M336.381,168.015s2.9-.735,5.079-6.617,3.446-8.616,3.446-8.616l1.271-4.413,1.721-1.86-.087,5.7s3.624,3.859,5.964,4.78,9.254,2.576,11.612,3.859,6.882,5.7,6.882,5.7-3.808.367-4.354,1.86a7.063,7.063,0,0,0-.362,2.943s.73,6.975,1.835,9.374,6.529,11.029,6.529,11.029-7.974-11.071-9.97-12.708-5.964-7.9-7.979-7.351S344.543,175,344.543,175s9.979-4.041,13.062-4.594,6.166-1.469,4.17-2.39-9.433.367-9.433.367l-6.529,2.943-5.8,1.451h-3.629S326.406,167.28,336.381,168.015Z" transform="translate(-179.651 -78.413)"/><path class="e" d="M251.45,238.267a22.392,22.392,0,0,0,.7,3.478,35,35,0,0,0,5.313,11.094c2.11,2.994,9.708,3.208,13.085,3.422s10.13-2.994,12.03-5.115,5.276-5.989,5.7-8.983.422-10.9.422-10.9-14.984-12.833-18.783-7.058S260,234.036,256.836,234.9c-1.73.465-4.07-.591-5.079,1.158A3.977,3.977,0,0,0,251.45,238.267Z" transform="translate(-136.062 -119.181)"/><path class="d" d="M344.887,274.717c2.459.869,4.927,1.711,7.4,2.548,5.46,1.86,11.323,2.72,16.453,5.37a6.344,6.344,0,0,1,3.3,4.706,12.536,12.536,0,0,1,0,2.59c-.106,1.507-.725,3.05-.459,4.538a14.212,14.212,0,0,1-1.376,8.537l-1.477.642-6.951,3.018c1.574-.665,3.262,1.167,3.212,2.9s-1.138,3.213-2.11,4.65a43.546,43.546,0,0,0-6.653,15.721,136.92,136.92,0,0,1,12.924-19.585c1.184-1.5,2.955-3.134,4.712-2.418a28.385,28.385,0,0,0,2.216-14.07c-.22-2.218-.7-4.473-.22-6.649a17.185,17.185,0,0,1,1.863-4.3,71.345,71.345,0,0,0,6.162-15.874,23.086,23.086,0,0,1,2.129-6.193c1.12-1.879,3.065-3.422,5.23-3.362-2.083-1.758-5.4-.93-7.378.93s-3,4.534-4.193,7c-2.909,6.045-7.772,11.773-14.315,12.824a26.451,26.451,0,0,1-8.988-.637c-2.441-.465-5-1.009-6.882-2.655-1.445-1.265-3.06-3.255-4.781-2.436a2.61,2.61,0,0,0-.119,2.683,24.371,24.371,0,0,0,3.024-3.613Z" transform="translate(-186.322 -137.269)"/><path class="d" d="M314.4,304.744a2.017,2.017,0,0,0-.523-.358,2.868,2.868,0,0,0-3.423,1.214c-.885,1.339-.459,2.646-.619,4.124a18.392,18.392,0,0,1-1.119,4.85,6.367,6.367,0,0,1-3.047,3.5,9.26,9.26,0,0,1-4.042.549c-3.354-.042-6.235.037-9.125-1.944.977.67,1.413,3.1,1.574,4.185a12.375,12.375,0,0,1,.459,3.65,5.46,5.46,0,0,1,2.6-2.325,18.479,18.479,0,0,1,4.533-1.79,21.847,21.847,0,0,0,5.409-1.6q1.2,2.892,2.184,5.873a10.035,10.035,0,0,1,.624,2.85c.092,3.515-4.281,5.724-7.226,6.077a23.768,23.768,0,0,1-5.386-.172l-3.547-.391a11.847,11.847,0,0,0,4.326.856q5.919.437,11.819,1.125a1.049,1.049,0,0,1,.459.135,1.009,1.009,0,0,1,.317.465c1,2.325,1.376,5.747-.918,7.407-.665.465-1.487.725-2.138,1.232a3.565,3.565,0,0,0-1.161,3.4,6.294,6.294,0,0,0,.335,1.837c.083.2.885,1.348.858,1.441a5.034,5.034,0,0,1,3.528-3.38c1.092-.27,2.56.1,2.753,1.228s-1.055,2.013-1.275,3.148a12.235,12.235,0,0,0,3.625-2.213c1.34-1.33,2.033-3.831.7-5.412-.661-.786-1.725-1.242-2.042-2.278-.39-1.3-.1-3.255-.133-4.6-.032-1.055.037-2.325.918-2.86a3.211,3.211,0,0,1,1.968-.2,16.539,16.539,0,0,0,6.74-.521,17.485,17.485,0,0,0,2.991-1.423c.849-.512,1.78-1.637,2.661-1.971a15.193,15.193,0,0,1-8.607.953,4.678,4.678,0,0,1-3.969-3.19c-1.376-3.041-2.11-5.961-1.2-9.244a3.462,3.462,0,0,1,.661-1.395,3.892,3.892,0,0,1,2.583-.972q4.212-.465,8.428-.865c1.409-.126,3.028-.172,4.01.86a23.842,23.842,0,0,0-1.409-6.24,8.648,8.648,0,0,1-5.4,3.473,24.68,24.68,0,0,1-6.52.391,3.623,3.623,0,0,1-1.207-.172c-2.386-.93-2.835-5.305-2.611-7.44a3.472,3.472,0,0,0,.027-.93A1.684,1.684,0,0,0,314.4,304.744Z" transform="translate(-158.302 -162.772)"/><path class="d" d="M256.038,389.9q-.229,2.79-.459,5.552a17.071,17.071,0,0,0,1.248,9.658,5.758,5.758,0,0,0,1.331,2.367,5.414,5.414,0,0,0,1.987,1.009,47.39,47.39,0,0,0,14.117,2.39.949.949,0,0,0,.688-.172.937.937,0,0,0,.216-.535,26.1,26.1,0,0,0,.431-4.352c.459,1.725,1.913,2.943,3.3,4.036q2.652,2.088,5.295,4.185a170.4,170.4,0,0,1-30.8-2.981c-1.991-7.216.055-14.912,2.578-21.956Z" transform="translate(-136.705 -208.205)"/><path class="d" d="M355.047,417.436c3.152-1.92,4.707-5.621,6.047-9.09a15.888,15.888,0,0,0-.294,3.873,2,2,0,0,0,.248,1.037,2.035,2.035,0,0,0,1.835.6,37.807,37.807,0,0,0,8.772-1.26,9.419,9.419,0,0,0,2.835-1.139,9.225,9.225,0,0,0,3.248-5,39.42,39.42,0,0,0,1.73-11.243q1,7.24,2.014,14.489c.188,1.362.317,2.929-.615,3.929a4.564,4.564,0,0,1-2.5,1.088c-7.878,1.641-15.911,3.292-23.908,2.418Z" transform="translate(-191.835 -211.479)"/><path class="e" d="M360.431,219.311c-4.684-.665-9.015,2.669-12.507,5.547a11.33,11.33,0,0,0-4.326,10.694A25.151,25.151,0,0,0,352.09,251.5a8.729,8.729,0,0,0,2.491,1.609,10.472,10.472,0,0,0,4.3.363l8.749-.493c.234-1.776-1.436-3.166-2.1-4.831-1.041-2.6.486-5.459,1.835-7.9a86.15,86.15,0,0,0,5-10.611,5.839,5.839,0,0,0,.551-2.376c-.092-1.981-1.982-3.306-3.67-4.292C366.474,221.353,363.6,219.762,360.431,219.311Z" transform="translate(-185.9 -117.318)"/><path class="i" d="M256.63,443.03q.055,3.72.1,7.393a3.207,3.207,0,0,0,2.877,3.7,64.434,64.434,0,0,1,25.8,17.269,23.63,23.63,0,0,1,8.786-6.891c3.189-1.442,4.092-1.534,6.593.869-2.372-2.278,11.107-17.623,12.365-19.748a381.262,381.262,0,0,1-56.377-3.985Z" transform="translate(-138.889 -236.315)"/><path class="i" d="M407.772,440.886q2.441,6.305,4.9,12.606a.764.764,0,0,0,1.216.451l3.45-1.107a69.956,69.956,0,0,0-3.349-12.912,2.166,2.166,0,0,0-1.092-1.446,2.135,2.135,0,0,0-1.721.437l-4.212,2.511Z" transform="translate(-220.248 -234.589)"/><path class="e" d="M267.087,383.334c-1.6,2.79-1.739,6.217-1.665,9.458a8.916,8.916,0,0,0,.78,4.092,9.144,9.144,0,0,0,3.542,3.1l5.437,3.292a6.814,6.814,0,0,0,3.056,1.218,2.343,2.343,0,0,0,2.5-1.73,3.467,3.467,0,0,0-.284-1.641q-1.51-4.25-3.372-8.37a23.416,23.416,0,0,0-3.744-6.231,9.075,9.075,0,0,0-6.281-3.2l-.679,1.181Z" transform="translate(-143.639 -205.112)"/><path class="e" d="M382.746,377l-8.286,10.457c-1.624,2.051-3.3,4.217-3.785,6.8s.7,5.7,3.212,6.426c3.386-.7,5.964-3.445,8.258-6.045a15.27,15.27,0,0,0,2.789-3.887,15.03,15.03,0,0,0,.954-4.622q.33-3.32.665-6.635a4.138,4.138,0,0,0-.459-2.994,2.136,2.136,0,0,0-3.547.567Z" transform="translate(-200.553 -201.08)"/><path class="e" d="M295.492,309.657c-.734,1.762-1.45,3.85-.5,5.5a5.105,5.105,0,0,0,3.06,2.06,14.3,14.3,0,0,0,8.089.074,2.989,2.989,0,0,0,1.546-.856,3.329,3.329,0,0,0,.518-2.041q.151-4.1.3-8.2a21.712,21.712,0,0,0-13.755,3.594Z" transform="translate(-159.404 -163.812)"/><path class="e" d="M301.813,340.9a7.319,7.319,0,0,0-7.428,5.891,2.993,2.993,0,0,0,.73,2.855,3.42,3.42,0,0,0,1.652.586,33.512,33.512,0,0,0,7.286.363,5.953,5.953,0,0,0,1.459-.219,4.552,4.552,0,0,0,2.789-3.855,13.563,13.563,0,0,0-.606-4.98,3.3,3.3,0,0,0-1.051-2,3.114,3.114,0,0,0-2.39-.163,22.382,22.382,0,0,0-3.643,1.181Z" transform="translate(-159.283 -181.516)"/><path class="e" d="M308.19,370.806c-1.789-.53-3.67,1.023-4.129,2.86a7.463,7.463,0,0,0,1.184,5.384,1.479,1.479,0,0,0,1.877.916,32.263,32.263,0,0,0,7.12-1.883,3.31,3.31,0,0,0,1.188-.684,3.547,3.547,0,0,0,.739-2.041c.206-1.465.372-3.115-.528-4.287a4.183,4.183,0,0,0-2.854-1.395,8.724,8.724,0,0,0-5.506,1.107Z" transform="translate(-164.481 -197.773)"/><path class="e" d="M354.487,377.332c1.968-1.674,2.193-4.622,2.12-7.221a1.587,1.587,0,0,0-.28-1.032,1.561,1.561,0,0,0-1.326-.293c-3.147.293-11.424-.651-11.635,4.273C343.164,377.811,351.491,379.88,354.487,377.332Z" transform="translate(-185.829 -197.325)"/><path class="e" d="M349.668,332.493a6.914,6.914,0,0,0-1.542,8.249,6.422,6.422,0,0,0,4.849,3.329c3.253.344,6.139-1.944,8.625-4.1,1.037-.893,2.179-2.144,1.762-3.455-1.835-.349-3.01-2.134-4.469-3.325a8.117,8.117,0,0,0-9.983,0Z" transform="translate(-188.006 -177.376)"/><path class="e" d="M350.647,303.474c-4.941-2.967-5.441,2.622-4.363,6.045a3.458,3.458,0,0,0,1.234,2.046,3.174,3.174,0,0,0,1.725.321,28.678,28.678,0,0,0,9.85-1.916c.3-.544-.262-1.153-.771-1.507Q354.578,305.837,350.647,303.474Z" transform="translate(-187.154 -161.944)"/><path class="e" d="M303.64,162.9a68.828,68.828,0,0,1,1.335-7.23c3.67,2.725,5.639,7.189,6.946,11.6a5.905,5.905,0,0,1,.307,3.176,2.124,2.124,0,0,1-2.354,1.674,2.658,2.658,0,0,1-1.335-1.065c-1.294-1.748-1.987-4.129-3.914-5.115a2.293,2.293,0,0,1-1.069-.73,1.755,1.755,0,0,1-.124-1.046q.151-1.892.307-3.78Z" transform="translate(-164.203 -83.314)"/><path class="a" d="M382.941,471.833a13.528,13.528,0,0,0-.895-2.864c-3.753,1.665-7.469,3.5-11.195,5.268-1.7.809-3.409,1.623-5.047,2.543-8.309,4.65-14.81,11.95-21.151,19.106a6.127,6.127,0,0,0-2.051,4.664c-.5,6.086-1.175,11.81-.275,17.925,1.376,9.462,3.579,19.733,3.579,19.733l4.749,22.956-1.587,8.658a40.42,40.42,0,0,0,1.785,11.476c1.785,5.031,4.588,17.925,4.588,17.925s-3.973,8.658-4.171,13.289.4,11.68.4,11.68l2.2,13.694,1.785,9.262.968,15.1s2.583,14.3.6,18.929a21.279,21.279,0,0,0-1.973,7.649l1,5.036.991,2.618-1,5.454s.592,2.818.991,4.431,1.987,7.44,1.987,7.44l2.982,1.009,8.745.4,7.745-1,3.18-1.209s1.987,0,.6-2.013-6.162-7.44-6.162-7.44L371.93,695.5l-.991-4.431s-.2-11.88,1.785-18.729,4.767-18.525,4.767-19.129,4.969-21.951,4.969-21.951a89.208,89.208,0,0,0,1.376-16.311,132.743,132.743,0,0,0-1.188-14.5l-3.579-10.694a34.329,34.329,0,0,0,2.386-13.893c-.2-8.253-.6-12.689-.6-12.689a163.893,163.893,0,0,0,5.763-23.156c1.991-12.089,1.592-26.969,1.592-26.969l-1.987-24.179c-.5-3.343-.918-6.691-1.587-10C384.547,478.361,383.657,474.562,382.941,471.833Z" transform="translate(-185.03 -250.936)"/><path class="d" d="M353.081,551.292q-.651-2.729-1.3-5.459c-1.954-8.277-3.79-16.6-4.946-25.034-.569-4.185-.977-8.416-1.138-12.647-.128-3.5-.5-7.626.459-11.034,1.115-3.976,5-6.324,7.96-9.169,1.051-1.009,2.01-2.116,3.019-3.167,7.121-7.365,16.737-11.592,26.092-15.642a1.043,1.043,0,0,1,.895-.1,1.027,1.027,0,0,1,.4.563,28.222,28.222,0,0,1,1.987,7.719,4.852,4.852,0,0,0-6.474-1.228c-5.712,2.288-10.52,6.426-14.714,10.969a26.479,26.479,0,0,0-7.474,14.777C354.343,518.046,355.99,534.985,353.081,551.292Z" transform="translate(-186.996 -250.944)"/><path class="d" d="M402.252,678.418a2.826,2.826,0,0,1,2.638,1.418,6.845,6.845,0,0,1,.858,3.05,16.247,16.247,0,0,1-1.509,9.146,9.943,9.943,0,0,1-7.2,5.375q2.735-.181,5.432-.181c1,3.171-.624,6.51-2.2,9.444a11.679,11.679,0,0,0,3.574-4.85,11.983,11.983,0,0,1,1.422-3.162,2.371,2.371,0,0,1,3.033-.786,3.34,3.34,0,0,1,1.092,2.148q.638,2.79,1.285,5.608a17.166,17.166,0,0,1-.918-6.142,24.376,24.376,0,0,1,1.078-4.459c2-7.1,1.436-14.707-.055-21.937a6.9,6.9,0,0,1-8.887,4.868Z" transform="translate(-214.879 -360.146)"/><path class="d" d="M379.444,685.863l-5.047,5.826c-.693.8-1.431,1.767-1.23,2.79a3.26,3.26,0,0,0,.973,1.553,26.008,26.008,0,0,0,5.918,4.65c-1.633-.93-4.643-1.465-6.162-.056-2.175,2.023-.509,6.872-.262,9.341.8,8.053,1.009,16.274-.8,24.211a170.914,170.914,0,0,0-3.551-31.53c-1.661-7.984-3.909-16.111-2.666-24.179a58.531,58.531,0,0,0,2.367,10.75,1.7,1.7,0,0,0,2.615,1.265c3.069-.874,6.542-2.092,7.735-5.087Z" transform="translate(-198.219 -363.025)"/><path class="d" d="M369.8,755.561l2.794,17.176c1.638,10.053,3.271,20.333,1.5,30.363a56.229,56.229,0,0,0-2.89-17.739c-.138-.414-.344-.888-.766-.986-.679-.153-1.074.744-1.174,1.441a51.773,51.773,0,0,0-.574,8.509c-3.67-13.224-1.794-27.322.78-40.806a14.807,14.807,0,0,0,.748,4.738Z" transform="translate(-198.43 -403.178)"/><path class="d" d="M411.626,750.06c2,24.007-4.327,47.855-10.341,71.183a34.416,34.416,0,0,0-1.454,8.6,11.7,11.7,0,0,0,2.808,8.049c-1.964-25.857,12.823-50.4,12.915-76.335a68.072,68.072,0,0,0-3.074-20.459q.06,4.329.119,8.667Z" transform="translate(-216.389 -396.533)"/><path class="d" d="M376.609,918.173a13.841,13.841,0,0,0,1.679,5.58,5.68,5.68,0,0,0,4.758,2.883,5.3,5.3,0,0,0-5.373,4.529l-3.427-10.848a10.405,10.405,0,0,1-.711-4.282c.165-1.362.858-2.613,1.041-3.976.234-1.753-.408-3.5-.482-5.263-.1-2.278.748-4.468,1.23-6.691,1.8-8.37-1.6-17.032-.83-25.574a164.32,164.32,0,0,0,4.533,17.632c.509,1.516,1.156,3.129,2.505,3.957s3.569.288,3.8-1.3c-.578,3.971-1.3,7.635.395,11.527a5.756,5.756,0,0,1,.89,3.143,6.654,6.654,0,0,0-5.047-1.307C376.278,909.045,376.021,913.806,376.609,918.173Z" transform="translate(-202.137 -467.922)"/><path class="d" d="M407.441,981.258a2.221,2.221,0,0,1,.78,1.07,1.783,1.783,0,0,1-.688,1.767,4.554,4.554,0,0,1-1.808.777,24.863,24.863,0,0,1-8.552.6,2.548,2.548,0,0,0-.775,0,2.6,2.6,0,0,0-.711.307q-1.239.7-2.487,1.395c5.322.1,10.768.186,15.824-1.5.679-.228,1.464-.637,1.491-1.358a1.866,1.866,0,0,0-.693-1.269q-2.032-2.093-4.18-4.069Z" transform="translate(-212.801 -523.805)"/><path class="e" d="M391.258,952.374a38.806,38.806,0,0,1,6.588,11.652,14.272,14.272,0,0,0-5.666,2.26,4,4,0,0,1-2.1.93c-1,0-1.835-.846-2.849-.874a2.67,2.67,0,0,1-.963-.056,1.47,1.47,0,0,1-.578-.539,17.079,17.079,0,0,1-2.826-6.091,7.291,7.291,0,0,1-.211-2.981,5.864,5.864,0,0,1,1.376-2.706,6.4,6.4,0,0,1,4.267-2.362,4.567,4.567,0,0,1,4.262,2.083Z" transform="translate(-207.055 -509.149)"/><path class="e" d="M399.968,494.12c4.4,8.793,3.569,19.25,3.611,28.991a187.71,187.71,0,0,1-2.945,33.943,23.922,23.922,0,0,1-2.638,8.3,25.448,25.448,0,0,1-5.634,5.891l-13.879,11.662c-3.28-26.039-2.326-53.286,8.121-77.288a23.9,23.9,0,0,1,4.822-7.779c2.193-2.134,5.35-3.483,8.314-2.79Z" transform="translate(-203.929 -264.393)"/><path class="e" d="M396.377,687.208c1.491-.107,2.367,1.72,2.386,3.255.046,3.873-2.624,7.165-5.148,10.076A3.108,3.108,0,0,1,392,701.72a2.682,2.682,0,0,1-1.482-.274,14.966,14.966,0,0,1-3.1-1.716,2.169,2.169,0,0,1-1.092-1.544c-.023-.856.826-1.4,1.482-1.948,1.771-1.437,2.652-3.678,3.845-5.631s3.088-3.836,5.345-3.678Z" transform="translate(-209.082 -367.546)"/><path class="e" d="M393.948,727.037a2.6,2.6,0,0,1,2.721-.549,10.956,10.956,0,0,1-2.918,5.389,3.963,3.963,0,0,1-2.106,1.26c-1.913.3-3.363-1.655-4.331-3.362-.569-1-1.119-2.325-.4-3.213s2.092-.614,3.147-.223a7.476,7.476,0,0,0,3.179.721,2.4,2.4,0,0,0,2.294-1.99Z" transform="translate(-209.214 -387.957)"/><path class="e" d="M394.14,814.731c-.509,2.1-2.023,4.785-4.005,3.985a243.656,243.656,0,0,0,1.542-34.757c-.055-1.93-.174-3.99-1.3-5.538l-1.789,3.669a169.838,169.838,0,0,1,.665-39.058c-.055.391,7.088-1.86,7.712-2.227,2.065-1.181,3.56-2.939,5.726-1.158,2.083,1.711,1.615,6.57,1.477,8.923-.4,6.714-.532,13.484-1.184,20.189C401.477,784.34,397.806,799.587,394.14,814.731Z" transform="translate(-209.86 -395.35)"/><path class="j" d="M407.28,568.13c6.91.1,6.955-1.86,9.125-8.049a114.729,114.729,0,0,0,3.446-11.9,131.973,131.973,0,0,0,3.212-25.881,190.357,190.357,0,0,0-1.087-25.309c-.436-4.236-.968-8.463-1.551-12.685-.555-4.017-.858-8.221-2.074-12.089l-.918-2.892a2.236,2.236,0,0,1-.115-1.488,2.559,2.559,0,0,1,.844,1.251c3.037,7.393,3.7,16.163,4.588,24.076a199.129,199.129,0,0,1,1.276,25.081q-.078,5.733-.532,11.452a114.787,114.787,0,0,1-5.047,26.676c-.748,2.269-2.487,10.071-4.693,11.522-1.468.963-4.863.642-6.469.581a.177.177,0,0,1,0-.349Z" transform="translate(-220.343 -250.333)"/><path class="j" d="M360.328,656.417c-3.473-6.287-3.372-12.866-2.014-19.743,2.046-10.383,1.45-21.035,2.652-31.535a.183.183,0,0,1,.362,0,194.066,194.066,0,0,1-.954,25.769c-.459,3.934-1.812,7.691-2.179,11.625-.459,4.868.684,9.3,2.239,13.828,0,.065-.073.1-.105.046Z" transform="translate(-193.446 -323.707)"/><path class="j" d="M350.495,596.318c-3.7-20.557-10.988-41.1-8.144-62.242.055-.418.679-.237.624.177-2.858,21.207,4.992,41.29,7.685,62.042A.084.084,0,0,1,350.495,596.318Z" transform="translate(-184.933 -285.644)"/><path class="j" d="M409.729,681.94c-.8,7.826-1.418,16.316-9.662,19.892-.3.13-.573-.3-.266-.465,7.942-3.975,8.506-11.624,9.745-19.459,0-.107.193-.084.184,0Z" transform="translate(-216.3 -364.826)"/><path class="j" d="M386.323,714.529c-2.078-.66-4.065-.967-5.584-2.688a10.619,10.619,0,0,1-2.62-6.333.082.082,0,0,1,.161-.023,12.4,12.4,0,0,0,2.863,6.361c1.431,1.511,3.368,1.837,5.217,2.562C386.429,714.436,386.4,714.552,386.323,714.529Z" transform="translate(-204.64 -377.448)"/><path class="j" d="M424.566,671.62c1.459,9.165,2.253,18.4-1.042,27.243-.262.7-1.376.4-1.12-.316,3.166-9.118,1.739-17.465,1.574-26.848,0-.33.532-.423.587-.079Z" transform="translate(-228.586 -359.244)"/><path class="j" d="M372.832,885.245c-.867-3.115-2.294-6.831-1.945-10.1s2.175-5.952,2.482-9.3a46.324,46.324,0,0,0-.661-10.229c-1.528-11.625-2.579-23.546-1.271-35.268.023-.209.335-.223.335,0a281.294,281.294,0,0,0,1.707,37.2,35.352,35.352,0,0,1,.1,10.387c-.748,4.041-2.537,6.2-1.9,10.746.3,2.162.968,4.324,1.266,6.537,0,.065-.087.1-.106.028Z" transform="translate(-200.696 -438.844)"/><path class="j" d="M366.232,798.892c-2.143-16.441-9.112-35.608-.165-51.226.188-.326.647-.037.491.3-4.193,9.034-4.891,18.553-3.4,28.363,1.142,7.5,3.138,14.949,3.239,22.584,0,.107-.147.1-.161,0Z" transform="translate(-195.711 -399.97)"/><path class="j" d="M366.736,731.779c-2.62-8.37-5.047-16.967-6.841-25.574a.293.293,0,0,1,.209-.332.288.288,0,0,1,.346.179c2.569,8.37,4.588,17.1,6.322,25.7,0,0-.032.032-.037,0Z" transform="translate(-194.774 -377.681)"/><path class="j" d="M415.587,849.974c-5.473-5.278-10.094-11.331-11.392-19.106-1.6-9.667,1.835-21.166,4.129-30.488,5.675-23.249,13.429-47.353,4.06-70.755-.234-.586.762-1.014,1.009-.433,7.754,18.3,4.359,38.291-.307,56.936-2.611,10.42-5.625,20.784-7.194,31.437-.918,6.166-1.523,12.182.665,18.134,1.964,5.352,5.57,9.8,9.378,13.921a.246.246,0,0,1,0,.344.238.238,0,0,1-.34,0Z" transform="translate(-218.529 -390.014)"/><path class="j" d="M378.582,973.667c-3.212.907-4-1.595-4.492-4.315-.564-3.069-2.445-5.975-2.684-9.072-.216-2.79,1.4-5.487,1.638-8.281.032-.363.624-.516.684-.093a6.8,6.8,0,0,1-.161,3.208c-.918,3.5-1.28,5.454.17,9.086,1.064,2.66,1.032,8.774,4.781,8.974a.249.249,0,0,1,.243.218.251.251,0,0,1-.179.275Z" transform="translate(-200.996 -509.183)"/><path class="j" d="M405.3,988.144c2.445,2.023-1.078,3.669-2.789,4.082-5.671,1.367-12.709,2.13-18.311.284a.424.424,0,0,1,.11-.823c3.147-.051,6.276.465,9.442.432.684,0,12.566-.674,10.9-3.464C404.388,988.223,404.952,987.861,405.3,988.144Z" transform="translate(-207.775 -528.654)"/><path class="j" d="M396.367,987.069a3.411,3.411,0,0,1,2.753,1.944c.459.99.459,2.929-.656,3.483-.225.112-.6,0-.56-.325.115-.93.684-1.581.459-2.59a2.809,2.809,0,0,0-2.032-2.055c-.234-.074-.211-.465.055-.465Z" transform="translate(-214.408 -528.128)"/><path class="j" d="M383.3,989.421a4.206,4.206,0,0,0-.064,3.473l-1.06-.14a1.414,1.414,0,0,1,.7-.716.318.318,0,0,1,.274-.014.323.323,0,0,1,.185.2,1.562,1.562,0,0,1-.165,1.116c-.243.511-.885.27-1.055-.14a3.263,3.263,0,0,1,1.087-3.855c.05-.042.128,0,.092.07Z" transform="translate(-206.665 -529.345)"/><path class="j" d="M409.8,988.8c.459,1.056.84,3.027.069,4.008a.209.209,0,0,1-.2.053.213.213,0,0,1-.149-.146,7.823,7.823,0,0,1,.129-1.813,12.959,12.959,0,0,0-.138-2.023C409.487,988.727,409.739,988.662,409.8,988.8Z" transform="translate(-221.614 -529.019)"/><path class="j" d="M405.493,988.623a4.563,4.563,0,0,0-2.033-.149c-.56.1-1.041.423-1.592.526a.15.15,0,0,1-.175-.068.155.155,0,0,1,.024-.188c.826-1.014,2.794-.907,3.881-.516a.2.2,0,0,1,.142.251A.2.2,0,0,1,405.493,988.623Z" transform="translate(-217.386 -528.603)"/><path class="j" d="M416.444,987.514a4.06,4.06,0,0,1,1.142,3.427c-.133.725-1.3,1.153-1.335.2a.275.275,0,0,1,.137-.226.268.268,0,0,1,.262,0c.317.191.046-1.771.046-1.771a15.045,15.045,0,0,0-.518-1.469c-.06-.163.161-.256.266-.158Z" transform="translate(-225.231 -528.35)"/><path class="j" d="M414.653,987.645a6.445,6.445,0,0,0-1.188-.163,3.1,3.1,0,0,1-.881-.033.154.154,0,0,1-.032-.279,2.76,2.76,0,0,1,2.239.139C414.988,987.4,414.837,987.678,414.653,987.645Z" transform="translate(-223.234 -528.086)"/><path class="j" d="M422.556,985.931a3.953,3.953,0,0,1,1.216,4.268.541.541,0,0,1-.661.377,1.176,1.176,0,0,1-.619-.488.47.47,0,0,1,0-.5l.083-.112a.329.329,0,0,1,.367-.154c.138.051.326.177.459.209l-.661.381a4.388,4.388,0,0,0-.523-3.72c-.142-.228.161-.414.344-.27Z" transform="translate(-228.485 -527.492)"/><path class="j" d="M398.369,925.2c-.064,1.051-.275,2.083-.358,3.134s0,2.12-.133,3.166c0,.112-.188.163-.216.028a13.482,13.482,0,0,1,.592-6.342c.023-.06.119-.056.115,0Z" transform="translate(-215.139 -495.003)"/><path class="j" d="M398.526,938.024a22.171,22.171,0,0,1,3.134,5.58c.762,1.73,1.753,3.552,1.886,5.454a.249.249,0,0,1-.459.125c-1.225-1.679-1.776-3.906-2.615-5.8a36.611,36.611,0,0,1-2.156-5.24.126.126,0,0,1,.058-.14.123.123,0,0,1,.148.019Z" transform="translate(-215.567 -501.871)"/><path class="j" d="M376.286,787.249a200.176,200.176,0,0,0-5.767-37.733c-.161-.642.83-.93.982-.274a184.2,184.2,0,0,1,4.877,38.007.046.046,0,0,1-.092,0Z" transform="translate(-200.517 -400.691)"/><path class="j" d="M424.132,744.24a44.021,44.021,0,0,0-.041-7.086c-.239-2.353-1.17-4.65-1.22-6.975a.348.348,0,0,1,.255-.327.342.342,0,0,1,.382.155c2.12,3.883,1.6,10.053.941,14.279-.032.181-.326.14-.317-.042Z" transform="translate(-228.858 -390.509)"/><path class="j" d="M382.991,692.867a17.117,17.117,0,0,1-4.423,4.185c-1.454.93-3.4,2.041-5.152,2.069a.3.3,0,0,1-.273-.22.3.3,0,0,1,.126-.329c1.583-.856,3.372-1.186,4.95-2.13a20.464,20.464,0,0,0,4.629-3.72c.087-.1.225.047.142.149Z" transform="translate(-201.941 -370.633)"/><path class="j" d="M404.85,723.4a15.7,15.7,0,0,0,2.028-2.357c.2-.265,1.4-1.99,1.2-1.465-.307.772-.376.721-.3-.13.124-1.339.785-2.692.918-4.092a70.018,70.018,0,0,1,1.376-8.137.133.133,0,0,1,.257.037c-.119,2.553-.734,5.054-.973,7.6a12.214,12.214,0,0,1-1.62,5.682c-.156.246-.6.093-.486-.2.161-.465.321-.888.459-1.334.115-.311.6-.181.5.139a8.393,8.393,0,0,1-3.212,4.482c-.128.088-.284-.116-.17-.223Z" transform="translate(-219.07 -378.36)"/><path class="j" d="M302.953,141.63c.11,5.705-1.61,10.746-2.39,16.274a.164.164,0,0,0,.112.2.162.162,0,0,0,.2-.114c1.615-5.068,3.088-11.066,2.23-16.4,0-.084-.151-.065-.151.023Z" transform="translate(-162.662 -75.751)"/><path class="j" d="M273.671,158.326c-4.423,5.208-10.346,4.715-16.237,6.807a20.65,20.65,0,0,0-9.3,6.626c-.275.349.174.842.5.507,4.9-5.068,9.938-6.51,16.517-8.216,3.533-.93,6.832-2.264,8.676-5.608.05-.088-.078-.2-.147-.116Z" transform="translate(-134.242 -84.719)"/><path class="j" d="M439.2,257.933c-3.046-1.423-7.4-2.529-10.525-.7a.332.332,0,0,0-.148.371.326.326,0,0,0,.313.243c1.647-.116,3.184-.665,4.859-.7a16.112,16.112,0,0,1,5.478.856.032.032,0,0,0,.038-.02.033.033,0,0,0-.015-.041Z" transform="translate(-231.912 -137.141)"/><path class="j" d="M253.443,193.52c2.661,8.565-5.2,13.786-8.992,20.287-.073.13.115.293.22.167,4.588-5.389,12.044-12.8,9.139-20.557C253.723,193.19,253.351,193.279,253.443,193.52Z" transform="translate(-132.289 -103.44)"/><path class="j" d="M284.276,266.585c-3.152,2.52-5.932,5.649-9.41,7.719-4.4,2.622-10.006,2.79-14.948,2.116-4.418-.623-7.772-1.567-9.7-5.64-2.12-4.459-3.436-9.225-5.244-13.805a.357.357,0,0,0-.431-.227.363.363,0,0,0-.257.417c.968,4.966,2.858,12.178,5.992,16.33,2.184,2.9,5.928,3.6,9.41,4.1,11.186,1.59,17.343-3.329,25.234-10.35.459-.4-.193-1.014-.647-.656Z" transform="translate(-132.203 -137.386)"/><path class="j" d="M337.6,250.344c.156-1.293.3-.716-.459-1.767-.023-.033-.092-.028-.087.028.5,4.375.165,8.37,1.886,12.605a28.1,28.1,0,0,0,7.878,11,.288.288,0,0,0,.411,0,.3.3,0,0,0,0-.416c-2.753-3.585-5.565-6.835-7.281-11.08a34.229,34.229,0,0,1-1.711-7.258c.1.553-.537-4.506-.656-3.115Z" transform="translate(-182.412 -133.011)"/><path class="j" d="M392.761,258.038c-5.57,4.8-6.478,12.038-12.411,16.846-2.445,1.985-4.129,3.529-7.143,3.664-4.772.219-9.933-1.032-14.6-1.911-.307-.056-.459.4-.133.465a70.518,70.518,0,0,0,12.617,2.241c4.207.344,4.189.367,7.488-1.958a29.559,29.559,0,0,0,7.162-6.677c2.909-4.036,3.51-8.941,7.263-12.438.17-.153-.073-.4-.243-.251Z" transform="translate(-193.909 -138.05)"/><path class="j" d="M419.119,295.709a54,54,0,0,0,6.056-23.816.271.271,0,0,0-.541,0A121.44,121.44,0,0,1,419,295.667c0,.06.078.1.105.042Z" transform="translate(-226.764 -145.353)"/><path class="j" d="M415.25,321.232c-.078,9.6-.918,18.6-4.07,27.722-.115.321.395.465.5.139,3.028-8.835,4.794-18.478,3.8-27.861A.115.115,0,0,0,415.25,321.232Z" transform="translate(-222.523 -171.834)"/><path class="j" d="M408,366.648a216.908,216.908,0,0,1,4.239,30.912.568.568,0,0,0,1.133,0c.078-10.146-1.459-21.51-5.047-31a.16.16,0,0,0-.19-.094.163.163,0,0,0-.118.178Z" transform="translate(-220.811 -196.094)"/><path class="j" d="M253.465,404.242c.647-4.561.431-9.174,1.124-13.763s2.165-9.03,2.936-13.6c.069-.432-.537-.786-.757-.321-3.611,7.579-5.262,19.413-3.556,27.685C253.241,404.363,253.447,404.372,253.465,404.242Z" transform="translate(-136.674 -201.377)"/><path class="j" d="M248.98,333.448c.271-15,1.684-32.144-8.107-44.726-.459-.614-1.3.163-1,.781,3.34,6.975,6.91,13.68,7.57,21.593.615,7.44.262,14.907,1.06,22.351a.243.243,0,0,0,.482,0Z" transform="translate(-129.785 -154.38)"/><path class="j" d="M262.587,377.152a3.916,3.916,0,0,1,2.533.986c.2.158.431-.135.326-.33a2.324,2.324,0,0,0-2.9-.958C262.394,376.906,262.4,377.161,262.587,377.152Z" transform="translate(-142.033 -201.553)"/><path class="j" d="M401.285,369.905a.31.31,0,0,0,.069-.214.307.307,0,0,0,.28-.163,2.529,2.529,0,0,1,1.165-1.023c.367-.149.835-.084,1.161-.321a.223.223,0,0,0,.1-.161.225.225,0,0,0-.058-.183c-.39-.442-1.124-.209-1.578,0a2.651,2.651,0,0,0-1.376,1.362.348.348,0,0,0,.05.4c-.037-.033-.069.391-.055.246,0,.112.174.163.216.06Z" transform="translate(-217.028 -196.696)"/><path class="j" d="M329.471,398.361c.275-.084.615-.107.918-.181a4.526,4.526,0,0,1,1.119-.153c.569,0,1.1.223,1.638,0a.328.328,0,0,0,.119-.442c-.4-.637-1.321-.623-1.987-.577a4.579,4.579,0,0,0-1.156.214,2.948,2.948,0,0,0-.885.553c-.284.2-.128.725.248.6Z" transform="translate(-178.105 -212.425)"/><path class="j" d="M278.607,381.962c4.675,6.342,7.387,13.4,10.974,20.319.165.321.633.093.56-.237-1.693-7.509-6.653-14.363-11.42-20.171C278.671,381.809,278.561,381.9,278.607,381.962Z" transform="translate(-150.777 -204.326)"/><path class="j" d="M369.306,396.908c3.248-5.04,6.928-9.7,10.277-14.651.138-.209-.165-.418-.335-.26-4.2,3.962-7.694,9.574-10.2,14.754a.156.156,0,0,0,.053.212A.151.151,0,0,0,369.306,396.908Z" transform="translate(-199.716 -204.374)"/><path class="j" d="M291.1,360.048c5.859,2.13,15.333,2.967,18.329-4.069.06-.139-.129-.26-.206-.121-3.9,6.724-11.745,5.733-18.1,4.129a.032.032,0,0,0-.037.01.033.033,0,0,0,0,.039.032.032,0,0,0,.037.011Z" transform="translate(-157.53 -190.387)"/><path class="j" d="M324.219,336.19a44.992,44.992,0,0,1,2.854,9.964c.032.144.239.1.243-.033a17.9,17.9,0,0,0-2.978-10,.068.068,0,0,0-.094-.026A.07.07,0,0,0,324.219,336.19Z" transform="translate(-175.463 -179.84)"/><path class="j" d="M344.56,332.041c-1.574,4.185-2.395,9.476.991,13,3.124,3.255,8.079,2.013,11.75.4.092-.042.023-.2-.073-.167-4.065,1.13-8.717,2.864-11.855-1.111-2.826-3.557-1.629-8.063-.688-12.089a.066.066,0,0,0-.044-.081.064.064,0,0,0-.08.044Z" transform="translate(-185.738 -177.649)"/><path class="j" d="M341.449,309.351a9.12,9.12,0,0,0,2.611,8.267c.087.074.248-.023.174-.135a12.424,12.424,0,0,1-2.643-8.114.071.071,0,0,0-.142,0Z" transform="translate(-184.724 -165.51)"/><path class="j" d="M348.151,325.136a24.324,24.324,0,0,0,9.984-1.66.135.135,0,0,0,.09-.164.133.133,0,0,0-.159-.1c-3.331.716-6.529,1.325-9.915,1.73a.1.1,0,0,0,0,.191Z" transform="translate(-188.379 -172.953)"/><path class="j" d="M299.047,333.992a17.9,17.9,0,0,0,10.851,0,.112.112,0,0,0,.067-.134.11.11,0,0,0-.126-.079,29.856,29.856,0,0,1-10.773.172c-.041,0-.06.051,0,.06Z" transform="translate(-161.834 -178.605)"/><path class="j" d="M325.036,309.435c-1.119,4.185.115,9.044-4.588,11.266-.11.051-.032.233.087.2,4.547-1.237,4.707-7.579,4.643-11.443a.082.082,0,0,0-.161-.023Z" transform="translate(-173.399 -165.552)"/><path class="j" d="M341.024,373.345a25.441,25.441,0,0,0-.05,5.482.11.11,0,1,0,.22,0,25.764,25.764,0,0,0-.046-5.482.064.064,0,0,0-.124,0Z" transform="translate(-184.469 -199.75)"/><path class="j" d="M340.252,385.1a23.4,23.4,0,0,0,2.656,2.79.15.15,0,0,0,.194-.017.155.155,0,0,0,.017-.2,23.005,23.005,0,0,0-2.753-2.711.091.091,0,0,0-.12.009.094.094,0,0,0-.009.122Z" transform="translate(-184.128 -205.984)"/><path class="j" d="M327.288,370.822c.918,3.213,1.629,6.658-1.835,8.528-.941.507-2.124.986-1.977,2.241a.11.11,0,1,0,.22,0c.142-1.627,2.211-1.916,3.184-2.79a4.211,4.211,0,0,0,1.014-1.418c.968-2.134.229-4.524-.5-6.593-.027-.074-.138-.046-.115.028Z" transform="translate(-175.059 -198.385)"/><path class="k" d="M253.447,435.55c12.089,2.906,24.968,3.8,37.36,3.687,12.163-.112,25.693-.674,37.337-4.473.5-.158.459-1.023-.128-.967-12.479,1.265-24.587,3.813-37.209,4.05s-24.8-1.167-37.3-2.729C253.259,435.085,253.208,435.494,253.447,435.55Z" transform="translate(-137.082 -232.117)"/><path class="k" d="M248.653,435.757c-1.06,3.4-1.835,6.91-2.7,10.374-.578,2.325-1.876,4.868-1.165,7.263a.293.293,0,0,0,.574-.079c.22-5.729,2.964-11.7,4.051-17.348a.4.4,0,0,0-.286-.449A.393.393,0,0,0,248.653,435.757Z" transform="translate(-132.366 -233.032)"/><path class="k" d="M418.048,434.18c.707,2.6,2.014,5,2.789,7.588s.968,5.389,1.895,7.9a.362.362,0,0,0,.711-.1c.294-2.818-.725-5.97-1.6-8.63a22.459,22.459,0,0,0-3.262-7.058c-.211-.26-.615,0-.537.312Z" transform="translate(-226.244 -232.11)"/><path class="j" d="M366.195,161.579c.083-5.529-.459-11.034-.307-16.586,0-.163-.257-.2-.284-.042a49.221,49.221,0,0,0,.5,16.641.046.046,0,1,0,.092,0Z" transform="translate(-197.6 -77.524)"/><path class="j" d="M316.706,160.119a61.847,61.847,0,0,0,7.653,15.1c.06.084.2,0,.142-.088a99.162,99.162,0,0,1-7.7-15.037C316.779,160.031,316.683,160.059,316.706,160.119Z" transform="translate(-171.4 -85.661)"/><path class="j" d="M273.667,190.671c8.667,1.432,16.976,4.478,25.587,6.045a.142.142,0,0,0,.151-.106.145.145,0,0,0-.078-.169c-8.024-2.66-17.219-5.18-25.656-5.821a.026.026,0,0,0,0,.051Z" transform="translate(-148.099 -102.013)"/><path class="j" d="M329.33,203.388a12.538,12.538,0,0,1,1.376,2.13c.381.767.564,1.586.89,2.371.046.107.216.107.211-.028a7.108,7.108,0,0,0-2.344-4.617.1.1,0,0,0-.145,0,.1.1,0,0,0,0,.146Z" transform="translate(-178.211 -108.75)"/><path class="j" d="M339.044,207.326a18.018,18.018,0,0,0,1.142-4.087.135.135,0,0,0-.1-.127.132.132,0,0,0-.148.062,18.153,18.153,0,0,0-.959,4.134.032.032,0,1,0,.064,0Z" transform="translate(-183.457 -108.694)"/><path class="j" d="M341.93,197.34c8.3,1.339,15.342-5.552,23.775-4.585.243.028.294-.381.055-.432-8.226-1.795-15.544,5.008-23.812,4.85a.084.084,0,0,0,0,.167Z" transform="translate(-185.021 -102.763)"/><path class="j" d="M366.694,151.326c1.881,3.817,4.267,6.277,8.364,7.467,7.254,2.106,12.979,4.361,18.4,9.96.161.167.381-.074.243-.251a25.976,25.976,0,0,0-11.011-7.9c-2.459-1-5-1.483-7.524-2.241-4.06-1.214-6.189-3.529-8.35-7.1a.082.082,0,0,0-.1-.013.084.084,0,0,0-.036.1Z" transform="translate(-198.444 -80.942)"/><path class="j" d="M289.664,112.005c4.588,9.048,14.916,20.687,26.257,18.371,9.933-2.032,16.384-16.474,19.173-25.016.055-.172-.22-.3-.294-.126-3.726,8.732-8.589,21.44-18.517,24.132-11.195,3.032-21.724-8.481-26.509-17.427a.064.064,0,0,0-.083-.017.066.066,0,0,0-.027.082Z" transform="translate(-156.764 -56.286)"/><path class="l" d="M272.152,57.151c-8.02-2.06-9.135-12.215-10.773-19.138a.264.264,0,0,0-.152-.173.258.258,0,0,0-.228.015c-.7.535-.115-1.59-.069-1.772a27.7,27.7,0,0,1,1.248-4.017c1.913-4.324,5.125-7.839,6.74-12.326s2.684-8.37,6.547-11.392c3.354-2.613,9.864-5.078,13.718-2.325l.5-.711c-.73.046-1.5-.549-2.216-.73a11.279,11.279,0,0,0-2.707-.312,14.357,14.357,0,0,0-5.428,1.176,17.811,17.811,0,0,0-8.217,6.868c-2.8,4.506-3.432,9.867-6.556,14.363-2.7,3.883-4.4,7.291-4.629,12.127a.266.266,0,0,0,.131.227.259.259,0,0,0,.259,0c.6-.465,2.464,7.021,2.689,7.774a30.866,30.866,0,0,0,2.565,6.477c2.051,3.627,3,3.464,6.46,4.31a.226.226,0,0,0,.278-.16A.229.229,0,0,0,272.152,57.151Z" transform="translate(-140.675 -2.311)"/><path class="l" d="M352.149,55.292a1.487,1.487,0,0,0-.459.349,13.282,13.282,0,0,0-2.078,3.2,12.654,12.654,0,0,0-2.184-4.724c-2.193-3.255-6.373-5.236-9.988-6.254l.619,1.72a58.783,58.783,0,0,0-7.717-2.13c-5.409-1.107-9.4-3.827-10.933-9.486a.342.342,0,0,0-.67.093c.592,10.383,12.58,9.388,19.384,12.629a.526.526,0,0,0,.581-.043.543.543,0,0,0,.194-.557c-.363-1.488-.8-1.148,1.794-.037a14.208,14.208,0,0,1,8.167,10.281.5.5,0,0,0,.959,0,12.444,12.444,0,0,1,1.326-2.953c.491-.772,2.115-1.539,2.808-.372-.216-.358-.317-.777-.523-1.139a1.129,1.129,0,0,0-.977-.67A.772.772,0,0,0,352.149,55.292Z" transform="translate(-172.502 -20.213)"/><path class="g" d="M326.624.728c-1.964.749-3.9,1.818-4.822,3.827-1.326,2.869-.945,6.975-.711,10.011a.037.037,0,1,0,.073,0c.239-5.529-.711-11.159,5.565-13.452.234-.088.133-.465-.106-.386Z" transform="translate(-173.648 -0.41)"/><path class="f" d="M361.207,47.289c-.138.391-.28.781-.413,1.176a32.467,32.467,0,0,1-1.138,4.055c1.5-2.9,2.991-5.812,4.262-8.835.321-.763,1.5-3.278,2.294-3.255.459,0,.94.209,1.376,0,.5-.223.642-.86.7-1.395.5-4.873-.945-9.644-2.679-14.1a31.322,31.322,0,0,0-8.015-11.82C351.352,7.436,342.419-1.98,333.275.3c-.243.06-.142.428.1.377,7.341-1.627,12.3,3.655,17.549,7.8,3.244,2.557,6.648,5.054,9.332,8.244a32.668,32.668,0,0,1,6.423,14.1c.216.976,2.578,10.49-.876,8.337a.272.272,0,0,0-.266,0c-1.9,1.13-2.831,3.683-3.5,5.691C361.781,45.68,361.492,46.471,361.207,47.289Z" transform="translate(-180.294 0)"/><path class="l" d="M301.4,44.31c-4.772,3.436-9.594,4.859-15.182,6.221a.469.469,0,0,0,.124.93,22.352,22.352,0,0,0,15.172-6.975c.069-.079,0-.219-.115-.153Z" transform="translate(-154.685 -23.734)"/><path class="l" d="M285.165,59.209a25.643,25.643,0,0,0-1.335,10.629,27.855,27.855,0,0,0,.945,5.319c.459,1.632,1.376,3.125,1.762,4.775a46.075,46.075,0,0,1-1.009-20.622.191.191,0,0,0-.131-.235A.188.188,0,0,0,285.165,59.209Z" transform="translate(-153.559 -31.631)"/><path class="j" d="M274.067,89.672a3.464,3.464,0,0,0-1.207,4.282,13.412,13.412,0,0,0,1.675,2.79,37.465,37.465,0,0,1,2.23,4.12c.918,1.809,4.7,5.38,5.244,1.339a.191.191,0,0,0-.112-.212.187.187,0,0,0-.227.067c-2.34,3.4-4.528-1.953-5.3-3.459-1.459-2.836-4.872-5.264-2.083-8.723a.156.156,0,0,0,0-.219.151.151,0,0,0-.216,0Z" transform="translate(-147.517 -47.972)"/><path class="j" d="M385.012,95.323c1.152.837,2.028.284,2.661-.93.807-1.53.615-3.511,1.376-5.115a17.965,17.965,0,0,0,1.656-3.631c.679-2.683.633-9.1-3.542-7.835-.119.037-.105.251.032.237,5.129-.567,3.4,7.309,2.188,9.881-.642,1.367-2.523,8.123-4.326,7.268a.064.064,0,0,0-.069-.006.065.065,0,0,0,0,.118Z" transform="translate(-208.339 -41.571)"/><path class="j" d="M318.865,123.084c5.354,1.344,11.374.5,16.714-.535.307-.056.179-.521-.124-.465a71.781,71.781,0,0,1-16.576.883c-.064,0-.073.1,0,.116Z" transform="translate(-172.55 -65.343)"/><path class="j" d="M331.969,130.376c1.317.042,2.363-.684,3.748-.284a3.443,3.443,0,0,0,1.046.232.741.741,0,0,0,.647-.349c-.491-.763-1.876-.4-2.652-.349a11.4,11.4,0,0,0-2.89.465C331.671,130.167,331.786,130.371,331.969,130.376Z" transform="translate(-179.552 -69.31)"/><path class="m" d="M356.314,83.622a1.788,1.788,0,0,0-.193,1.455,2.206,2.206,0,0,0,.647,1.311l.7.372,1.578-.2a2.894,2.894,0,0,0,.918-1.055,3.768,3.768,0,0,0,.142-1.544l-.592-1.111-1.886-.2S356.456,82.906,356.314,83.622Z" transform="translate(-192.693 -44.247)"/><path class="n" d="M357.525,88.862a2.555,2.555,0,0,1-1.018-.86c-.17-.312-.395-.79-.055-1.069a.558.558,0,0,1,.587-.065c.239.121.362.391.532.6a.885.885,0,0,0,.785.339c.183-.033.353-.144.532-.112a.463.463,0,0,1,.335.4c.087.735-1.06,1.042-1.574.823Z" transform="translate(-192.817 -46.473)"/><path class="o" d="M359.766,84.808a1.917,1.917,0,0,1-.069.535,2.185,2.185,0,0,1-.807,1.181,2.237,2.237,0,0,1-2.1.3,2.184,2.184,0,0,1-1.051-.735,2.105,2.105,0,0,1,0-2.506,2.2,2.2,0,0,1,1.032-.763,2.269,2.269,0,0,1,2.1.3,2.186,2.186,0,0,1,.807,1.181A1.88,1.88,0,0,1,359.766,84.808Zm0,0a1.784,1.784,0,0,0-.087-.525,1.827,1.827,0,0,0-.867-1.074,1.911,1.911,0,0,0-2.565.651,1.813,1.813,0,0,0-.271.967,1.879,1.879,0,0,0,.266.93,2.029,2.029,0,0,0,.734.679,1.937,1.937,0,0,0,.959.219,2.026,2.026,0,0,0,.885-.246,1.827,1.827,0,0,0,.867-1.074,1.8,1.8,0,0,0,.078-.525Z" transform="translate(-192.305 -44.266)"/><path class="p" d="M360.281,85.887a1.074,1.074,0,1,1-.982-1.172A1.078,1.078,0,0,1,360.281,85.887Z" transform="translate(-193.825 -45.35)"/><path class="q" d="M363.2,83.841a1.025,1.025,0,0,1-.424,1.1.994.994,0,0,1-1.167-.049,1.027,1.027,0,0,1-.333-1.135,1.006,1.006,0,0,1,.951-.687A.888.888,0,0,1,363.2,83.841Z" transform="translate(-195.492 -44.471)"/><path class="q" d="M363.27,86.934c0,.191-.225.339-.5.339s-.5-.149-.5-.339.225-.344.5-.344S363.27,86.743,363.27,86.934Z" transform="translate(-196.062 -46.355)"/><path class="r" d="M358.975,89.442c0,.093-.115.172-.252.172s-.252-.079-.252-.172.11-.172.252-.172S358.975,89.344,358.975,89.442Z" transform="translate(-194.005 -47.788)"/><path class="a" d="M348,80.639c1.344-1.121,3.014-2.516,4.8-2.655a12.5,12.5,0,0,1,3.505.279,5.518,5.518,0,0,1,2.45,1.86,3.541,3.541,0,0,0,1.129-3.971,2.6,2.6,0,0,0-.716-.883,6.034,6.034,0,0,0-4.542-1.241,10.71,10.71,0,0,0-4.482,1.73c1.918-.656,4.538-1.218,6.487-.372a.252.252,0,0,1,.2.335,6.239,6.239,0,0,1-.349,1.023.257.257,0,0,1-.3.2,14.91,14.91,0,0,0-3.377.121A7.547,7.547,0,0,0,348,80.639Z" transform="translate(-188.339 -39.604)"/><path class="j" d="M347.053,85.468c1.72-1.2,3-2.706,5.272-2.734A9.673,9.673,0,0,1,358,84.762c.248.177.518-.2.317-.414A7.42,7.42,0,0,0,346.989,85.4c-.032.042.028.1.069.07Z" transform="translate(-187.787 -43.996)"/><path class="j" d="M326.579,106.342c2.7,1.758,6.552,1.362,9.263-.13.289-.158.037-.581-.252-.465-3.079,1.544-5.763,1.321-8.979.493a.042.042,0,0,0-.055.023.043.043,0,0,0,.023.056Z" transform="translate(-176.732 -56.593)"/><path class="j" d="M327,103.477a1.313,1.313,0,0,0-.39,1.665.141.141,0,0,0,.158.06.144.144,0,0,0,.1-.135,4.81,4.81,0,0,1,.243-1.5A.08.08,0,0,0,327,103.477Z" transform="translate(-176.68 -55.384)"/><path class="j" d="M344.314,100.292a9.825,9.825,0,0,1,.67,1.53,8.345,8.345,0,0,0,.248,1.325c.06.126.22.065.266-.037a2.382,2.382,0,0,0-.243-1.572,2.869,2.869,0,0,0-.89-1.288C344.333,100.25,344.3,100.25,344.314,100.292Z" transform="translate(-186.341 -53.663)"/><path class="j" d="M371.557,114.265c.5-.874.945-1.767,1.4-2.66a19.046,19.046,0,0,0,1.2-2.39c.055-.163-.17-.228-.252-.107a22.925,22.925,0,0,0-2.441,5.115c0,.051.06.084.087.037Z" transform="translate(-201.041 -58.369)"/><path class="j" d="M375,103.288a9.524,9.524,0,0,0,.968,2.832.1.1,0,0,0,.126.053.1.1,0,0,0,.053-.128,9.461,9.461,0,0,0-1.06-2.79c0-.051-.1,0-.087.037Z" transform="translate(-202.95 -55.259)"/><path class="j" d="M311.526,122.857a14.636,14.636,0,0,1,.858-2.013c.39-.637.954-1.088,1.376-1.688.083-.112-.069-.228-.17-.172a5.246,5.246,0,0,0-2.271,3.817C311.32,122.9,311.481,122.959,311.526,122.857Z" transform="translate(-168.487 -63.678)"/><path class="s" d="M360.1,90.944a16.1,16.1,0,0,0-2.918.037c-1.253.112-2.537.074-3.781.228-.128,0-.184.219-.032.256,2.253.535,4.487-.521,6.731-.465.027,0,.027-.037,0-.042Z" transform="translate(-191.197 -48.658)"/><path class="j" d="M344.659,177.034c1.551-1.116,2.294-2.818,3.078-4.529a47.008,47.008,0,0,0,2.854-7.323c.028-.121-.156-.209-.206-.088-1.748,3.92-2.629,8.779-5.8,11.838A.063.063,0,0,0,344.659,177.034Z" transform="translate(-186.48 -88.325)"/><path class="k" d="M351.277,501.216c-2.216,5.45-6.12,9.388-9.208,14.275-.367.586.546,1.121.918.544,2.991-4.65,7.74-9.053,8.823-14.67a.279.279,0,0,0-.2-.316.274.274,0,0,0-.33.167Z" transform="translate(-185.083 -268.095)"/><path class="j" d="M333.036,266.331a13.515,13.515,0,0,0-.918,5.654.22.22,0,0,0,.427.06,14.583,14.583,0,0,0,.615-2.962,9.89,9.89,0,0,0,.151-2.678c0-.126-.2-.228-.271-.074Z" transform="translate(-179.733 -142.479)"/><path class="j" d="M409.135,193.466a39.448,39.448,0,0,0,1.771,11.513.069.069,0,0,0,.085.049.07.07,0,0,0,.048-.086,69.579,69.579,0,0,1-1.661-11.476.124.124,0,1,0-.248,0Z" transform="translate(-221.422 -103.468)"/><path class="j" d="M412.44,217.886a80.841,80.841,0,0,0,7.8,13.233c.05.074.165,0,.119-.07-2.629-4.357-4.992-9.021-7.8-13.238a.073.073,0,0,0-.092-.014.075.075,0,0,0-.032.089Z" transform="translate(-223.209 -116.548)"/><path class="j" d="M325.7,87.367c1.876-.414,1.184-2.911.982-4.231-.188-1.209-.183-2.553-.954-3.548a8.443,8.443,0,0,0-3.175-2.185c-.262-.121-.491.246-.234.4,1.615.93,3.253,1.86,3.67,3.85.294,1.483,1.454,4.7-.312,5.612a.056.056,0,0,0-.023.069.055.055,0,0,0,.065.033Z" transform="translate(-174.379 -41.426)"/><path class="d" d="M115.4,262.74a25.393,25.393,0,0,1-3.826,9.007,22.346,22.346,0,0,1-6.153,6.459s-4.354,12.131-7.8,15.442-6.529,6.412-6.529,6.412l-6.35,4.413a5.91,5.91,0,0,1-3.992.186,29.322,29.322,0,0,1-4.716-2.943s4.716,4.966,4.716,7.9S78.4,318.625,71.5,325.061,55.18,339.033,55.18,339.033s-7.621,5.7-10.158,9.555a30.066,30.066,0,0,0-2.9,4.943,14.049,14.049,0,0,1-3.987,5.882c-3.088,2.757-9.254,4.594-9.254,4.594s-6.166,3.678-6.345,3.125-9.332,5.091-9.332,5.091l-5.542,7.063L4.4,384.517s2.349,1.018,3.982-.27,4.551-5.7,4.551-5.7l2.9-2.753L13.3,382.959s1.087,1.107.546,2.209a11.857,11.857,0,0,1-1.835,2.39s2.537-.367,2.9-1.474a16.247,16.247,0,0,0,.546-2.413l4.4-5.3,1.583-3.129-.918,7.9-.362,5.147s2.354-.465,2.537-1.972a13.918,13.918,0,0,0,.119-2.409,31.933,31.933,0,0,0,2.785-6.649,19.707,19.707,0,0,1,1.5-4.436,17.232,17.232,0,0,0,3.565-3.255,27.667,27.667,0,0,0,2.5-3.855s6.423-2.976,8.947-6.286a30.174,30.174,0,0,0,3.992-8.458,77.043,77.043,0,0,1,6.565-7.672c2.322-2.069,10.484-7.584,10.484-7.584s8.346-6.617,11.066-9.56,7.8-8.835,7.8-8.835l5.625-9.927s4.06-3.3,5.928-4.961,6.951-6.621,8.763-8.644,6.547-9.727,6.547-9.727l3.735-8.835S116.306,266.232,115.4,262.74Z" transform="translate(-2.382 -140.599)"/><path class="t" d="M7.81,490.028a5,5,0,0,0,3.212-5.24,22.451,22.451,0,0,0,6.322-6.844,2.743,2.743,0,0,0,.459-2.636l13.356-6.472c5.015-2.432,10.433-5.263,12.649-10.434a10.911,10.911,0,0,1-2.615,4.571,55.043,55.043,0,0,1-4.868,3.873c-.817.683-1.569,1.437-2.322,2.19l-2.753,2.734a18.285,18.285,0,0,0-2.982,3.557c-2.4,4.143-1.569,10.15-5.281,13.136-.083-1.595-.17-3.194-.252-4.789a.825.825,0,0,0-.2-.6c-.294-.247-.716.028-.991.288l-5.533,5.264q.638-3.641,1.271-7.277c-3.836,1.279-4.822,6.817-8.547,8.4-.234.1-.518.251-.5.507s.541.037.317-.079Z" transform="translate(-4.228 -245.282)"/><path class="d" d="M219.124,258.463s1.633,5.147,1.454,7.533-5.079,13.791-5.079,13.791l5.964-10.481s.546,1.837,2.179-.367,2-2.023,3.262-5.515,1.67-5.515,1.289-6.063S222.57,256.073,219.124,258.463Z" transform="translate(-116.63 -137.424)"/><path class="d" d="M85.43,316.99s19.77-27.759,24.486-32.172,8.162-5.147,8.162-5.147,3.808-8.835,7.075-16.358,8.887-15.809,10.52-17.279a29.4,29.4,0,0,0,3.262-3.678l9.254-4.966s-8.717,3.311-9.07.553.725-8.835.725-8.835l-2.537,6.254-1.656,6.305s-4.331,4.905-6.143,9.3-6.35,13.787-6.35,13.787l-3.446,6.617s-5.441.93-11.608,9.379a202.682,202.682,0,0,0-11.25,17.46Z" transform="translate(-46.236 -122.606)"/><path class="e" d="M221.137,190.152c-5.529,1.86-9.208,7.04-12.351,12.01-1.514,2.39-3.046,4.975-3.051,7.816a4.191,4.191,0,0,0,.61,2.367,3.649,3.649,0,0,0,3.157,1.395,8.8,8.8,0,0,0,3.409-1.051c6.988-3.4,12.943-9.69,14.425-17.409.34-1.772.312-3.91-1.092-5.022a4.538,4.538,0,0,0-4.005-.414,17.564,17.564,0,0,1-4.047,1.014Z" transform="translate(-111.343 -101.457)"/><path class="e" d="M183.7,267c-5.506,4.152-8.855,10.522-11.81,16.79a115.482,115.482,0,0,0-5.12,12.364,10.115,10.115,0,0,0-.7,5.115c.344,1.725,1.794,3.292,3.5,3.176a5.134,5.134,0,0,0,2.166-.837A42.666,42.666,0,0,0,191.062,277.9a11.786,11.786,0,0,0,.459-5.012,7.06,7.06,0,0,0-8.19-5.547Z" transform="translate(-89.815 -142.878)"/><path class="j" d="M222.642,258.022a15.886,15.886,0,0,1,5.478-.842c1.661.046,3.212.586,4.859.7.33.028.431-.465.165-.614-3.134-1.832-7.474-.73-10.525.7a.033.033,0,0,0-.015.041A.032.032,0,0,0,222.642,258.022Z" transform="translate(-120.473 -137.156)"/><path class="j" d="M219.946,187.376c-15.287-.567-24.927,19.222-26.326,32.251a.436.436,0,0,0,.319.411.429.429,0,0,0,.48-.193c2.666-6.268,3.781-12.945,7.423-18.845,4.414-7.156,10.364-10.876,18.146-13.331a.149.149,0,0,0-.041-.293Z" transform="translate(-104.788 -100.271)"/><path class="j" d="M160.07,284.457c6.065-9.42,9.126-21.1,16.934-29.293a.394.394,0,0,0,.026-.5.382.382,0,0,0-.485-.111c-4.267,2.488-6.006,7.677-8.135,11.922-2.95,5.873-6.336,11.676-8.717,17.813-.087.223.252.344.372.158Z" transform="translate(-86.419 -136.193)"/><path class="j" d="M68.964,376.7c7.341-10.006,13.525-21.1,20.1-31.618,5.795-9.3,11.153-21.347,21.619-25.913.514-.223.138-1.139-.385-.93-9.176,3.72-13.874,12.922-18.893,20.966-7.657,12.285-16.127,24.425-22.853,37.254a.245.245,0,0,0,.085.332.238.238,0,0,0,.328-.086Z" transform="translate(-37.083 -170.274)"/><path class="j" d="M159.128,343.97c1.509,3.143,5.9,5.677,9.341,4.357a.186.186,0,0,0-.05-.363,11.913,11.913,0,0,1-4.909-.618,9.726,9.726,0,0,1-4.157-3.511.13.13,0,0,0-.179-.046.133.133,0,0,0-.046.181Z" transform="translate(-86.111 -183.952)"/><path class="j" d="M179.364,315.793c12.617-5.2,19.632-19.748,22.867-32.334.1-.372-.459-.651-.638-.274-2.422,5.752-4.129,11.783-7.258,17.2-3.845,6.663-9.084,10.653-15.072,15.158-.11.079-.05.3.1.242Z" transform="translate(-96.988 -151.441)"/><path class="j" d="M224.34,282.542c4.051-2.706,7.946-7.542,9.259-12.326a.158.158,0,0,0-.092-.174.155.155,0,0,0-.188.053,45.7,45.7,0,0,1-3.707,6.784,32.491,32.491,0,0,1-5.4,5.491C224.119,282.449,224.239,282.607,224.34,282.542Z" transform="translate(-121.326 -144.499)"/><path class="j" d="M161,282.015c-4.1,10.332-8.717,19.668-16.833,27.406-3.005,2.874-6.951,4.9-9.635,8.118-2.555,3.078-4.166,7.161-6.5,10.443-6.377,9-14.9,15.242-23.61,21.7-5.437,4.036-10.5,8.453-12.879,15.023-.1.26.33.465.459.191,4.092-9.439,12.447-14.168,20.247-20.092a74.561,74.561,0,0,0,18.035-19.12c3.111-4.878,5.377-8.472,9.956-12.168a66.106,66.106,0,0,0,9-8.755,64.616,64.616,0,0,0,11.929-22.709c.028-.1-.115-.13-.151-.042Z" transform="translate(-49.537 -150.882)"/><path class="j" d="M99.663,426.544A32.25,32.25,0,0,0,85.9,440.852c-.128.27.252.5.4.237a41.27,41.27,0,0,1,13.466-14.382.1.1,0,0,0,.032-.13.093.093,0,0,0-.128-.033Z" transform="translate(-46.476 -228.231)"/><path class="j" d="M1.362,469.757c13.6-4.268,18.733-20.092,31.148-26.141.39-.191.115-.818-.289-.7-5.657,1.627-9.1,6.705-12.943,10.89-5.712,6.245-10.5,11.652-18.022,15.7a.14.14,0,0,0-.06.176.137.137,0,0,0,.165.08Z" transform="translate(-0.643 -236.989)"/><path class="j" d="M.586,500.5c-1.078,1.246-.651,3.455,1.1,3.752.4.07.564-.553.165-.609-1.418-.209-1.6-1.86-1.055-2.985.064-.126-.1-.279-.206-.158Z" transform="translate(0 -267.783)"/><path class="j" d="M61.212,462.177c.459.372.945.683,1.376,1.093s.674,1,1.124,1.358a.168.168,0,0,0,.18.032.172.172,0,0,0,.1-.153,2.618,2.618,0,0,0-.982-1.669,2.766,2.766,0,0,0-1.73-.837.11.11,0,0,0-.1.071.113.113,0,0,0,.025.12Z" transform="translate(-33.111 -247.208)"/><path class="j" d="M54.422,461.216c-1.142.321-3.083.632-3.872,1.651-.693.888-.312,2.6.257,3.432a3.308,3.308,0,0,0,3.023,1.46,19.591,19.591,0,0,0,2.188-.962,27.515,27.515,0,0,1,2.753-.581.205.205,0,0,0,0-.4c-1.725-.4-3.161.7-4.739,1.139-1.766.493-3.932-1.562-3.037-3.408.459-.93,2.652-1.86,3.491-2.181a.08.08,0,0,0,.053-.1.079.079,0,0,0-.1-.053Z" transform="translate(-27.156 -246.787)"/><path class="j" d="M59.028,455.114a10.262,10.262,0,0,1,.844-2.506,6.777,6.777,0,0,1,1.932-2.1c.225-.163,0-.549-.225-.386a6.279,6.279,0,0,0-2.872,4.947.165.165,0,0,0,.321.047Z" transform="translate(-31.772 -240.834)"/><path class="j" d="M79.923,453.386a56.415,56.415,0,0,1-3.721,7.37c-2.193,3.515-5.506,4.771-8.924,6.733-.124.07-.041.288.1.237,3.12-1.148,6.478-2.915,8.433-5.719a31.124,31.124,0,0,0,4.313-8.537C80.157,453.353,79.973,453.27,79.923,453.386Z" transform="translate(-36.379 -242.57)"/><path class="j" d="M44.863,501.867a23.621,23.621,0,0,0,2.083-4.027c1-2.557,1.055-5.5,3.014-7.509s4.216-3.511,5.217-6.389a.116.116,0,0,0-.211-.088,16.359,16.359,0,0,1-3.67,4.933c-.977.874-2.326,1.539-3.046,2.7a9.11,9.11,0,0,0-.789,3.106,22.922,22.922,0,0,1-2.9,7.123.165.165,0,0,0,.284.167Z" transform="translate(-24.103 -258.869)"/><path class="j" d="M39.56,522.374c-.151,1.093.055,2.325-.431,3.353-.587,1.251-2.367,1.516-3.588,1.581a.135.135,0,0,0-.037.265,4,4,0,0,0,3.67-1.093c.817-.93.867-2.98.569-4.106,0-.093-.184-.107-.2,0Z" transform="translate(-19.162 -279.469)"/><path class="j" d="M35.536,521.562a44.664,44.664,0,0,1,1.275-10.229c.023-.126-.161-.223-.216-.093a22.218,22.218,0,0,0-1.285,10.313.112.112,0,0,0,.225,0Z" transform="translate(-19.048 -273.519)"/><path class="j" d="M34.454,499.455c-.835,2.158-1.34,4.231-2.753,6.133a59.913,59.913,0,0,0-3.813,4.887.145.145,0,0,0,.039.185.141.141,0,0,0,.186-.013c2.808-3.018,6.359-6.747,6.556-11.159,0-.135-.184-.14-.225-.028Z" transform="translate(-15.085 -267.208)"/><path class="j" d="M22.939,522.691c-.243,1.209-.486,2.436-1.633,3.092a10.377,10.377,0,0,1-2.831.711.172.172,0,0,0,.046.339,5.5,5.5,0,0,0,3.285-.972,3.913,3.913,0,0,0,1.275-3.153.071.071,0,0,0-.142,0Z" transform="translate(-9.929 -279.652)"/><path class="j" d="M18.72,521.027a30.924,30.924,0,0,1,1.028-4.817,30.94,30.94,0,0,0,1.129-3.976.135.135,0,0,0-.082-.116.132.132,0,0,0-.139.023c-.817,1.023-1.019,2.948-1.317,4.185a18.622,18.622,0,0,0-.729,4.706c0,.07.1.065.11,0Z" transform="translate(-10.073 -274.017)"/><path class="j" d="M28.514,496.472a32.936,32.936,0,0,0-4.014,3.934c-1.243,1.335-2.831,2.66-3.67,4.3-.1.186.11.465.307.312,1.487-1.088,2.578-2.79,3.822-4.152s2.62-2.683,3.753-4.185c.083-.107-.083-.27-.188-.191Z" transform="translate(-11.26 -265.648)"/><path class="j" d="M12.3,513.144a32.259,32.259,0,0,0-2.62,3.3c-1.409,1.925-2.684,2.027-4.85,1.623a.512.512,0,0,0-.558.308.525.525,0,0,0,.164.622c3.753,2.5,6.689-3.1,8.226-5.58a.239.239,0,0,0-.062-.3.232.232,0,0,0-.3.01Z" transform="translate(-2.291 -274.532)"/><path class="j" d="M4.513,509.481c2.363-4.627,6.575-8.174,9.456-12.475a.331.331,0,0,0-.514-.4c-2.1,2.264-3.9,4.854-5.795,7.286-1.308,1.683-2.863,3.366-3.455,5.463a.173.173,0,0,0,.1.193.169.169,0,0,0,.207-.063Z" transform="translate(-2.275 -265.67)"/><path class="j" d="M35.818,495.235a8.756,8.756,0,0,0,6.189,2.65.168.168,0,0,0,0-.33,11.155,11.155,0,0,1-6.061-2.488C35.846,494.993,35.74,495.146,35.818,495.235Z" transform="translate(-19.371 -264.889)"/><path class="j" d="M36.562,447.26c11.011,3.111.555,11.764-3.868,13.517a74.432,74.432,0,0,0-8.286,3.394c-3.184,1.711-6.542,2.655-9.722,4.324-3.872,2.032-7.121,5.171-11.3,6.6-.367.13-.335.749.1.725,5.556-.33,10-5.747,15.14-7.793,3.294-1.311,5.62-3.092,8.758-4.65,2.968-1.488,6.194-2.232,9-4.05,5-3.227,7.607-10.122.211-12.131a.037.037,0,0,0,0,.074Z" transform="translate(-1.694 -239.29)"/><path class="j" d="M53.581,478.9l-.151.153s0,.051.032.033l.151-.149C53.636,478.915,53.614,478.878,53.581,478.9Z" transform="translate(-28.917 -256.247)"/><path class="j" d="M48.119,479.143a20.161,20.161,0,0,1-2.06,2.106c-.72.651-1.675,1.1-2.322,1.809a.174.174,0,0,0-.021.2.169.169,0,0,0,.186.08,6.488,6.488,0,0,0,2.344-1.7,12.1,12.1,0,0,0,1.945-2.446C48.22,479.157,48.151,479.1,48.119,479.143Z" transform="translate(-23.647 -256.372)"/><path class="j" d="M22.4,493.472c.064.26.216.465.275.725a2.487,2.487,0,0,1-.069,1c-.1.521.688.739.78.219.119-.665-.2-1.8-.895-2.037C22.435,493.361,22.389,493.421,22.4,493.472Z" transform="translate(-12.122 -263.997)"/><path class="j" d="M24.9,522.226a3.484,3.484,0,0,1,1.243.414c.284.177.546-.288.257-.465a1.814,1.814,0,0,0-1.5-.191c-.1.033-.119.2,0,.219Z" transform="translate(-13.435 -279.257)"/><path class="j" d="M40.626,522.2a5.923,5.923,0,0,1,.858.153c.33.125.509.442.821.6a.259.259,0,0,0,.307-.047.268.268,0,0,0,.046-.311,1.67,1.67,0,0,0-2.051-.53.07.07,0,0,0,0,.13Z" transform="translate(-21.954 -279.264)"/><path class="d" d="M429.171,262.74a25.33,25.33,0,0,0,3.808,9.007,22.521,22.521,0,0,0,6.171,6.459s4.349,12.131,7.8,15.442,6.529,6.412,6.529,6.412l6.35,4.413a5.905,5.905,0,0,0,3.992.186,28.98,28.98,0,0,0,4.712-2.943s-4.712,4.966-4.712,7.9,2.358,9,9.24,15.437,16.324,13.972,16.324,13.972,7.616,5.7,10.158,9.555a29.808,29.808,0,0,1,2.909,4.947,14.035,14.035,0,0,0,3.992,5.882c3.083,2.757,9.249,4.594,9.249,4.594s6.171,3.678,6.35,3.125,9.332,5.091,9.332,5.091l5.542,7.063,3.257,5.231s-2.349,1.018-3.982-.27-4.537-5.7-4.537-5.7l-2.9-2.753,2.537,7.165s-1.087,1.107-.541,2.209a11.682,11.682,0,0,0,1.835,2.39s-2.542-.367-2.9-1.474a16.263,16.263,0,0,1-.546-2.413l-4.4-5.3-1.588-3.129.918,7.9.362,5.147s-2.354-.465-2.537-1.972a13.937,13.937,0,0,1-.119-2.409,31.67,31.67,0,0,1-2.785-6.649,19.987,19.987,0,0,0-1.5-4.436,17.325,17.325,0,0,1-3.569-3.255,27.67,27.67,0,0,1-2.5-3.855s-6.423-2.976-8.947-6.286a30.1,30.1,0,0,1-3.987-8.458,77.04,77.04,0,0,0-6.565-7.672c-2.322-2.069-10.488-7.584-10.488-7.584s-8.382-6.617-11.1-9.56-7.8-8.835-7.8-8.835l-5.625-9.927s-4.06-3.3-5.932-4.961-6.946-6.621-8.759-8.644-6.533-9.741-6.533-9.741l-3.73-8.835S428.262,266.232,429.171,262.74Z" transform="translate(-232.191 -140.599)"/><path class="t" d="M625.418,490.028a5.009,5.009,0,0,1-3.212-5.24,22.507,22.507,0,0,1-6.322-6.844c-.459-.8-.918-1.827-.459-2.636l-13.347-6.472c-5.019-2.432-10.433-5.263-12.649-10.434a10.9,10.9,0,0,0,2.611,4.571,55.7,55.7,0,0,0,4.868,3.873c.817.683,1.574,1.437,2.326,2.19l2.725,2.734a18.3,18.3,0,0,1,2.987,3.557c2.4,4.143,1.565,10.15,5.281,13.136.083-1.595.165-3.194.252-4.789a.807.807,0,0,1,.2-.6c.289-.246.716.028.991.288l5.547,5.264q-.638-3.641-1.276-7.277c3.84,1.279,4.827,6.817,8.552,8.4.229.1.518.251.491.507s-.537.037-.312-.079Z" transform="translate(-319 -245.282)"/><path class="d" d="M441.418,258.446s-1.633,5.147-1.45,7.533,5.079,13.791,5.079,13.791l-5.987-10.481s-.541,1.837-2.175-.367-2.014-2.023-3.267-5.533-1.629-5.515-1.271-6.068S437.973,256.056,441.418,258.446Z" transform="translate(-233.918 -137.407)"/><path class="d" d="M516.219,316.99s-19.77-27.759-24.486-32.172-8.167-5.147-8.167-5.147-3.808-8.835-7.07-16.358-8.892-15.809-10.52-17.279a29.624,29.624,0,0,1-3.267-3.678l-9.249-4.966s8.717,3.311,9.07.553-.725-8.835-.725-8.835l2.537,6.254L466,241.669s4.331,4.905,6.143,9.3,6.341,13.814,6.341,13.814l3.45,6.617s5.441.93,11.608,9.379a203.3,203.3,0,0,1,11.245,17.46Z" transform="translate(-245.414 -122.606)"/><path class="e" d="M428.836,190.152c5.533,1.86,9.208,7.04,12.355,12.01,1.514,2.39,3.046,4.975,3.046,7.816a4.19,4.19,0,0,1-.61,2.367,3.617,3.617,0,0,1-3.152,1.395,8.779,8.779,0,0,1-3.409-1.051c-6.987-3.4-12.947-9.69-14.429-17.409-.34-1.772-.312-3.91,1.1-5.022a4.538,4.538,0,0,1,4.005-.414,17.506,17.506,0,0,0,4.047,1.014Z" transform="translate(-228.635 -101.457)"/><path class="e" d="M461.668,267c5.506,4.152,8.859,10.522,11.81,16.79a113.645,113.645,0,0,1,5.166,12.368,10.164,10.164,0,0,1,.7,5.115c-.34,1.725-1.794,3.292-3.5,3.176a5.133,5.133,0,0,1-2.166-.837,42.671,42.671,0,0,1-19.352-25.732,11.934,11.934,0,0,1-.459-5.012,7.077,7.077,0,0,1,8.194-5.547Z" transform="translate(-245.574 -142.878)"/><path class="j" d="M440.424,258.022a15.886,15.886,0,0,0-5.478-.842c-1.661.046-3.212.586-4.859.7a.327.327,0,0,1-.313-.243.332.332,0,0,1,.148-.371c3.129-1.832,7.474-.73,10.525.7a.033.033,0,0,1,.015.041A.032.032,0,0,1,440.424,258.022Z" transform="translate(-232.589 -137.156)"/><path class="j" d="M424.536,187.376c15.273-.567,24.908,19.222,26.331,32.251a.436.436,0,0,1-.319.411.429.429,0,0,1-.48-.193c-2.67-6.268-3.78-12.945-7.423-18.845-4.414-7.156-10.364-10.876-18.146-13.331a.149.149,0,0,1,.037-.293Z" transform="translate(-229.681 -100.271)"/><path class="j" d="M495.058,284.468c-6.061-9.42-9.121-21.1-16.934-29.293a.4.4,0,0,1-.011-.492.387.387,0,0,1,.47-.122c4.258,2.488,6,7.677,8.13,11.922,2.945,5.873,6.331,11.676,8.717,17.813.087.223-.252.344-.372.158Z" transform="translate(-258.713 -136.204)"/><path class="j" d="M556.682,376.7c-7.341-10.006-13.526-21.1-20.1-31.618-5.79-9.3-11.153-21.347-21.614-25.913-.518-.223-.142-1.139.385-.93,9.176,3.72,13.874,12.922,18.889,20.966,7.662,12.285,16.131,24.425,22.853,37.254a.245.245,0,0,1-.085.332.238.238,0,0,1-.328-.086Z" transform="translate(-278.567 -170.274)"/><path class="j" d="M505.356,343.97c-1.514,3.143-5.909,5.677-9.346,4.357a.186.186,0,0,1,.05-.363,11.935,11.935,0,0,0,4.914-.618,9.754,9.754,0,0,0,4.157-3.511.13.13,0,0,1,.179-.046.133.133,0,0,1,.046.181Z" transform="translate(-268.374 -183.952)"/><path class="j" d="M469.143,315.793c-12.617-5.2-19.632-19.748-22.867-32.334-.1-.372.459-.651.633-.274,2.427,5.752,4.129,11.783,7.263,17.2,3.845,6.663,9.084,10.653,15.072,15.158.106.079.046.3-.1.242Z" transform="translate(-241.52 -151.441)"/><path class="j" d="M440.217,282.53c-4.051-2.706-7.951-7.542-9.263-12.326-.046-.167.2-.279.28-.121a45.728,45.728,0,0,0,3.712,6.784,32.667,32.667,0,0,0,5.4,5.491c.087.079-.028.237-.129.172Z" transform="translate(-233.23 -144.487)"/><path class="j" d="M432.553,282.015c4.1,10.332,8.717,19.668,16.833,27.406,3.005,2.874,6.955,4.9,9.635,8.118,2.556,3.078,4.166,7.161,6.492,10.443,6.373,9,14.879,15.242,23.6,21.7,5.441,4.036,10.507,8.453,12.883,15.023.092.26-.335.465-.459.191-4.074-9.453-12.424-14.168-20.224-20.092a74.934,74.934,0,0,1-18.035-19.115c-3.115-4.878-5.363-8.472-9.951-12.168a65.877,65.877,0,0,1-9.015-8.76,64.182,64.182,0,0,1-11.9-22.709c-.028-.1.11-.13.147-.042Z" transform="translate(-234.017 -150.882)"/><path class="j" d="M559.577,426.544a32.273,32.273,0,0,1,13.764,14.307c.128.27-.252.5-.4.237a41.256,41.256,0,0,0-13.461-14.382.1.1,0,0,1-.032-.13.093.093,0,0,1,.129-.033Z" transform="translate(-302.765 -228.231)"/><path class="j" d="M637.141,469.757c-13.6-4.268-18.733-20.092-31.143-26.141-.39-.191-.115-.818.289-.7,5.657,1.627,9.116,6.705,12.943,10.89,5.712,6.245,10.5,11.652,18.017,15.7a.14.14,0,0,1,.06.176A.137.137,0,0,1,637.141,469.757Z" transform="translate(-327.865 -236.989)"/><path class="j" d="M672.635,500.5c1.078,1.246.656,3.455-1.1,3.752-.395.07-.56-.553-.165-.609,1.418-.209,1.606-1.86,1.06-2.985C672.369,500.532,672.534,500.378,672.635,500.5Z" transform="translate(-363.226 -267.783)"/><path class="j" d="M611.15,462.161c-.459.372-.945.684-1.376,1.093s-.67,1-1.12,1.358a.168.168,0,0,1-.18.032.172.172,0,0,1-.1-.153,2.617,2.617,0,0,1,.982-1.669,2.739,2.739,0,0,1,1.7-.851.11.11,0,0,1,.1.069.113.113,0,0,1-.024.122Z" transform="translate(-329.251 -247.192)"/><path class="j" d="M610.938,461.217c1.147.321,3.083.632,3.877,1.651.688.888.307,2.6-.257,3.432a3.313,3.313,0,0,1-3.023,1.46,19.224,19.224,0,0,1-2.188-.962c-.918-.3-1.835-.372-2.753-.581a.205.205,0,0,1,0-.4c1.725-.4,3.161.7,4.735,1.139,1.766.493,3.937-1.562,3.037-3.408-.459-.93-2.647-1.86-3.487-2.181a.08.08,0,0,1-.055-.1.078.078,0,0,1,.1-.056Z" transform="translate(-328.208 -246.788)"/><path class="j" d="M612.886,455.109a10.089,10.089,0,0,0-.849-2.506,6.821,6.821,0,0,0-1.927-2.1c-.225-.163,0-.549.225-.386a6.291,6.291,0,0,1,2.872,4.947.167.167,0,0,1-.142.158.165.165,0,0,1-.18-.111Z" transform="translate(-330.142 -240.828)"/><path class="j" d="M580.527,453.386a55.846,55.846,0,0,0,3.721,7.37c2.193,3.515,5.506,4.771,8.924,6.733.119.07.041.288-.1.237-3.12-1.148-6.478-2.915-8.437-5.719a31.38,31.38,0,0,1-4.313-8.537C580.293,453.353,580.472,453.27,580.527,453.386Z" transform="translate(-314.071 -242.569)"/><path class="j" d="M618.257,501.858a23.294,23.294,0,0,1-2.083-4.041c-1-2.557-1.06-5.5-3.019-7.509s-4.212-3.511-5.217-6.389a.121.121,0,0,1,.073-.131.118.118,0,0,1,.143.043,16.343,16.343,0,0,0,3.67,4.933c.982.874,2.331,1.539,3.051,2.7a9,9,0,0,1,.784,3.106,23.039,23.039,0,0,0,2.858,7.124.166.166,0,0,1-.057.225.161.161,0,0,1-.222-.058Z" transform="translate(-329.016 -258.86)"/><path class="j" d="M630.8,522.374c.156,1.093-.051,2.325.431,3.353.592,1.251,2.372,1.516,3.6,1.581a.135.135,0,0,1,.032.265,4,4,0,0,1-3.67-1.093c-.817-.93-.867-2.98-.573-4.106.027-.093.188-.107.2,0Z" transform="translate(-341.202 -279.469)"/><path class="j" d="M638.238,521.562a44.9,44.9,0,0,0-1.271-10.229c-.028-.126.156-.223.211-.093a22.218,22.218,0,0,1,1.285,10.313.112.112,0,0,1-.225,0Z" transform="translate(-344.726 -273.519)"/><path class="j" d="M633.206,499.455c.835,2.158,1.335,4.231,2.753,6.133a59.89,59.89,0,0,1,3.808,4.887.146.146,0,0,1-.042.176.141.141,0,0,1-.179,0c-2.808-3.018-6.363-6.747-6.556-11.159,0-.135.179-.14.225-.028Z" transform="translate(-342.575 -267.208)"/><path class="j" d="M647.152,522.707c.243,1.209.459,2.436,1.629,3.092a10.413,10.413,0,0,0,2.835.711c.193.042.142.335-.046.339a5.52,5.52,0,0,1-3.29-.972,3.924,3.924,0,0,1-1.271-3.153.073.073,0,0,1,.142,0Z" transform="translate(-350.163 -279.668)"/><path class="j" d="M654.286,521.026a30.926,30.926,0,0,0-1.028-4.817,30.228,30.228,0,0,1-1.129-3.976.13.13,0,0,1,.078-.117.127.127,0,0,1,.138.024c.817,1.023,1.018,2.948,1.317,4.185a18.626,18.626,0,0,1,.734,4.706c0,.07-.106.065-.11,0Z" transform="translate(-352.934 -274.016)"/><path class="j" d="M637.808,496.472a33.609,33.609,0,0,1,4.014,3.934c1.243,1.335,2.831,2.66,3.67,4.3.1.186-.11.465-.307.312-1.487-1.088-2.579-2.79-3.822-4.152s-2.62-2.683-3.758-4.185c-.078-.107.083-.27.193-.191Z" transform="translate(-345.062 -265.648)"/><path class="j" d="M653.4,513.144a32.278,32.278,0,0,1,2.62,3.3c1.4,1.925,2.679,2.027,4.849,1.623a.508.508,0,0,1,.568.3.52.52,0,0,1-.178.626c-3.748,2.5-6.685-3.1-8.222-5.58a.239.239,0,0,1,.062-.3.232.232,0,0,1,.3.01Z" transform="translate(-353.41 -274.532)"/><path class="j" d="M659.585,509.481c-2.363-4.627-6.579-8.174-9.456-12.475a.331.331,0,0,1,.514-.4c2.1,2.264,3.9,4.854,5.795,7.286,1.308,1.688,2.863,3.366,3.455,5.463C659.943,509.532,659.673,509.653,659.585,509.481Z" transform="translate(-351.823 -265.67)"/><path class="j" d="M632.362,495.235a8.738,8.738,0,0,1-6.185,2.65.168.168,0,0,1,0-.33,11.141,11.141,0,0,0,6.056-2.488c.1-.074.211.079.129.167Z" transform="translate(-338.814 -264.889)"/><path class="j" d="M593.955,447.26c-11.011,3.111-.56,11.764,3.868,13.517a74.363,74.363,0,0,1,8.281,3.394c3.184,1.711,6.547,2.655,9.722,4.324,3.872,2.032,7.121,5.171,11.309,6.6.367.13.335.749-.1.725-5.556-.33-10-5.747-15.14-7.793-3.294-1.311-5.62-3.092-8.758-4.65-2.968-1.488-6.194-2.232-9.006-4.05-4.992-3.227-7.6-10.122-.211-12.131.046,0,.064.06.023.074Z" transform="translate(-318.809 -239.29)"/><path class="j" d="M621.869,478.9l.147.153s0,.051-.028.033l-.151-.149C621.809,478.915,621.837,478.878,621.869,478.9Z" transform="translate(-336.533 -256.247)"/><path class="j" d="M622.246,479.143a19.279,19.279,0,0,0,2.06,2.106c.72.651,1.67,1.1,2.322,1.809a.174.174,0,0,1,.021.2.169.169,0,0,1-.186.08,6.5,6.5,0,0,1-2.349-1.7,11.915,11.915,0,0,1-1.941-2.446C622.145,479.157,622.214,479.1,622.246,479.143Z" transform="translate(-336.717 -256.372)"/><path class="j" d="M652.078,493.472c-.06.26-.211.465-.275.725a2.572,2.572,0,0,0,.073,1c.1.521-.688.739-.785.219-.119-.665.2-1.8.918-2.037.055-.023.1.037.087.088Z" transform="translate(-352.358 -263.997)"/><path class="j" d="M648.748,522.225a3.505,3.505,0,0,0-1.248.414c-.28.177-.546-.288-.257-.465a1.815,1.815,0,0,1,1.505-.191c.1.032.119.2,0,.219Z" transform="translate(-350.221 -279.256)"/><path class="j" d="M632.572,522.2a5.86,5.86,0,0,0-.853.153c-.335.125-.514.442-.821.6a.259.259,0,0,1-.307-.047.267.267,0,0,1-.046-.311,1.664,1.664,0,0,1,2.046-.53.07.07,0,0,1,0,.13Z" transform="translate(-341.235 -279.264)"/><path class="a" d="M240.324,474.842c.56-.572,6.157.4,16.489,7.654a186.291,186.291,0,0,1,18.279,14.665l2.785,3.827,2.78,1.209a68.362,68.362,0,0,1,.395,19.329c-1.395,9.462-3.574,19.734-3.574,19.734L272.7,564.234l1.592,8.658a40.322,40.322,0,0,1-1.789,11.476c-1.789,5.031-4.588,17.925-4.588,17.925s3.978,8.658,4.175,13.289-.4,11.68-.4,11.68L269.5,640.955l-1.789,9.262-.982,15.1s-2.583,14.3-.6,18.929a21.615,21.615,0,0,1,1.991,7.649l-1,5.036-1,2.618,1.009,5.454s-.6,2.818-1,4.431-1.987,7.44-1.987,7.44l-2.978,1.009-8.745.4-7.731-1.014-3.179-1.209s-1.982,0-.592-2.013,6.157-7.44,6.157-7.44l4.372-8.049.991-4.431s.184-11.908-1.785-18.743-4.772-18.525-4.772-19.129-4.983-21.928-4.983-21.928a89.206,89.206,0,0,1-1.376-16.311,132.739,132.739,0,0,1,1.188-14.5l3.579-10.694a34.329,34.329,0,0,1-2.386-13.893c.2-8.253.6-12.689.6-12.689a163.9,163.9,0,0,1-5.763-23.156c-1.987-12.09-1.587-26.969-1.587-26.969l1.987-24.179S239.53,475.633,240.324,474.842Z" transform="translate(-127.258 -254.006)"/><path class="d" d="M243.567,479.642a2.8,2.8,0,0,1,2.418-2.427,6.813,6.813,0,0,1,3.588.632c5.707,2.288,10.52,6.426,14.709,10.969a26.4,26.4,0,0,1,7.474,14.777c3.519,16.19,1.872,33.13,4.753,49.436,3.914-16.311,7.845-32.855,7.428-49.631a7.535,7.535,0,0,0-.229-1.976c-.459-1.539-1.789-2.618-3.019-3.632a84.161,84.161,0,0,1-7.061-6.51c-2.239-2.325-4.349-4.757-6.749-6.9-6.542-5.817-14.874-9.044-23.013-12.154q-.413,4.031-.835,8.058Z" transform="translate(-131.529 -252.681)"/><path class="d" d="M258,678.418a2.821,2.821,0,0,0-2.638,1.418,6.909,6.909,0,0,0-.862,3.05,16.288,16.288,0,0,0,1.514,9.146,9.943,9.943,0,0,0,7.2,5.375q-2.712-.167-5.432-.181c-1,3.171.624,6.51,2.2,9.444a11.729,11.729,0,0,1-3.579-4.85,11.693,11.693,0,0,0-1.422-3.162,2.366,2.366,0,0,0-3.028-.786,3.339,3.339,0,0,0-1.092,2.148q-.642,2.79-1.285,5.607a17.166,17.166,0,0,0,.918-6.142,24.37,24.37,0,0,0-1.078-4.459c-2.01-7.1-1.436-14.707.055-21.938a6.9,6.9,0,0,0,8.887,4.868Z" transform="translate(-134.281 -360.146)"/><path class="d" d="M282.365,685.863l5.047,5.826c.693.8,1.431,1.767,1.225,2.79a3.261,3.261,0,0,1-.968,1.553,26.1,26.1,0,0,1-5.918,4.65c1.629-.93,4.643-1.465,6.162-.056,2.175,2.023.509,6.872.262,9.341-.807,8.053-1.009,16.274.8,24.211a171.3,171.3,0,0,1,3.556-31.53c1.661-7.984,3.909-16.111,2.666-24.179a58.914,58.914,0,0,1-2.367,10.75,1.7,1.7,0,0,1-2.615,1.265c-3.074-.874-6.542-2.092-7.735-5.087Z" transform="translate(-152.484 -363.025)"/><path class="d" d="M298.555,755.561q-1.376,8.593-2.8,17.176c-1.633,10.053-3.271,20.333-1.5,30.363a56.357,56.357,0,0,1,2.886-17.739c.142-.414.349-.888.771-.986.674-.153,1.069.744,1.174,1.441a51.765,51.765,0,0,1,.569,8.509c3.67-13.224,1.8-27.322-.775-40.806a14.684,14.684,0,0,1-.752,4.738Z" transform="translate(-158.838 -403.178)"/><path class="d" d="M247.845,750.06c-1.991,24.007,4.354,47.855,10.318,71.183a34.413,34.413,0,0,1,1.45,8.6,11.678,11.678,0,0,1-2.808,8.049c1.964-25.857-12.823-50.4-12.915-76.335a68.36,68.36,0,0,1,3.074-20.459q-.055,4.329-.115,8.667Z" transform="translate(-131.994 -396.533)"/><path class="d" d="M285.936,918.173a13.765,13.765,0,0,1-1.675,5.58,5.688,5.688,0,0,1-4.762,2.883,5.287,5.287,0,0,1,5.373,4.529l3.427-10.848a9.972,9.972,0,0,0,.711-4.282c-.161-1.362-.858-2.613-1.037-3.976-.234-1.753.408-3.5.482-5.263.092-2.278-.752-4.468-1.23-6.691-1.8-8.37,1.6-17.032.826-25.574a163.248,163.248,0,0,1-4.528,17.632c-.514,1.516-1.156,3.129-2.51,3.957s-3.565.288-3.8-1.3c.583,3.971,1.308,7.635-.39,11.527a5.755,5.755,0,0,0-.89,3.143,6.649,6.649,0,0,1,5.061-1.265C286.266,909.045,286.5,913.806,285.936,918.173Z" transform="translate(-149.32 -467.922)"/><path class="d" d="M250.194,981.258a2.23,2.23,0,0,0-.785,1.07,1.8,1.8,0,0,0,.688,1.767,4.59,4.59,0,0,0,1.812.777,24.836,24.836,0,0,0,8.547.6,1.915,1.915,0,0,1,1.486.307l2.487,1.395c-5.322.1-10.763.186-15.824-1.5-.674-.228-1.464-.637-1.487-1.358a1.866,1.866,0,0,1,.688-1.269q2.037-2.093,4.184-4.069Z" transform="translate(-133.742 -523.805)"/><path class="e" d="M268.793,952.374a38.819,38.819,0,0,0-6.593,11.652,14.322,14.322,0,0,1,5.671,2.26,3.965,3.965,0,0,0,2.1.93c1,0,1.835-.846,2.845-.874a2.691,2.691,0,0,0,.968-.056,1.536,1.536,0,0,0,.578-.539,17.079,17.079,0,0,0,2.826-6.091,7.288,7.288,0,0,0,.206-2.981,5.9,5.9,0,0,0-1.376-2.706,6.4,6.4,0,0,0-4.267-2.362,4.567,4.567,0,0,0-4.262,2.083Z" transform="translate(-141.904 -509.149)"/><path class="e" d="M246.463,494.12c-4.4,8.793-3.574,19.25-3.615,28.991a187.719,187.719,0,0,0,2.95,33.943,23.828,23.828,0,0,0,2.638,8.3,25.45,25.45,0,0,0,5.634,5.891l13.879,11.662c3.28-26.039,2.326-53.286-8.125-77.288A23.748,23.748,0,0,0,255,497.84c-2.2-2.134-5.35-3.483-8.309-2.79Z" transform="translate(-131.411 -264.393)"/><path class="e" d="M267.005,687.208c-1.486-.107-2.367,1.72-2.386,3.255-.041,3.873,2.629,7.165,5.152,10.076a3.044,3.044,0,0,0,1.61,1.181,2.687,2.687,0,0,0,1.486-.274,14.933,14.933,0,0,0,3.092-1.716,2.176,2.176,0,0,0,1.1-1.544c0-.856-.826-1.4-1.482-1.948-1.771-1.437-2.656-3.678-3.845-5.631s-3.088-3.836-5.345-3.678Z" transform="translate(-143.213 -367.546)"/><path class="e" d="M272.2,727.037a2.589,2.589,0,0,0-2.716-.549,10.955,10.955,0,0,0,2.918,5.389,3.968,3.968,0,0,0,2.1,1.26c1.918.3,3.368-1.655,4.336-3.362.569-1,1.119-2.325.4-3.213s-2.1-.614-3.152-.223a7.476,7.476,0,0,1-3.18.721,2.408,2.408,0,0,1-2.294-1.99Z" transform="translate(-145.844 -387.957)"/><path class="e" d="M264.4,814.731c.509,2.1,2.019,4.785,4.005,3.985a243,243,0,0,1-1.542-34.757c.051-1.93.17-3.99,1.3-5.538q.885,1.832,1.785,3.669a170.1,170.1,0,0,0-.661-39.058c.051.391-7.093-1.86-7.712-2.227-2.069-1.181-3.56-2.939-5.726-1.158-2.088,1.711-1.62,6.57-1.482,8.923.4,6.714.537,13.484,1.184,20.189C257.065,784.34,260.731,799.587,264.4,814.731Z" transform="translate(-137.59 -395.35)"/><path class="j" d="M250.82,570.944c-6.914.1-6.96-1.86-9.126-8.049a115.921,115.921,0,0,1-3.45-11.9,131.63,131.63,0,0,1-3.212-25.881c-.537-17.423,2.046-34.441,4.629-51.612.055-.4-.528-.586-.619-.172-4.129,19.208-6.024,39.56-4.446,59.173a114.79,114.79,0,0,0,5.047,26.676c.748,2.269,2.482,10.071,4.689,11.522,1.468.962,4.863.642,6.474.581a.177.177,0,0,0,0-.349Z" transform="translate(-126.666 -253.146)"/><path class="j" d="M313.063,656.417c3.473-6.287,3.368-12.866,2.014-19.743-2.046-10.383-1.454-21.035-2.652-31.535a.183.183,0,0,0-.362,0,194.071,194.071,0,0,0,.954,25.769c.459,3.934,1.808,7.691,2.179,11.624.459,4.868-.684,9.3-2.244,13.828-.023.065.078.1.11.046Z" transform="translate(-168.854 -323.707)"/><path class="j" d="M317,596.318c3.7-20.557,11.011-41.1,8.144-62.242-.055-.418-.674-.237-.624.177,2.858,21.207-4.987,41.29-7.68,62.042C316.84,596.392,316.987,596.411,317,596.318Z" transform="translate(-171.475 -285.644)"/><path class="j" d="M256.46,681.94c.8,7.826,1.418,16.316,9.662,19.892.3.13.569-.3.266-.465-7.942-3.975-8.506-11.624-9.745-19.459,0-.107-.193-.084-.184,0Z" transform="translate(-138.797 -364.826)"/><path class="j" d="M281.97,714.51c2.078-.66,4.06-.967,5.584-2.687a10.619,10.619,0,0,0,2.62-6.333.083.083,0,1,0-.165-.023,12.4,12.4,0,0,1-2.863,6.361c-1.431,1.511-3.363,1.837-5.212,2.562a.066.066,0,0,0-.029.075A.065.065,0,0,0,281.97,714.51Z" transform="translate(-152.566 -377.429)"/><path class="j" d="M249.408,671.62c-1.459,9.165-2.257,18.4,1.041,27.243.262.7,1.376.4,1.119-.316-3.17-9.118-1.739-17.465-1.574-26.848,0-.33-.532-.423-.587-.079Z" transform="translate(-134.296 -359.244)"/><path class="j" d="M301.571,885.245c.872-3.115,2.294-6.831,1.945-10.1s-2.17-5.952-2.478-9.3a46.323,46.323,0,0,1,.661-10.229c1.523-11.625,2.578-23.546,1.271-35.268-.023-.209-.34-.223-.335,0a280.5,280.5,0,0,1-1.711,37.2,35.352,35.352,0,0,0-.092,10.388c.748,4.041,2.537,6.2,1.9,10.746-.3,2.162-.968,4.324-1.266,6.537,0,.065.083.1.1.028Z" transform="translate(-162.62 -438.844)"/><path class="j" d="M305.959,798.892c2.147-16.441,9.116-35.608.17-51.226-.188-.326-.652-.037-.5.3,4.2,9.034,4.9,18.553,3.4,28.363-1.142,7.5-3.134,14.949-3.212,22.584,0,.107.142.1.156,0Z" transform="translate(-165.392 -399.97)"/><path class="j" d="M303.207,731.779c2.62-8.37,5.047-16.967,6.841-25.574a.293.293,0,0,0-.209-.332.288.288,0,0,0-.346.179c-2.569,8.37-4.588,17.1-6.322,25.7h.037Z" transform="translate(-164.077 -377.681)"/><path class="j" d="M245.7,849.974c5.473-5.278,10.094-11.331,11.392-19.106,1.6-9.667-1.835-21.166-4.129-30.488-5.675-23.249-13.429-47.353-4.06-70.755.234-.586-.762-1.014-1.009-.433-7.754,18.3-4.359,38.291.3,56.936,2.611,10.42,5.625,20.784,7.2,31.437.918,6.166,1.523,12.182-.665,18.134-1.964,5.352-5.574,9.8-9.378,13.921a.244.244,0,0,0,0,.336.236.236,0,0,0,.332.008Z" transform="translate(-131.667 -390.014)"/><path class="j" d="M290.786,973.667c3.212.907,4-1.595,4.5-4.315.564-3.069,2.441-5.975,2.679-9.072.216-2.79-1.376-5.487-1.633-8.281-.032-.363-.624-.516-.688-.093a6.92,6.92,0,0,0,.161,3.208c.918,3.5,1.285,5.454-.165,9.086-1.064,2.66-1.032,8.774-4.781,8.974a.251.251,0,0,0-.069.493Z" transform="translate(-157.277 -509.183)"/><path class="j" d="M246.552,988.144c-2.445,2.023,1.074,3.669,2.79,4.082,5.666,1.367,12.709,2.13,18.311.284a.424.424,0,0,0-.115-.823c-3.147-.051-6.272.465-9.438.432-.684,0-12.566-.674-10.9-3.464C247.456,988.223,246.9,987.861,246.552,988.144Z" transform="translate(-132.982 -528.654)"/><path class="j" d="M277.89,987.069a3.4,3.4,0,0,0-2.73,1.944c-.459.99-.459,2.929.656,3.483.22.112.6,0,.56-.325-.115-.93-.688-1.581-.459-2.59a2.808,2.808,0,0,1,2.037-2.055.239.239,0,0,0-.06-.465Z" transform="translate(-148.761 -528.128)"/><path class="j" d="M292.911,989.415a4.224,4.224,0,0,1,.064,3.473l1.055-.14a1.386,1.386,0,0,0-.7-.716.318.318,0,0,0-.274-.014.324.324,0,0,0-.185.205,1.585,1.585,0,0,0,.161,1.116c.243.512.89.27,1.06-.139A3.265,3.265,0,0,0,293,989.345a.055.055,0,0,0-.078-.009.057.057,0,0,0-.009.079Z" transform="translate(-158.484 -529.339)"/><path class="j" d="M267.285,988.8c-.459,1.056-.844,3.027-.073,4.008a.209.209,0,0,0,.2.057.213.213,0,0,0,.15-.15,8.082,8.082,0,0,0-.129-1.813,12.959,12.959,0,0,1,.138-2.023c.023-.153-.229-.219-.289-.079Z" transform="translate(-144.378 -529.019)"/><path class="j" d="M267.766,988.623a4.563,4.563,0,0,1,2.033-.149c.56.1,1.042.423,1.592.526a.151.151,0,0,0,.17-.071.155.155,0,0,0-.023-.185c-.821-1.014-2.79-.907-3.881-.516a.206.206,0,0,0-.14.253.2.2,0,0,0,.25.142Z" transform="translate(-144.777 -528.603)"/><path class="j" d="M259.888,987.514a4.088,4.088,0,0,0-1.142,3.427c.138.725,1.3,1.153,1.335.2a.266.266,0,0,0-.131-.227.259.259,0,0,0-.259,0c-.326.191-.055-1.772-.055-1.772.133-.507.344-.981.523-1.469C260.214,987.51,260,987.417,259.888,987.514Z" transform="translate(-140.014 -528.35)"/><path class="j" d="M260.568,987.645a6.417,6.417,0,0,1,1.188-.163,3.072,3.072,0,0,0,.876-.032.154.154,0,0,0,.037-.279,2.759,2.759,0,0,0-2.239.139c-.2.088-.046.367.138.335Z" transform="translate(-140.896 -528.086)"/><path class="j" d="M253.392,985.931a3.953,3.953,0,0,0-1.216,4.268.536.536,0,0,0,.656.377,1.145,1.145,0,0,0,.619-.488.471.471,0,0,0,0-.5l-.083-.112a.324.324,0,0,0-.367-.154c-.138.051-.326.177-.459.209l.656.381a4.388,4.388,0,0,1,.523-3.72c.142-.228-.156-.414-.34-.27Z" transform="translate(-136.371 -527.492)"/><path class="j" d="M278.68,925.2c.069,1.051.275,2.083.362,3.134s0,2.12.133,3.166c0,.112.188.163.211.028a13.363,13.363,0,0,0-.592-6.342c0-.06-.119-.056-.115,0Z" transform="translate(-150.823 -495.003)"/><path class="j" d="M273.359,938.024a22.9,22.9,0,0,0-3.134,5.58c-.766,1.73-1.753,3.552-1.886,5.454a.249.249,0,0,0,.459.125c1.225-1.679,1.771-3.906,2.615-5.8a36.608,36.608,0,0,0,2.156-5.24.126.126,0,0,0-.058-.14.123.123,0,0,0-.148.019Z" transform="translate(-145.227 -501.871)"/><path class="j" d="M294.886,787.249a200.179,200.179,0,0,1,5.763-37.733c.165-.642-.826-.93-.977-.274a183.9,183.9,0,0,0-4.882,38.007c0,.06.092.056.1,0Z" transform="translate(-159.541 -400.691)"/><path class="j" d="M251.38,744.249a44.569,44.569,0,0,1,.041-7.086c.243-2.353,1.17-4.65,1.22-6.975a.348.348,0,0,0-.255-.32.342.342,0,0,0-.379.148c-2.12,3.882-1.6,10.053-.941,14.279a.16.16,0,0,0,.312-.042Z" transform="translate(-135.566 -390.517)"/><path class="j" d="M283.4,692.867a17.19,17.19,0,0,0,4.423,4.185c1.459.93,3.4,2.041,5.152,2.069a.3.3,0,0,0,.273-.22.3.3,0,0,0-.126-.329c-1.578-.856-3.372-1.186-4.951-2.13a20.443,20.443,0,0,1-4.625-3.72c-.092-.1-.225.046-.147.149Z" transform="translate(-153.366 -370.633)"/><path class="j" d="M266.663,723.4a15.939,15.939,0,0,1-2.023-2.357c-.2-.265-1.409-1.99-1.2-1.465.307.772.376.721.3-.13-.124-1.339-.789-2.692-.918-4.092a70,70,0,0,0-1.376-8.137.133.133,0,0,0-.143-.085.134.134,0,0,0-.114.123c.119,2.553.734,5.054.973,7.6a12.159,12.159,0,0,0,1.62,5.682c.151.246.592.093.486-.2L263.81,719c-.115-.311-.6-.181-.5.14a8.4,8.4,0,0,0,3.212,4.482c.128.088.284-.116.165-.223Z" transform="translate(-141.357 -378.36)"/><path class="j" d="M346.163,331.46a13.213,13.213,0,0,0,2.294-.121,12.08,12.08,0,0,0,2-.223.112.112,0,0,0-.028-.219,14.163,14.163,0,0,0-2.294.149,11.426,11.426,0,0,0-2,.242.089.089,0,0,0,.023.172Z" transform="translate(-187.3 -177.064)"/><path class="j" d="M310.329,337.289a9.457,9.457,0,0,0,6.5-1.223.145.145,0,0,0,.051-.176.142.142,0,0,0-.161-.084c-1.064.265-2.056.744-3.143.972s-2.17.177-3.244.367C310.256,337.145,310.265,337.271,310.329,337.289Z" transform="translate(-167.923 -179.689)"/><path class="j" d="M334.648,401.119c1.06-.753,2.193-2.432,1.532-3.794a.137.137,0,0,0-.248.033,12.343,12.343,0,0,1-.188,1.827,4.242,4.242,0,0,1-1.129,1.888.029.029,0,0,0-.007.039A.028.028,0,0,0,334.648,401.119Z" transform="translate(-181.089 -212.571)"/><path class="k" d="M250.753,471.071c4.5,2.511,9.373,3.4,13.764,6.412,5.432,3.72,10.74,7.663,16.214,11.345.087.056.161-.079.083-.139-5.3-3.929-10.708-7.742-16.127-11.494-4.524-3.129-8.979-3.92-13.865-6.221-.064-.028-.119.06-.055.1Z" transform="translate(-135.7 -252.007)"/><path class="k" d="M363.143,481.018c9.309-7,18.733-13.019,29.533-17.409.284-.121.156-.6-.133-.465-10.585,4.357-20.871,10.085-29.505,17.734-.078.07.028.209.106.149Z" transform="translate(-196.462 -247.808)"/><path class="l" d="M280.63,93.461a16.237,16.237,0,0,1-3.212-4.041,1.768,1.768,0,0,0-.408-.618,1.823,1.823,0,0,0-.574-.27c-1.376-.5-3.872-2.585-4.216-4.082.491,2.148,2.468,3.655,4.01,5.04,1.468,1.325,2.634,2.925,4.129,4.236C280.52,93.889,280.836,93.643,280.63,93.461Z" transform="translate(-147.326 -45.21)"/><path class="u" d="M360.038,75.351a7.671,7.671,0,0,0-5.506-2.111c-1.8,0-4.712.274-5.923,1.776-.358.465.092,1.195.647.851a11.155,11.155,0,0,1,10.718-.465.041.041,0,0,0,.047-.015.042.042,0,0,0,0-.05Z" transform="translate(-188.599 -39.212)"/><path class="c" d="M311.807,85.635a11.954,11.954,0,0,1-3.12,1.144,22.2,22.2,0,0,1-4.129-.228s-1.72-.26-2-.288a8.225,8.225,0,0,1-1.565-1.181,5.329,5.329,0,0,1,2.45-1.86,9.292,9.292,0,0,1,3.056-.511l2.138.516S311.219,84.654,311.807,85.635Z" transform="translate(-162.895 -44.279)"/><path class="d" d="M317.909,84.107a8.75,8.75,0,0,1,1.739,1.311.53.53,0,0,1,.133.186.469.469,0,0,1-.133.4,8.017,8.017,0,0,1-1.656,1.651,11.509,11.509,0,0,0,3.129-1.144A7.983,7.983,0,0,0,317.79,84l.252.121Z" transform="translate(-171.989 -44.969)"/><path class="m" d="M311.588,83.622a1.811,1.811,0,0,1,.193,1.455,2.206,2.206,0,0,1-.647,1.311l-.7.372-1.578-.2a2.894,2.894,0,0,1-.918-1.055,3.721,3.721,0,0,1-.138-1.544l.587-1.111,1.886-.2S311.445,82.906,311.588,83.622Z" transform="translate(-166.567 -44.247)"/><path class="n" d="M311.672,88.862A2.554,2.554,0,0,0,312.69,88c.17-.312.4-.79.055-1.069a.558.558,0,0,0-.587-.065c-.239.121-.362.391-.532.6a.885.885,0,0,1-.785.339c-.184-.033-.353-.144-.532-.112a.463.463,0,0,0-.335.4c-.087.735,1.06,1.042,1.574.823Z" transform="translate(-167.757 -46.473)"/><path class="o" d="M307.829,84.25a2.186,2.186,0,0,1,.807-1.181,2.269,2.269,0,0,1,2.1-.3,2.168,2.168,0,0,1,1.023.763,2.092,2.092,0,0,1,0,2.506,2.149,2.149,0,0,1-1.028.758,2.237,2.237,0,0,1-2.1-.3,2.186,2.186,0,0,1-.807-1.181,1.793,1.793,0,0,1-.064-.535A1.766,1.766,0,0,1,307.829,84.25Zm0,1.06a1.854,1.854,0,0,0,.872,1.074,2.025,2.025,0,0,0,.885.246,1.906,1.906,0,0,0,1.688-.9,1.812,1.812,0,0,0,.271-.93,1.77,1.77,0,0,0-.271-.967,1.911,1.911,0,0,0-2.565-.651,1.854,1.854,0,0,0-.872,1.074,1.722,1.722,0,0,0-.078.525,1.746,1.746,0,0,0,.083.525Z" transform="translate(-166.561 -44.238)"/><path class="p" d="M309.9,85.8a1.088,1.088,0,0,0,.659,1.009,1.063,1.063,0,0,0,1.172-.233,1.1,1.1,0,0,0,.235-1.186,1.074,1.074,0,0,0-.992-.673,1.062,1.062,0,0,0-.759.316A1.091,1.091,0,0,0,309.9,85.8Z" transform="translate(-167.719 -45.354)"/><path class="q" d="M307.153,83.841a1.025,1.025,0,0,0,.424,1.1.994.994,0,0,0,1.167-.049,1.027,1.027,0,0,0,.333-1.135,1.006,1.006,0,0,0-.951-.687A.888.888,0,0,0,307.153,83.841Z" transform="translate(-166.216 -44.47)"/><path class="q" d="M308.27,86.934c0,.191.225.339.5.339s.5-.149.5-.339-.225-.344-.5-.344S308.27,86.743,308.27,86.934Z" transform="translate(-166.837 -46.355)"/><path class="r" d="M313.16,89.442c0,.093.11.172.248.172s.252-.079.252-.172-.11-.172-.252-.172S313.16,89.344,313.16,89.442Z" transform="translate(-169.483 -47.788)"/><path class="a" d="M309.8,80.639c-1.34-1.121-3.01-2.516-4.8-2.655a12.517,12.517,0,0,0-3.505.279,5.544,5.544,0,0,0-2.45,1.86,3.548,3.548,0,0,1-1.129-3.971,2.656,2.656,0,0,1,.716-.883,6.048,6.048,0,0,1,4.547-1.241,10.733,10.733,0,0,1,4.482,1.73c-1.918-.656-4.542-1.218-6.487-.372-.083.033-.174.079-.2.163a.278.278,0,0,0,0,.172,6.708,6.708,0,0,0,.349,1.023.362.362,0,0,0,.11.158.345.345,0,0,0,.193.037,14.87,14.87,0,0,1,3.372.121,7.538,7.538,0,0,1,4.8,3.58Z" transform="translate(-161.099 -39.604)"/><path class="j" d="M311.641,85.468c-1.721-1.2-3-2.706-5.276-2.734a9.7,9.7,0,0,0-5.662,2.027c-.248.177-.518-.2-.317-.414A7.416,7.416,0,0,1,311.71,85.4C311.737,85.44,311.678,85.5,311.641,85.468Z" transform="translate(-162.532 -43.996)"/><path class="s" d="M303.976,90.944a16.1,16.1,0,0,1,2.918.037c1.257.112,2.537.074,3.78.228.133,0,.188.219.037.256-2.253.535-4.492-.521-6.735-.465-.028,0-.028-.037,0-.042Z" transform="translate(-164.501 -48.658)"/><path class="u" d="M298.44,75.351a7.717,7.717,0,0,1,5.506-2.111c1.8,0,4.712.274,5.923,1.776.358.465-.1,1.195-.647.851A11.155,11.155,0,0,0,298.5,75.4a.041.041,0,0,1-.053-.01.042.042,0,0,1,0-.055Z" transform="translate(-161.517 -39.212)"/><path class="k" d="M246.674,473.771c5.964,2.911,11.888,5.412,17.434,9.1,6.1,4.041,11.2,8.969,16.375,14.084.56.553,1.331-.265.844-.856-8.483-10.206-21.651-19.394-34.52-22.64-.184-.047-.321.232-.133.321Z" transform="translate(-133.452 -253.339)"/><path class="k" d="M344.083,497.518c10.685-12.685,23.174-22.654,38.732-28.452.895-.335.5-1.8-.4-1.465-15.388,5.775-29.464,15.712-38.778,29.568a.292.292,0,0,0,.459.349Z" transform="translate(-185.954 -250.178)"/><path class="k" d="M316.9,512.025c1.308,4.65,5.386,12.382,11.4,10.388a.555.555,0,0,0,.348-.67.546.546,0,0,0-.637-.4c-6.368.874-7.937-5.236-10.988-9.374a.064.064,0,0,0-.085-.035.066.066,0,0,0-.034.086Z" transform="translate(-171.507 -273.924)"/></g></svg>