<svg xmlns="http://www.w3.org/2000/svg" width="205.041" height="158.899" viewBox="0 0 205.041 158.899"><defs><style>.a{fill:#fec165;}.b{fill:#fdb441;}.c{fill:#ee6161;}.d{fill:#cb3f3f;}</style></defs><path class="a" d="M245.733,32.564a53.555,53.555,0,0,1,72.378-22.313l97.907,51.765a53.556,53.556,0,0,1-50.065,94.691l-97.908-51.765a53.555,53.555,0,0,1-22.313-72.377Z" transform="translate(-239.512 -4.03)"/><path class="b" d="M438.853,134.4c-.458.869-.938,1.721-1.458,2.558a53.567,53.567,0,0,0-26.972-60.2l-97.9-51.765A53.537,53.537,0,0,0,241.6,44.742,53.579,53.579,0,0,1,318.63,10.25l97.91,51.765A53.562,53.562,0,0,1,438.853,134.4Z" transform="translate(-240.031 -4.029)"/><path class="c" d="M342.643,141.449l50.065-94.691,48.954,25.883A53.556,53.556,0,1,1,391.6,167.332Z" transform="translate(-265.155 -14.654)"/><path class="d" d="M478.089,145.021c-.256.488-.527.969-.8,1.45-.21.372-.434.745-.659,1.109a53.567,53.567,0,0,0-26.972-60.2L399.4,60.8l7.42-14.041,48.959,25.879A53.561,53.561,0,0,1,478.089,145.021Z" transform="translate(-279.267 -14.655)"/></svg>