<svg xmlns="http://www.w3.org/2000/svg" width="48.439" height="42.766" viewBox="0 0 48.439 42.766"><defs><style>.a{fill:teal;}</style></defs><g transform="translate(0 -29.982)"><path class="a" d="M37.077,41.345V29.982H11.362V41.345H0v31.4H48.439v-31.4ZM2.838,69.91V44.183h8.524V69.91Zm25.643,0H25.639v-3h2.843Zm-5.681,0H19.958v-3H22.8Zm11.438,0H31.32V64.069H17.12V69.91H14.2V32.82H34.239Zm11.362,0H37.077V44.183H45.6Z" transform="translate(0 0)"/><path class="a" d="M213.806,98.588h2.838V95.746h2.842V92.908h-2.842V90.066h-2.838v2.842h-2.842v2.838h2.842Z" transform="translate(-191.005 -54.4)"/><path class="a" d="M60.036,270.186h2.841v2.838H60.036Z" transform="translate(-54.356 -217.479)"/><path class="a" d="M60.036,330.234h2.841v2.838H60.036Z" transform="translate(-54.356 -271.846)"/><path class="a" d="M421.94,270.186h2.84v2.838h-2.84Z" transform="translate(-382.021 -217.479)"/><path class="a" d="M60.036,210.138h2.841v2.838H60.036Z" transform="translate(-54.356 -163.112)"/><path class="a" d="M421.94,210.138h2.84v2.838h-2.84Z" transform="translate(-382.021 -163.112)"/><path class="a" d="M421.94,330.234h2.84v2.838h-2.84Z" transform="translate(-382.021 -271.846)"/><path class="a" d="M240.988,210.138h2.841v2.838h-2.841Z" transform="translate(-218.189 -163.112)"/><path class="a" d="M180.94,210.138h2.841v2.838H180.94Z" transform="translate(-163.822 -163.112)"/><path class="a" d="M301.036,210.138h2.84v2.838h-2.84Z" transform="translate(-272.556 -163.112)"/><path class="a" d="M240.988,270.186h2.841v2.838h-2.841Z" transform="translate(-218.189 -217.479)"/><path class="a" d="M180.94,270.186h2.841v2.838H180.94Z" transform="translate(-163.822 -217.479)"/><path class="a" d="M301.036,270.186h2.84v2.838h-2.84Z" transform="translate(-272.556 -217.479)"/><path class="a" d="M240.988,330.234h2.841v2.838h-2.841Z" transform="translate(-218.189 -271.846)"/><path class="a" d="M180.94,330.234h2.841v2.838H180.94Z" transform="translate(-163.822 -271.846)"/><path class="a" d="M301.036,330.234h2.84v2.838h-2.84Z" transform="translate(-272.556 -271.846)"/></g></svg>