<svg xmlns="http://www.w3.org/2000/svg" width="53.948" height="53.954" viewBox="0 0 53.948 53.954"><defs><style>.a{fill:teal;}</style></defs><g transform="matrix(0.985, -0.174, 0.174, 0.985, 0, 8.086)"><path class="a" d="M46.564,3.457A3.453,3.453,0,0,0,43.112.006L29.437,0h0a3.453,3.453,0,0,0,0,6.906l5.345,0-9.64,9.64a16.321,16.321,0,1,0,4.882,4.878l9.64-9.639v5.348a3.452,3.452,0,0,0,3.453,3.451h0a3.452,3.452,0,0,0,3.451-3.454Zm-23.6,33.46a9.416,9.416,0,1,1,2.754-6.658A9.357,9.357,0,0,1,22.961,36.917Z" transform="translate(0)"/></g></svg>