<svg xmlns="http://www.w3.org/2000/svg" xmlns:xlink="http://www.w3.org/1999/xlink" width="1366" height="768" viewBox="0 0 1366 768"><defs><style>.a{fill:#fff;stroke:#707070;}.b{opacity:0.6;fill:url(#a);}.c{clip-path:url(#b);}.d{opacity:0.2;}.e{opacity:0.61;}.f{opacity:0;}.g{fill:#30d5c8;}.h{opacity:0.05;}.i{opacity:0.1;}.j{opacity:0.14;}.k{opacity:0.19;}.l{opacity:0.24;}.m{opacity:0.29;}.n{opacity:0.33;}.o{opacity:0.38;}.p{opacity:0.43;}.q{opacity:0.48;}.r{opacity:0.52;}.s{opacity:0.57;}.t{opacity:0.62;}.u{opacity:0.67;}.v{opacity:0.71;}.w{opacity:0.76;}.x{opacity:0.81;}.y{opacity:0.86;}.z{opacity:0.9;}.aa{opacity:0.95;}</style><linearGradient id="a" x1="0.482" y1="0.62" x2="0.489" y2="1.859" gradientUnits="objectBoundingBox"><stop offset="0" stop-color="#fff"/><stop offset="1" stop-color="#30d5c8" stop-opacity="0.129"/></linearGradient><clipPath id="b"><rect class="a" width="1366" height="532" transform="translate(-60 37.241)"/></clipPath></defs><rect class="b" width="1366" height="768"/><g class="c" transform="translate(60 198.759)"><g class="d" transform="translate(-377.025 80.27)"><g transform="translate(0 -0.029)"><g class="e"><g class="f" transform="translate(0 67.661)"><path class="g" d="M1552.248,322.206a478.94,478.94,0,0,1-140.215-20.274c-57.313-17.451-103.549-54.1-148.235-89.549-35.294-27.961-71.725-56.862-113.509-76.313-45.863-21.353-144.235-48-287.548,13.314-90.8,38.823-193.705,82.843-295.567,58.294-80.255-19.314-130.411-61.51-174.685-98.745-49.019-41.314-91.549-77-161.254-72.039-80.568,5.725-157.784,63-229.607,170.215L0,206.088C72.157,98.246,149.882,40.717,231.019,34.952c70.588-5.039,113.215,30.882,162.744,72.549,44.117,37.1,94.117,79.137,173.882,98.352,101.235,24.372,203.921-19.49,294.332-58.2,49.137-21,97.549-33.49,143.882-37.1,53.549-4.176,102.451,3.922,145.352,23.8,42,19.608,78.549,48.529,113.9,76.568,44.549,35.294,90.627,71.862,147.588,89.215,102.529,31.2,218.019,26.2,343.273-14.882a1027.974,1027.974,0,0,0,179.117-79.47l.96,1.706a1032.158,1032.158,0,0,1-179.469,79.647C1685.051,310.48,1616.777,322.206,1552.248,322.206Z" transform="translate(0 -34.479)"/></g><g class="h" transform="translate(11.51 80.947)"><path class="g" d="M1569.118,314.872a507.835,507.835,0,0,1-161.47-25.49c-55.47-18.529-100.862-54.745-144.745-89.764-21.667-17.294-44.058-35.176-67.451-50.764a317.862,317.862,0,0,0-49.274-27.274,216.878,216.878,0,0,0-55.863-15.529,312.53,312.53,0,0,0-94.509,1.529c-39.706,6.51-81.392,20.314-123.882,41.019-24.078,11.765-49.784,24.235-76.313,35.294a513.116,513.116,0,0,1-62.9,22.1,346.04,346.04,0,0,1-66.529,11.549,277.978,277.978,0,0,1-86.117-6.961,358.056,358.056,0,0,1-105.313-45.1c-25.745-16.176-47.745-33.843-69.039-50.98C363.1,80.285,326.32,50.736,274.339,44.363a176.862,176.862,0,0,0-33.451-.8C159.262,49.05,80.713,104.539,7.4,208.519l-1.529-1.1C79.517,103.01,158.575,47.226,240.81,41.7a180.784,180.784,0,0,1,33.823.8c52.47,6.451,89.47,36.157,132.293,70.588,21.255,17.059,43.137,34.706,68.862,50.8a356.019,356.019,0,0,0,104.843,44.843,276.469,276.469,0,0,0,85.509,6.9,343.133,343.133,0,0,0,66.137-11.471,514,514,0,0,0,62.745-22.02c26.47-11.02,52.137-23.529,76.2-35.294,42.666-20.863,84.529-34.725,124.431-41.176a315.137,315.137,0,0,1,95.1-1.529,217.647,217.647,0,0,1,56.372,15.686,315.849,315.849,0,0,1,49.568,27.451c23.529,15.686,45.9,33.549,67.588,50.843,43.764,34.921,89,71.039,144.156,89.451,67.078,22.412,140.235,30.019,217.411,22.568a717.067,717.067,0,0,0,120.372-22.49A920.483,920.483,0,0,0,1922.136,220.5l.882,1.745a922.6,922.6,0,0,1-176.293,67.313,721.178,721.178,0,0,1-120.686,22.549Q1597.118,314.872,1569.118,314.872Z" transform="translate(-5.87 -41.255)"/></g><g class="i" transform="translate(23 94.216)"><path class="g" d="M1589.742,308.566c-66.235,0-128.823-10.588-186.47-31.608-53.588-19.608-98.039-55.274-141.078-89.843-22.608-18.157-45.98-36.921-70.47-53.215a278.788,278.788,0,0,0-49.667-26.666,180.391,180.391,0,0,0-54.9-12.373,307.724,307.724,0,0,0-89.274,6.823c-37.255,8.314-76.47,23.882-116.764,46.274-22.667,12.706-47.235,26.1-73.1,38.117a427.3,427.3,0,0,1-61.961,23.8,307.04,307.04,0,0,1-66.666,11.529,282.626,282.626,0,0,1-86.274-7.843,379.47,379.47,0,0,1-105.882-45.1c-25.353-15.431-47.314-32.255-68.627-48.529-43.823-33.588-81.666-62.608-134.333-68.823a185.318,185.318,0,0,0-33.588-.784C167.984,55.665,88.1,109.41,13.3,210.135l-1.569-1.176C86.887,107.743,167.259,53.744,250.611,48.45a185.821,185.821,0,0,1,33.961.8c53.2,6.274,91.235,35.431,135.293,69.2,21.2,16.255,43.137,33.039,68.372,48.431a377.784,377.784,0,0,0,105.294,44.8,281.291,281.291,0,0,0,85.706,7.843,304.094,304.094,0,0,0,66.353-11.549,421.119,421.119,0,0,0,61.686-23.686c25.8-11.98,50.313-25.372,72.98-38.039,40.392-22.49,79.862-38.117,117.274-46.49a308.822,308.822,0,0,1,89.843-6.843,182.059,182.059,0,0,1,55.451,12.49,281.534,281.534,0,0,1,50,26.882c24.549,16.333,47.961,35.137,70.588,53.313,42.9,34.47,87.255,70.1,140.548,89.529,65.529,23.9,137.548,34.294,214.019,30.863,35.843-1.608,74.51-6.784,118.274-15.843,62.549-12.961,120.666-31.372,172.725-54.9l.8,1.8c-52.2,23.529-110.431,42-173.117,54.9-43.843,9.078-82.647,14.274-118.607,15.882Q1603.8,308.586,1589.742,308.566Z" transform="translate(-11.73 -48.022)"/></g><g class="j" transform="translate(34.51 107.505)"><path class="g" d="M1614.024,303.76h-3.784c-76.764-.529-145.9-13.372-211.352-39.215-51.666-20.471-95.176-55.686-137.254-89.725-23.529-19.1-47.98-38.823-73.666-55.882a248.589,248.589,0,0,0-49.98-26.137c-19.706-7.274-37.8-10.373-53.784-9.2l-1.588.118c-28.333,2.078-55.078,4.039-82.509,12-34.51,10.02-71.392,27.451-109.627,51.529-19.922,12.686-43.823,27.451-69.9,40.921a357.546,357.546,0,0,1-61.039,25.49,276.645,276.645,0,0,1-66.98,11.529,287.9,287.9,0,0,1-86.49-8.667c-36.627-9.431-70.431-23.725-106.333-44.98-24.823-14.686-46.588-30.588-67.627-45.98-45.1-33.039-84.215-61.588-137.8-67.647a194.447,194.447,0,0,0-33.725-.784c-83.941,5.039-165.156,57.019-241.45,154.509L17.6,210.427C94.247,112.486,175.933,60.251,260.422,55.193a198.314,198.314,0,0,1,34.059.784C348.579,62.114,387.814,90.8,433.226,124c21,15.372,42.725,31.255,67.451,45.882,35.765,21.157,69.392,35.294,105.882,44.764a287.313,287.313,0,0,0,85.921,8.627,275.039,275.039,0,0,0,66.51-11.471,355.749,355.749,0,0,0,60.686-25.372c26.019-13.412,49.862-28.157,69.764-40.843C927.812,121.31,964.87,103.9,999.556,93.839c27.627-8.02,54.49-10,82.921-12.078l1.588-.118c16.255-1.2,34.627,1.961,54.608,9.314a250.67,250.67,0,0,1,50.451,26.274c25.745,17.1,50.176,36.863,73.8,55.98,41.941,33.961,85.333,69.078,136.725,89.431,65.215,25.823,134.117,38.627,210.626,39.215,34.137.216,71.039-2.686,116.215-9.2,64.941-9.353,120.392-23.255,169.509-42.549l.725,1.843c-49.274,19.314-104.862,33.333-169.94,42.647C1683.083,300.819,1647.161,303.76,1614.024,303.76Z" transform="translate(-17.6 -54.8)"/></g><g class="k" transform="translate(46 120.781)"><path class="g" d="M1638.511,300.608c-11.765,0-23.9-.294-36.1-1.039-75.725-4.549-143.725-20.118-207.842-47.588-49.706-21.294-92.156-55.921-133.215-89.411-24.647-20.1-50.117-40.882-77.039-58.823a222.7,222.7,0,0,0-50.431-25.49,126.959,126.959,0,0,0-52.823-6.059,308.389,308.389,0,0,0-78.8,17.412c-32.51,12.02-65.98,30.627-102.549,56.921a752.788,752.788,0,0,1-66.666,43.745,308.033,308.033,0,0,1-60.1,27.216,252.645,252.645,0,0,1-67.235,11.588,294.547,294.547,0,0,1-86.706-9.549c-36.117-9.51-70.078-23.784-106.843-44.9-24.2-13.9-45.686-28.9-66.47-43.392C399.027,98.687,358.772,70.589,304.2,64.668a206.57,206.57,0,0,0-33.863-.765c-85.039,4.8-167.587,55-245.371,149.235L23.46,211.9c78.137-94.686,161.176-145.1,246.764-149.96a206.234,206.234,0,0,1,34.2.784c55.059,5.882,97.49,35.549,142.391,66.862,20.765,14.471,42.216,29.412,66.333,43.294,36.608,21.039,70.411,35.294,106.372,44.725a292.532,292.532,0,0,0,86.117,9.51A250.98,250.98,0,0,0,772.3,215.667a305.882,305.882,0,0,0,59.706-27.059,743.586,743.586,0,0,0,66.549-43.627c36.647-26.412,70.333-45.1,102.96-57.039a309.92,309.92,0,0,1,79.294-17.51,128.569,128.569,0,0,1,53.647,6.137A224.706,224.706,0,0,1,1185.3,102.2c27,17.9,52.529,38.725,77.2,58.823,40.961,33.333,83.294,67.941,132.745,89.137,63.96,27.451,131.745,42.9,207.234,47.451,41,2.451,80.705,0,114.137-2.549,67.2-5.294,120.039-14.9,166.313-30.235l.627,1.863c-46.392,15.333-99.372,25.137-166.725,30.353C1693.256,298.883,1666.59,300.608,1638.511,300.608Z" transform="translate(-23.46 -61.57)"/></g><g class="l" transform="translate(57.51 122.917)"><path class="g" d="M1734.557,305.816q-13.961,0-27.8-.843c-14.647-.882-29.176-1-44.549-1.118-22-.176-44.764-.353-67.705-3-74.647-8.588-141.529-26.882-204.43-55.9-47.667-22.02-88.843-56.019-128.862-88.882-25.765-21.176-52.392-43.137-80.666-61.8a200.3,200.3,0,0,0-50.8-24.843,106.882,106.882,0,0,0-51.8-2.9,314.251,314.251,0,0,0-73.588,22.706c-29.568,13.451-60.784,33.745-95.372,62.039a629.855,629.855,0,0,1-63.509,46.549,272.018,272.018,0,0,1-59.157,28.941,232.571,232.571,0,0,1-67.431,11.549,300.9,300.9,0,0,1-86.882-10.392c-35.569-9.569-69.666-23.823-107.353-44.863-23.529-13.1-44.627-27.137-65.078-40.725-48.2-31.941-89.705-59.666-145.411-65.451a215.529,215.529,0,0,0-34.019-.765c-86.176,4.569-170.058,52.941-249.332,144l-1.471-1.274c79.627-91.411,164.058-140.078,250.7-144.666a216.98,216.98,0,0,1,34.314.745c56.1,5.882,99.9,34.961,146.293,65.784,20.412,13.549,41.529,27.569,64.941,40.647,37.549,20.961,71.529,35.157,107.019,44.725A298.352,298.352,0,0,0,718.876,236.4a230.1,230.1,0,0,0,66.862-11.451,269.937,269.937,0,0,0,58.823-28.725A626.559,626.559,0,0,0,907.875,149.8c34.529-28.451,65.9-48.843,95.666-62.353A317.017,317.017,0,0,1,1077.56,64.6a109,109,0,0,1,52.745,2.941,202.292,202.292,0,0,1,51.313,25.078c28.353,18.784,55.039,40.725,80.823,61.941,39.863,32.784,81.058,66.666,128.529,88.607,62.745,28.941,129.411,47.176,203.921,55.725,22.843,2.647,45.529,2.824,67.49,3,15.412.118,29.961.235,44.647,1.118,52.451,3.176,105.882-2.667,163.039-17.922l.51,1.961C1823.126,299.6,1778.4,305.816,1734.557,305.816Z" transform="translate(-29.33 -62.659)"/></g><g class="m" transform="translate(69.039 116.336)"><path class="g" d="M1763.908,319.492c-22.47,0-44.98-.98-66.941-2.235-33.333-1.961-71.255-4.1-110.215-10.8-73.529-12.706-139.352-33.706-200.979-64.274-45.627-22.608-85.706-55.9-124.45-88.078-26.941-22.372-54.784-45.49-84.509-65.137a182.958,182.958,0,0,0-51.176-24.235,91.451,91.451,0,0,0-50.784.255,319.315,319.315,0,0,0-68.353,28c-26.9,14.98-54.9,36.353-88.235,67.274a542.225,542.225,0,0,1-60.353,49.431A242.02,242.02,0,0,1,799.7,240.355a215.685,215.685,0,0,1-67.666,11.529,306.605,306.605,0,0,1-87.078-11.255c-45.823-12.588-83.509-31.588-107.843-44.784-22.686-12.294-43.372-25.372-63.372-38.039-49.843-31.549-92.882-58.823-149.646-64.431a224.879,224.879,0,0,0-34.157-.725c-87.313,4.314-172.548,50.98-253.293,138.744l-1.431-1.333C116.327,141.924,201.994,95.042,289.836,90.689a228.769,228.769,0,0,1,34.451.725C381.5,97.121,426.816,125.787,474.8,156.12c19.961,12.627,40.608,25.706,63.255,37.961,24.255,13.157,61.8,32.078,107.45,44.627a304.664,304.664,0,0,0,86.529,11.176,213.726,213.726,0,0,0,67.039-11.431,239.847,239.847,0,0,0,57.745-30.412,542.393,542.393,0,0,0,60.1-49.215c33.431-31.039,61.588-52.51,88.627-67.549A321.138,321.138,0,0,1,1074.3,63.1a93.392,93.392,0,0,1,51.843-.255,183.7,183.7,0,0,1,51.784,24.49c29.823,19.608,57.706,42.863,84.686,65.255,38.667,32.117,78.647,65.313,124.058,87.843,61.49,30.47,127.058,51.411,200.47,64.039,38.843,6.667,76.647,8.843,109.98,10.765,52.941,3.039,108.921,4.451,159.921-5.608l.392,1.961C1827.378,317.531,1795.673,319.492,1763.908,319.492Z" transform="translate(-35.21 -59.303)"/></g><g class="n" transform="translate(80.549 109.379)"><path class="g" d="M1799.974,338.842c-32.9,0-69.353-3.647-112.941-9.255l-6.8-.882c-32.627-4.2-66.392-8.51-101.313-16.588-72.549-16.725-137.254-40.451-197.548-72.549-43.49-23.1-82.215-55.588-119.607-87.019-28.2-23.647-57.333-48.1-88.627-68.627-17.647-11.627-34.98-19.608-51.549-23.627a79.275,79.275,0,0,0-49.765,3.373A329.824,329.824,0,0,0,1008.7,97c-30.725,20.784-59.49,49.686-81.137,72.549a472.908,472.908,0,0,1-57.235,52.117c-19.47,14.824-38.215,25.49-57.274,32.372a201.683,201.683,0,0,1-67.882,11.549,313.487,313.487,0,0,1-87.294-12.118c-44.294-12.431-81.176-30.431-108.372-44.725-21.765-11.451-41.863-23.529-61.294-35.294-49.47-29.8-96.215-57.98-154.254-63.49a243.356,243.356,0,0,0-34.216-.686c-88.451,4.1-175,49.019-257.254,133.509l-1.412-1.373c82.627-84.862,169.627-129.98,258.567-134.1a241.666,241.666,0,0,1,34.588.725c58.47,5.549,105.392,33.823,155.078,63.764,19.392,11.765,39.47,23.784,61.2,35.2,27.1,14.255,63.862,32.2,107.98,44.588a311.234,311.234,0,0,0,86.745,12.039A199.8,199.8,0,0,0,812.469,252.2c18.882-6.882,37.431-17.372,56.745-32.078A470.907,470.907,0,0,0,926.076,168.1c21.706-22.921,50.588-51.921,81.47-72.823a332.411,332.411,0,0,1,63.47-33.49A81.353,81.353,0,0,1,1122,58.314c16.8,4.118,34.353,12.157,52.176,23.9,31.372,20.686,60.568,45.1,88.8,68.882,37.392,31.372,76.039,63.784,119.352,86.784,60.235,31.961,124.705,55.627,197.058,72.333,34.843,8.039,68.627,12.372,101.137,16.549l6.784.863c63.862,8.235,112.352,12.235,156.744,6.706l.235,1.961a358.261,358.261,0,0,1-44.313,2.549Z" transform="translate(-41.08 -55.755)"/></g><g class="o" transform="translate(92 102.135)"><path class="g" d="M1817.657,361.45c-41.549,0-86.823-8.451-140.568-19.333l-14.333-2.882c-29.549-5.882-60.1-12.02-91.725-21.255-71.451-20.843-134.941-47.274-194.117-80.8-41.294-23.431-78.568-55.059-114.627-85.647-29.529-25.039-60.078-50.98-93.039-72.647-17.647-11.569-35.529-19.608-51.921-23.019a69.9,69.9,0,0,0-48.686,6.49,342.094,342.094,0,0,0-57.862,38.608c-25.941,21.294-50.98,49.98-74.019,77.8a415.956,415.956,0,0,1-53.9,55.059A199.45,199.45,0,0,1,826.524,267.9a189.51,189.51,0,0,1-68.117,11.49,319.785,319.785,0,0,1-87.47-12.961c-42.823-12.274-79.078-29.412-108.882-44.666-20.745-10.588-40.1-21.686-58.823-32.412-51.353-29.412-99.823-57.255-159.274-62.627a251.893,251.893,0,0,0-34.451-.706c-89.568,3.922-177.47,47.059-261.215,128.274l-1.373-1.412c84.117-81.607,172.431-124.941,262.509-128.823a258.556,258.556,0,0,1,34.686.706C404,130.177,452.663,158.1,504.192,187.647c18.706,10.725,38.039,21.8,58.725,32.372,29.725,15.157,65.882,32.294,108.529,44.51a316.939,316.939,0,0,0,86.96,12.9h1.157a186.665,186.665,0,0,0,66.255-11.412A198.037,198.037,0,0,0,881.6,232.333a414.489,414.489,0,0,0,53.706-54.9c23.176-27.9,48.216-56.666,74.294-78.059a342.7,342.7,0,0,1,58.215-38.823,71.725,71.725,0,0,1,50-6.647c16.647,3.549,34.824,11.608,52.608,23.294,33.059,21.8,63.647,47.745,93.215,72.784,36,30.529,73.215,62.1,114.352,85.431,59.019,33.451,122.372,59.843,193.666,80.627,31.549,9.216,62.059,15.314,91.568,21.216l14.294,2.882c59.47,12.039,108.548,21.1,153.548,18.98v1.961Q1824.5,361.47,1817.657,361.45Z" transform="translate(-46.92 -52.06)"/></g><g class="p" transform="translate(103.529 94.798)"><path class="g" d="M1818.027,386.045c-44.078-1.569-93.313-15.314-150.333-31.235l-.51-.137-20.216-5.569c-26.961-7.353-54.9-14.961-83.705-25.216-70.372-24.961-132.725-54.117-190.646-89.117-39.02-23.529-74.725-54.255-109.274-83.9-30.961-26.588-62.961-54.059-97.745-76.921-17.765-11.765-35.863-19.412-52.314-22.412a62.352,62.352,0,0,0-47.705,9.608,348.19,348.19,0,0,0-52.667,43.9c-22.137,22.02-42.529,49.47-66.9,83.078a377.173,377.173,0,0,1-50.725,57.882c-17.8,16.274-36.431,28.333-55.392,35.8a179.745,179.745,0,0,1-68.333,11.549A326.2,326.2,0,0,1,683.9,279.634c-41.176-12.059-76.961-28.568-109.392-44.608-19.51-9.647-37.941-19.706-55.784-29.412C465.347,176.5,414.936,148.988,353.9,143.733a276.977,276.977,0,0,0-34.588-.686c-90.921,3.922-180.136,45.215-265.175,123.039L52.8,264.634C138.192,186.5,227.838,144.929,319.23,141.105a276.89,276.89,0,0,1,34.823.706c61.451,5.274,112.039,32.882,165.607,62.1,17.823,9.8,36.235,19.765,55.725,29.412,32.353,16,67.941,32.451,109.058,44.47A324.877,324.877,0,0,0,771.6,291.516,178.214,178.214,0,0,0,839.189,280.1c18.725-7.392,37.157-19.314,54.784-35.431a376.021,376.021,0,0,0,50.451-57.764c24.412-33.686,44.862-61.215,67.117-83.333a349.768,349.768,0,0,1,52.941-44.137,64.235,64.235,0,0,1,49.157-9.784c16.706,3.039,35.059,10.882,52.941,22.706,34.882,22.921,66.941,50.451,98.039,77.058,34.49,29.608,70.137,60.215,109.019,83.725,57.8,34.921,120.039,64.019,190.293,88.941,28.784,10.216,56.627,17.823,83.549,25.176q10.274,2.8,20.235,5.569l.51.137c56.862,15.882,106.039,29.588,149.862,31.157Z" transform="translate(-52.8 -48.319)"/></g><g class="q" transform="translate(115.058 87.297)"><path class="g" d="M1804.888,411.034c-39.647-4.922-84.019-20.863-135.293-39.333l-12.255-4.392q-12.323-4.412-25.2-8.843c-24.765-8.608-50.294-17.49-76.764-28.667-69.215-29.019-130.45-60.784-187.136-97.333-36.686-23.529-70.588-53.176-103.568-81.784-32.49-28.255-66.078-57.47-102.8-81.568-17.98-11.765-36.2-19.333-52.686-21.823-17.745-2.667-33.47,1.608-46.725,12.725-18.294,15.333-32.2,30.765-47.412,49.2-18.039,21.843-35.039,48.9-52.941,77.568l-6.784,10.8a342.667,342.667,0,0,1-47.51,60.784c-17.1,17.078-35.412,29.706-54.451,37.529-19.98,8.2-43.706,12.176-68.627,11.529a332.352,332.352,0,0,1-87.843-14.686c-41.451-12.353-78.431-29.412-109.9-44.529-18.1-8.667-35.392-17.647-52.137-26.333-55.627-28.863-108.176-56.137-171.019-61.255a291.077,291.077,0,0,0-34.725-.667c-92.156,3.569-182.627,43.137-269.156,117.764l-1.275-1.49C145.542,201.369,236.5,161.584,329.032,158a295.061,295.061,0,0,1,34.961.667c63.235,5.157,115.96,32.51,171.784,61.47,16.706,8.686,33.98,17.647,52.059,26.314,31.372,15.039,68.313,32.1,109.607,44.431a331.937,331.937,0,0,0,87.353,14.51c24.568.647,48.019-3.294,67.764-11.392,18.784-7.706,36.9-20.2,53.8-37.1a340.487,340.487,0,0,0,47.215-60.431l6.784-10.784c18.019-28.725,35.039-55.843,53.157-77.784,15.314-18.51,29.274-34.019,47.686-49.451,13.725-11.49,29.941-15.921,48.255-13.157,16.784,2.529,35.294,10.176,53.47,22.118,36.863,24.176,70.49,53.451,103.019,81.745,32.843,28.568,66.784,58.1,103.353,81.607,56.588,36.372,117.646,68.2,186.881,97.254,26.373,11.078,51.863,19.961,76.47,28.529,8.569,3,16.98,5.882,25.216,8.863l12.255,4.392c51.255,18.431,95.529,34.333,134.96,39.215Z" transform="translate(-58.68 -44.493)"/></g><g class="r" transform="translate(126.548 79.696)"><path class="g" d="M1791.748,436.053c-35.764-7.843-75.882-25.647-122.333-46.274l-22.078-9.8c-9.588-4.235-19.294-8.353-29.568-12.725-22.608-9.627-45.98-19.608-70.157-31.372-68.137-33.333-128.255-67.843-183.744-105.725-34.235-23.372-66.392-51.745-97.47-79.176-34.117-30.118-69.392-61.235-108.254-86.705-18.2-11.9-36.549-19.235-53.078-21.216-17.961-2.157-33.333,3.176-45.706,15.823-16.372,16.725-28.294,33.863-42.176,54.51-13.392,19.882-25.921,43.47-39.216,68.451-4.392,8.235-8.863,16.667-13.49,25.176a316.015,316.015,0,0,1-44.294,63.549c-16.392,17.9-34.392,31.1-53.51,39.215-19.882,8.451-43.667,12.431-68.784,11.549a342.1,342.1,0,0,1-88.058-15.549c-39.1-11.9-74.51-27.823-110.411-44.47-16.412-7.627-32.294-15.471-47.647-23.039-58.176-28.706-113.117-55.823-178.038-60.784a308.528,308.528,0,0,0-34.863-.647c-93.038,3.176-184.842,41-273.1,112.549l-1.235-1.529c88.588-71.784,180.882-109.8,274.293-112.96a312.449,312.449,0,0,1,35.078.647C439.2,180.6,494.322,207.8,552.675,236.583c15.333,7.569,31.2,15.412,47.608,23.02,35.784,16.627,71.157,32.529,110.137,44.372a339.214,339.214,0,0,0,87.549,15.471c24.843.9,48.333-3.059,67.96-11.392,18.843-8.039,36.627-21.078,52.823-38.765a314.584,314.584,0,0,0,44.019-63.215c4.627-8.529,9.1-16.941,13.49-25.176,13.274-25.02,25.843-48.647,39.215-68.627,13.941-20.725,25.922-37.941,42.392-54.784,12.823-13.1,28.745-18.608,47.353-16.392,16.823,1.961,35.471,9.451,53.921,21.569,38.98,25.49,74.313,56.725,108.47,86.882,31.039,27.451,63.137,55.725,97.274,79.039,55.431,37.823,115.45,72.353,183.509,105.568,24.137,11.765,47.47,21.706,70.058,31.372,10.274,4.392,20,8.529,29.588,12.745q11.294,4.961,22.1,9.8c46.353,20.588,86.274,38.353,121.96,46.137Z" transform="translate(-64.54 -40.617)"/></g><g class="s" transform="translate(137.921 72.067)"><path class="g" d="M1778.685,461.065c-32.294-10.333-68.627-29.686-110.568-52.1-9.8-5.255-20.059-10.706-30.647-16.274s-21.941-11.294-33.686-17.255c-20.608-10.412-41.921-21.2-63.921-33.49a1814.38,1814.38,0,0,1-180.391-114c-31.686-22.941-61.8-49.941-90.941-76.059-35.843-32.157-72.921-65.411-114.137-92.372C1136,47.5,1117.511,40.381,1100.943,38.91a49.02,49.02,0,0,0-44.725,18.921c-14.039,17.373-23.431,34.745-34.274,54.9l-2.588,4.922c-9.8,18.137-18.922,38.9-28.549,60.882-5.412,12.353-11,25.118-17,38.039-12.118,26.137-25.49,47.843-41.176,66.392s-33.333,32.47-52.549,40.961c-19.784,8.725-43.647,12.725-69.019,11.549a345.275,345.275,0,0,1-88.235-16.392c-39.1-12.137-74.019-27.843-107.843-43.019l-3.137-1.412c-14.412-6.471-28.49-13.078-42.1-19.471-61.078-28.686-118.784-55.764-186.117-60.666a326.064,326.064,0,0,0-35.019-.647c-94.117,2.922-187.332,39.019-277.1,107.294L70.34,299.6c90.078-68.529,183.685-104.745,278.214-107.686a329.825,329.825,0,0,1,35.294.647c67.706,4.922,125.49,32.1,186.823,60.784,13.608,6.373,27.667,12.98,42.059,19.451l3.137,1.412c33.706,15.157,68.627,30.823,107.549,42.921a343.137,343.137,0,0,0,87.745,16.314c25.1,1.157,48.647-2.784,68.137-11.372,18.941-8.373,36.392-21.98,51.862-40.451a292.84,292.84,0,0,0,40.862-65.921c6-12.9,11.588-25.667,16.98-38,9.667-22.02,18.784-42.8,28.627-61.019l2.667-4.9c10.451-19.372,20.314-37.666,34.49-55.176,11.882-14.706,27.451-21.314,46.411-19.608,16.882,1.49,35.667,8.725,54.353,20.921,41.333,27.019,78.431,60.333,114.372,92.529,29.1,26.1,59.176,53.078,90.784,75.941a1812.3,1812.3,0,0,0,180.1,113.882c21.98,12.274,43.274,23.039,63.862,33.451,11.765,5.882,22.863,11.569,33.725,17.274s20.784,11,30.647,16.274c41.921,22.353,78.117,41.686,110.235,51.961Z" transform="translate(-70.34 -36.726)"/></g><g class="t" transform="translate(149.568 64.365)"><path class="g" d="M1765.468,486.134c-28.961-12.49-61.725-33-99.549-56.764-12.274-7.725-24.98-15.686-38.411-23.941-12.059-7.412-24.549-14.765-37.784-22.549-18.627-10.961-37.882-22.314-57.745-34.863-65.862-41.588-123.705-81.49-176.862-122.274-29.019-22.235-56.862-47.706-83.941-72.353-37.725-34.431-76.745-70.039-120.509-98.627-18.608-12.157-37.255-19.078-53.823-20.02-18.47-1.039-33.2,6.294-43.745,21.98-11.765,17.412-19.235,35.294-27.2,54.412-1.471,3.51-2.961,7.078-4.51,10.686-7.078,16.627-13.549,35.117-20.392,54.706-5.627,16.039-11.431,32.647-18.019,49.51-10.627,27.176-23.02,49.823-37.882,69.215S912.511,329.272,893.472,338c-19.608,9-43.608,13-69.235,11.549-28-1.549-56.862-7.2-88.431-17.255-35.843-11.333-68.529-25.627-100.156-39.431l-11.274-4.922c-11.941-5.2-23.725-10.471-35.137-15.569-64.47-28.823-125.372-56.039-195.607-60.784-11.765-.784-23.529-1-35.157-.627-95.235,2.686-189.8,37.019-281.058,101.96l-1.137-1.608c91.607-65.235,186.509-99.686,282.136-102.392q17.647-.559,35.294.627c70.588,4.843,131.627,32.137,196.274,61.039,11.392,5.1,23.2,10.372,35.117,15.549l11.274,4.922c31.568,13.725,64.215,28.059,100,39.372,31.372,10.02,60.117,15.686,87.96,17.157,25.294,1.431,48.9-2.51,68.313-11.372,18.745-8.569,36.333-23.137,50.862-42.1s27.059-41.725,37.608-68.627c6.588-16.843,12.392-33.431,18-49.47,6.863-19.608,13.353-38.117,20.451-54.8,1.549-3.608,3.039-7.157,4.51-10.686,7.98-19.118,15.549-37.255,27.451-54.745,10.961-16.274,26.274-23.98,45.49-22.882,16.941.98,35.882,8,54.784,20.333,43.882,28.667,82.96,64.313,120.764,98.8,26.961,24.608,54.9,50.059,83.784,72.235,53.117,40.666,110.921,80.627,176.725,122.2,19.823,12.529,39.078,23.863,57.686,34.823,13.235,7.843,25.725,15.157,37.823,22.569,13.431,8.255,26.137,16.235,38.431,23.941,37.765,23.725,70.392,44.216,99.294,56.627Z" transform="translate(-76.28 -32.798)"/></g><g class="u" transform="translate(161.078 56.412)"><path class="g" d="M1752.436,511.285c-25.961-14.2-55.215-35.49-89.078-60.117-14.49-10.549-29.412-21.451-45.686-32.882-13.392-9.471-27.451-18.941-42.314-29-16.51-11.137-33.568-22.647-51.117-35.059-65.529-46.372-120.627-87.862-173.411-130.588-26.215-21.216-51.725-44.961-76.47-67.9C1234.6,118.758,1193.5,80.5,1146.91,50.15c-18.823-12.274-37.608-18.941-54.157-19.412-18.765-.51-33.157,7.98-42.784,25.118-10.1,17.98-15.8,36.333-21.863,55.784-1.49,4.8-3,9.686-4.608,14.627-5,15.353-9.451,32.039-14.176,49.725-5.177,19.372-10.529,39.392-17.118,59.764-9.137,28.235-20.49,51.8-34.667,72.039s-31.529,35.294-50.666,44.431c-19.608,9.255-43.627,13.235-69.451,11.549-27.765-1.824-56.745-7.843-88.647-18.118-32.745-10.569-63.2-23.529-92.647-36.117-6.51-2.765-12.922-5.51-19.274-8.176q-13.333-5.608-26.294-11.176c-68.51-29.2-133.215-56.862-207-61.549q-17.647-1.088-35.294-.608c-96.372,2.451-192.274,35.019-285.018,96.8l-1.1-1.627c93.078-62,189.313-94.666,286.077-97.137,11.765-.333,23.667-.118,35.451.627,74.137,4.765,138.98,32.412,207.646,61.686q13,5.569,26.294,11.157l19.274,8.2c29.412,12.549,59.823,25.49,92.49,36.039,31.745,10.333,60.568,16.235,88.235,18.039,25.49,1.686,49.2-2.255,68.49-11.372,18.823-8.9,36.078-24.039,49.9-43.765,14.078-20.078,25.255-43.47,34.333-71.549,6.588-20.314,11.922-40.314,17.1-59.666,4.725-17.647,9.2-34.431,14.2-49.823q2.392-7.412,4.608-14.608c6.078-19.608,11.765-38,22-56.157,9.8-17.647,25.274-26.569,44.549-26.118,16.98.431,36.059,7.255,55.215,19.725,46.706,30.451,87.862,68.764,127.686,105.882,24.627,22.921,50.1,46.627,76.274,67.8,52.745,42.706,107.843,84.156,173.313,130.509,17.529,12.412,34.588,23.921,50.98,35.059,14.9,10.039,28.941,19.608,42.372,29,16.2,11.431,31.2,22.353,45.706,32.9,33.8,24.608,63.019,45.843,88.862,60Z" transform="translate(-82.15 -28.742)"/></g><g class="v" transform="translate(172.548 48.487)"><path class="g" d="M1739.247,536.443c-22.941-15.49-48.765-36.98-78.686-61.882-16.647-13.863-33.863-28.2-52.941-43.431-15-12.02-30.922-24.2-47.784-37.078-14.078-10.765-28.647-21.9-43.568-33.647-64.117-50.451-118.137-94.568-169.98-138.862-23.176-19.784-46.039-41.608-68.1-62.627-41.961-39.863-85.313-81.078-134.96-113.411-18.667-12.137-37.922-18.8-54.235-18.8h-.333c-19.039.118-33.118,9.608-41.823,28.216s-12.961,37.98-17.333,58.2c-1.235,5.706-2.51,11.608-3.922,17.51-3.373,14.314-6.275,29.627-9.353,45.823-4.255,22.353-8.647,45.49-14.8,68.96-7.667,29.412-17.961,53.8-31.372,74.882-9.274,14.49-25.49,34.255-49.706,46.137-19.608,9.529-43.627,13.529-69.686,11.549-27.451-2.078-56.529-8.274-88.823-18.98-29.843-9.8-58.039-21.569-85.313-32.98-9.373-3.922-18.216-7.627-27.137-11.255l-14.706-6c-73.47-29.961-142.862-58.274-221.117-62.98-11.765-.706-23.706-.9-35.412-.588-97.529,2.216-194.764,33.019-289.018,91.549L88,335.091c94.568-58.823,192.156-89.627,290-91.843,11.765-.314,23.745-.118,35.588.588,78.568,4.725,148.117,33.1,221.725,63.137l14.725,6c8.922,3.627,17.784,7.314,27.157,11.235,27.235,11.392,55.392,23.176,85.156,32.941,32.137,10.647,61.039,16.823,88.352,18.882,25.725,1.961,49.47-1.961,68.627-11.353,23.863-11.765,39.784-31.157,49.019-45.431,13.392-20.9,23.529-45.215,31.216-74.313,6.118-23.412,10.51-46.51,14.765-68.843,3.078-16.216,5.98-31.529,9.372-45.9,1.373-5.882,2.647-11.765,3.922-17.471,4.392-20.333,8.549-39.549,17.47-58.608s24.019-29.235,43.588-29.412h.372c16.922,0,36.02,6.608,55.274,19.137,49.8,32.412,93.235,73.686,135.293,113.607,22.078,21,44.921,42.725,68.137,62.568,51.823,44.274,105.882,88.372,169.921,138.8,14.921,11.765,29.411,22.863,43.549,33.627,16.863,12.9,32.8,25.078,47.8,37.117,19.02,15.235,36.255,29.588,52.941,43.451,29.882,24.863,55.667,46.333,78.431,61.764Z" transform="translate(-88 -24.7)"/></g><g class="w" transform="translate(184.176 40.622)"><path class="g" d="M1726.06,561.551c-19.863-16.157-42.157-37.255-67.98-61.588-17.961-16.941-38.294-36.157-60.353-56.039-17.059-15.372-35.451-31.137-54.9-47.843-11.118-9.51-22.608-19.353-34.314-29.529-61.1-53.1-115.568-101.2-166.568-147.215-20.118-18.137-40.078-37.568-59.392-56.372-44.274-43.137-90.039-87.686-143.137-122.176-19.02-12.353-38.549-18.823-54.9-18.216-19.039.706-33.176,11.529-40.882,31.372s-10.353,40.078-13.255,61.333c-.843,6.431-1.725,13.078-2.745,19.608-2.1,13.529-3.8,27.784-5.588,42.863-2.98,25.059-6.059,50.98-11.431,77.2-6.2,30.372-15.431,55.784-28.235,77.706C973.612,347.69,958,368.2,933.632,380.513c-19.47,9.8-43.647,13.725-69.921,11.549-27.176-2.314-56.294-8.8-89.019-19.823-27.059-9.059-53.039-19.745-78.156-30.078-12.02-4.941-23.372-9.627-34.784-14.1-79.353-31.078-154.313-60.49-238.273-65.2-11.765-.647-23.823-.843-35.568-.569-98.647,1.961-197.215,31.019-293,86.274l-.98-1.706c96.078-55.451,194.96-84.588,293.92-86.568,11.765-.275,23.823,0,35.725.569,84.313,4.725,159.47,34.2,238.979,65.411,11.412,4.49,22.784,9.157,34.8,14.1,25.1,10.333,50.98,21,78.039,30.039,32.568,10.98,61.529,17.431,88.568,19.725,25.9,2.235,49.725-1.686,68.862-11.333,23.961-12.1,39.216-32.294,47.941-47.059,12.686-21.706,21.843-46.921,28-77.078,5.353-26.157,8.431-52.039,11.392-77.039,1.8-15.118,3.51-29.412,5.608-42.941,1.02-6.608,1.961-13.235,2.745-19.608,2.824-21.372,5.51-41.588,13.353-61.764,8-20.588,22.745-31.863,42.627-32.588,16.8-.627,36.725,5.882,56.078,18.529,53.255,34.608,99.1,79.235,143.431,122.411,19.294,18.784,39.215,38.215,59.333,56.333,50.98,45.941,105.451,94.117,166.509,147.058q17.647,15.235,34.294,29.529c19.49,16.686,37.9,32.451,54.9,47.863,22.059,19.9,42.412,39.117,60.372,56.059,25.8,24.353,48.078,45.392,67.882,61.49Z" transform="translate(-93.93 -20.689)"/></g><g class="x" transform="translate(195.627 32.392)"><path class="g" d="M1712.978,586.839c-16.569-15.98-35.039-35.608-56.411-58.333-20.2-21.471-43.137-45.823-68.627-71.588-20.157-20.294-42.372-41.412-65.863-63.764q-10.51-9.941-21.314-20.274L1494,366.506q-75.588-72.176-156.411-149.019c-16.765-15.922-33.549-32.706-49.764-49.019-46.8-46.823-95.2-95.235-152.1-132.156-19.235-12.471-38.9-18.725-55.314-17.647-19.314,1.314-33.117,13.216-39.921,34.451s-8.039,42.431-9.333,64.882c-.412,7-.823,14.235-1.431,21.412-1.078,12.922-1.784,26.392-2.529,40.666-1.451,27.451-2.941,55.98-7.333,84.686-4.686,31.372-12.863,57.784-25,80.509-8.235,15.549-23.216,36.784-47.823,49.588-19.392,10.1-43.627,14.078-70.137,11.549-26.882-2.549-56.078-9.314-89.215-20.686-24.47-8.333-48.274-18.02-71.313-27.451-14.549-5.882-28.314-11.49-42.117-16.725C592.14,310.428,517.4,284.33,433.357,280c-11.921-.608-23.941-.8-35.706-.569-99.784,1.745-199.685,29.019-296.959,81.058l-.922-1.725c97.549-52.2,197.764-79.549,297.842-81.294,11.765-.235,23.882,0,35.843.569,84.313,4.353,159.235,30.51,241.489,61.666,13.843,5.255,27.608,10.843,42.176,16.765,23,9.333,46.784,19,71.215,27.314,32.98,11.333,62.019,18.059,88.764,20.608,26.1,2.49,49.98-1.431,69.039-11.333,24.157-12.588,38.882-33.47,47.059-48.784,12.039-22.529,20.157-48.666,24.8-79.882,4.372-28.608,5.882-57.019,7.314-84.49.745-14.294,1.451-27.784,2.549-40.725.588-7.157,1.02-14.392,1.412-21.372,1.294-22.569,2.529-43.9,9.412-65.372,7.078-22.039,21.569-34.431,41.667-35.8,16.863-1.157,36.922,5.216,56.51,17.921,57.078,37.039,105.549,85.529,152.431,132.411,16.216,16.216,32.98,33,49.725,48.9q80.862,76.725,156.411,149.019l6.706,6.392q10.784,10.314,21.294,20.274c23.529,22.353,45.706,43.47,65.9,63.784,25.627,25.784,48.529,50.157,68.745,71.647,21.353,22.706,39.8,42.314,56.333,58.255Z" transform="translate(-99.77 -16.492)"/></g><g class="y" transform="translate(207.215 24.416)"><path class="g" d="M1699.83,612c-12.823-14.49-26.863-31.235-43.137-50.588-22.823-27.216-48.686-58.059-78.784-91.647-25.686-28.647-54.549-58.823-85.078-90.686-45.823-47.843-100.607-104.705-159.666-163.725-13.2-13.176-26.47-26.863-39.313-40.1-49.529-50.98-100.745-103.921-161.921-143.529-19.431-12.569-39.215-18.608-55.686-17-19.608,1.961-33.078,14.961-38.98,37.568s-5.706,46.078-5.51,68.784c0,7.471.137,15.176,0,22.8-.235,12.569-.137,25.49,0,39.216.235,29.745.471,60.49-2.686,91.352-3.255,32.529-10.372,59.784-21.8,83.333-10.941,22.765-27.588,40.98-46.843,51.313-24.431,13.118-51.745,13.51-70.353,11.569-26.961-2.843-55.372-9.686-89.411-21.569-22.059-7.667-43.765-16.412-64.706-24.843-17-6.843-33.059-13.314-49.2-19.216-87.372-31.9-162.2-53.961-243.43-57.823-11.98-.569-24.039-.745-35.843-.549-100.9,1.51-202.156,27.019-300.94,75.823l-.863-1.765c99.039-48.921,200.568-74.509,301.763-76.019,11.765-.2,23.961,0,35.98.549,81.47,3.922,156.47,25.98,244,57.941,16.176,5.882,32.255,12.392,49.274,19.235,20.961,8.431,42.647,17.157,64.706,24.8,33.882,11.765,62.156,18.647,88.96,21.451,18.353,1.961,45.255,1.529,69.235-11.333,18.9-10.137,35.294-28.059,46-50.431,11.333-23.353,18.392-50.392,21.569-82.686,3.137-30.765,2.9-61.451,2.667-91.137-.1-13.725-.2-26.745,0-39.333.137-7.588,0-15.294,0-22.745-.2-22.823-.412-46.431,5.569-69.313,6.137-23.529,20.2-36.941,40.686-39.019,16.922-1.667,37.157,4.51,56.863,17.333,61.372,39.745,112.666,92.627,162.274,143.784,12.843,13.235,26.118,26.921,39.215,40.078,59.078,59.039,113.882,115.921,159.705,163.764,30.549,31.921,59.412,62.059,85.117,90.725,30.137,33.627,56.019,64.47,78.843,91.686,16.235,19.372,30.255,36.078,43.137,50.568Z" transform="translate(-105.68 -12.424)"/></g><g class="z" transform="translate(218.607 16.438)"><path class="g" d="M1686.8,637.166c-8.137-10.686-17.1-22.647-26.588-35.294-24.784-33.1-55.608-74.294-92.156-119.2-21.9-26.941-47.51-56.961-83-97.353-41.9-47.666-97.509-110.294-156.235-172.019-9.294-9.8-18.706-19.823-27.823-29.529C1248.5,127.756,1194.23,69.855,1128.231,27.169c-19.608-12.725-39.588-18.549-56.059-16.431-19.863,2.627-33.019,16.686-38.039,40.706s-3.353,49.019-1.706,72.941c.549,7.843,1.118,15.961,1.431,23.961.49,12.353,1.294,25.039,2.137,38.47,1.961,31.765,4.118,64.706,2.294,97.431-1.823,33.608-7.843,61.784-18.588,86.156-10.255,23.529-26.568,42.353-45.882,53.039-24.372,13.451-51.843,13.725-70.588,11.549-26.627-3.059-55.117-10.176-89.607-22.412-19.8-7-39.49-14.863-58.51-22.49-19.333-7.725-37.568-15.02-55.941-21.569-124.725-43.9-196.98-51.98-245.979-54.1-11.98-.529-24.1-.706-35.98-.549-101.96,1.294-204.607,25.02-304.92,70.588l-.8-1.784C212.039,337.03,314.9,313.226,417.175,311.932c11.941-.157,24.078,0,36.118.549,93.529,4.059,180.882,31.1,246.528,54.215,18.412,6.471,36.667,13.725,56.019,21.569,19,7.608,38.667,15.471,58.451,22.47,34.353,12.176,62.745,19.274,89.176,22.294,18.471,2.137,45.49,1.961,69.392-11.314,18.961-10.471,34.961-28.98,45.1-52.1,10.588-24.157,16.608-52.117,18.412-85.49,1.8-32.706-.275-65.49-2.274-97.2-.863-13.431-1.667-26.137-2.157-38.51-.314-7.961-.882-16.059-1.412-23.9-1.667-24.157-3.392-49.019,1.726-73.49,5.216-24.9,18.941-39.49,39.706-42.235,16.941-2.176,37.255,3.745,57.392,16.725,66.2,42.823,120.548,100.823,173.117,156.862,9.1,9.8,18.529,19.765,27.823,29.549,58.725,61.725,114.372,124.372,156.274,172.058,35.51,40.412,61.117,70.451,83.039,97.411,36.549,44.921,67.392,86.137,92.156,119.254,9.471,12.667,18.431,24.647,26.588,35.294Z" transform="translate(-111.49 -8.355)"/></g><g class="aa" transform="translate(230.156 8.392)"><path class="g" d="M1673.687,662.363l-3.451-5.216c-27.274-41.176-64.706-97.666-112.058-161.627-22.98-31-49.451-65.019-80.9-103.921-46.882-57.784-97.862-119.607-152.8-180.391l-15.235-16.863c-55.686-61.764-113.254-125.647-184.764-171.8-19.863-12.9-39.922-18.471-56.392-15.823-20.078,3.255-32.941,18.412-37.117,43.823-4.216,25.784-.98,52.137,2.176,77.627,1,8.059,1.961,16.392,2.8,24.588,1.157,12.529,2.608,25.333,4.177,38.882,3.823,33.333,7.843,67.941,7.392,102.274-.373,34.706-5.392,63.823-15.353,88.98-9.588,24.274-25.49,43.725-44.941,54.764-24.274,13.725-51.9,13.9-70.8,11.549-26.294-3.274-54.9-10.667-89.784-23.255-17.647-6.353-35.294-13.392-52.353-20.2-21.569-8.627-42-16.765-62.627-23.725C619.5,350.659,540.613,334.7,463.163,331.639c-12.02-.471-24.2-.647-36.137-.51-103.137,1.039-207.058,23.02-308.881,65.313l-.765-1.824c102.058-42.392,206.234-64.411,309.626-65.451,11.98-.137,24.176,0,36.235.51,77.627,3.059,156.862,19.118,249.019,50.49,20.686,6.98,42.059,15.51,62.745,23.765,17.039,6.8,34.667,13.843,52.255,20.176,34.843,12.549,63.235,19.9,89.392,23.157,18.608,2.314,45.765,2.235,69.588-11.314,19.019-10.823,34.686-29.9,44.117-53.764,9.8-24.941,14.843-53.8,15.216-88.235s-3.549-68.627-7.392-101.96c-1.549-13.569-3.02-26.372-4.176-38.921-.765-8.157-1.8-16.471-2.784-24.529-3.176-25.627-6.451-52.117-2.157-78.176,5.451-33.333,24.059-43.137,38.725-45.451,16.961-2.725,37.49,3,57.823,16.118,71.666,46.294,129.411,110.274,185.117,172.156l15.216,16.863c54.9,60.784,105.882,122.588,152.94,180.391,31.372,38.98,57.941,73.019,80.941,104.058,47.451,64,84.823,120.47,112.117,161.705l3.471,5.216Z" transform="translate(-117.38 -4.251)"/></g><path class="g" d="M1660.615,687.73a2946.675,2946.675,0,0,0-191.136-289.783c-42.608-56.98-93.666-123.96-149.391-188.607l-1.255-1.471C1259.6,139.242,1198.461,68.223,1120.794,18.145,1096.069,2.2,1071.775-2.208,1054.128,6.067c-14.529,6.8-23.529,21.941-26.314,43.8-3.372,27.294,1.412,54.9,6.02,81.764,1.471,8.451,2.961,17.2,4.176,25.745,1.765,12.353,3.8,24.9,5.882,38.176,10.549,64.941,22.51,138.529.647,200-8.9,25.039-24.51,45.1-43.98,56.49-24.235,14.176-52,14.1-71.019,11.549-46.333-6.2-92.431-24.569-137.019-42.353-22.549-8.98-45.863-18.255-68.47-25.627-86.274-28.117-170.744-43.8-250.979-46.666-116.156-4.118-233.626,15.921-349.136,59.568l-.686-1.843c115.686-43.725,233.47-63.8,349.881-59.686,80.392,2.863,165.1,18.588,251.568,46.765,22.667,7.392,46.019,16.686,68.627,25.686,44.47,17.647,90.47,36.039,136.548,42.215,18.725,2.51,46.039,2.588,69.784-11.294,19.059-11.157,34.372-30.843,43.137-55.451,21.686-61.039,9.8-134.372-.745-199.077-2.157-13.294-4.2-25.843-5.882-38.215-1.2-8.529-2.706-17.255-4.157-25.686-4.647-26.921-9.451-54.764-6.039-82.353,2.765-22.569,12.255-38.255,27.451-45.333,18.294-8.569,43.274-4.118,68.627,12.2,77.9,50.235,139.215,121.274,198.372,190l1.353,1.569c55.764,64.706,106.842,131.686,149.47,188.705a2954.27,2954.27,0,0,1,191.274,289.979Z" transform="translate(118.416 0.029)"/></g></g></g></g></svg>