<svg xmlns="http://www.w3.org/2000/svg" width="105.675" height="15.161" viewBox="0 0 105.675 15.161"><defs><style>.a{fill:#fe9c04;}.b{fill:none;stroke:#fe9c04;}</style></defs><g transform="translate(0 0.5)"><path class="a" d="M14.717,5.839a.783.783,0,0,0-.674-.539l-4.26-.387L8.1.973a.785.785,0,0,0-1.443,0L4.973,4.914.713,5.3A.785.785,0,0,0,.267,6.673L3.487,9.5l-.949,4.182a.784.784,0,0,0,1.167.848l3.673-2.2,3.672,2.2a.785.785,0,0,0,1.168-.848L11.268,9.5l3.22-2.823a.785.785,0,0,0,.229-.834ZM7.448,12.287" transform="translate(0 -0.107)"/><path class="a" d="M14.717,5.839a.783.783,0,0,0-.674-.539l-4.26-.387L8.1.973a.785.785,0,0,0-1.443,0L4.973,4.914.713,5.3A.785.785,0,0,0,.267,6.673L3.487,9.5l-.949,4.182a.784.784,0,0,0,1.167.848l3.673-2.2,3.672,2.2a.785.785,0,0,0,1.168-.848L11.268,9.5l3.22-2.823a.785.785,0,0,0,.229-.834ZM7.448,12.287" transform="translate(22.602 -0.107)"/><path class="a" d="M14.717,5.839a.783.783,0,0,0-.674-.539l-4.26-.387L8.1.973a.785.785,0,0,0-1.443,0L4.973,4.914.713,5.3A.785.785,0,0,0,.267,6.673L3.487,9.5l-.949,4.182a.784.784,0,0,0,1.167.848l3.673-2.2,3.672,2.2a.785.785,0,0,0,1.168-.848L11.268,9.5l3.22-2.823a.785.785,0,0,0,.229-.834ZM7.448,12.287" transform="translate(45.204 -0.107)"/><path class="a" d="M14.717,5.839a.783.783,0,0,0-.674-.539l-4.26-.387L8.1.973a.785.785,0,0,0-1.443,0L4.973,4.914.713,5.3A.785.785,0,0,0,.267,6.673L3.487,9.5l-.949,4.182a.784.784,0,0,0,1.167.848l3.673-2.2,3.672,2.2a.785.785,0,0,0,1.168-.848L11.268,9.5l3.22-2.823a.785.785,0,0,0,.229-.834ZM7.448,12.287" transform="translate(67.805 -0.107)"/><path class="b" d="M14.717,5.839a.783.783,0,0,0-.674-.539l-4.26-.387L8.1.973a.785.785,0,0,0-1.443,0L4.973,4.914.713,5.3A.785.785,0,0,0,.267,6.673L3.487,9.5l-.949,4.182a.784.784,0,0,0,1.167.848l3.673-2.2,3.672,2.2a.785.785,0,0,0,1.168-.848L11.268,9.5l3.22-2.823a.785.785,0,0,0,.229-.834ZM7.448,12.287" transform="translate(90.407 -0.496)"/></g></svg>